<svg width="400" height="400" viewBox="0 0 400 400" fill="none" xmlns="http://www.w3.org/2000/svg">
  <defs>
    <clipPath id="hexClip">
      <path d="M200 20L348 110V290L200 380L52 290V110L200 20Z"/>
    </clipPath>
    <linearGradient id="hexGrad" x1="70" y1="40" x2="330" y2="360" gradientUnits="userSpaceOnUse">
      <stop offset="0" stop-color="#0B1220"/>
      <stop offset="0.5" stop-color="#0E2A44"/>
      <stop offset="1" stop-color="#0A1321"/>
    </linearGradient>
    <linearGradient id="batchGrad" x1="120" y1="120" x2="280" y2="280" gradientUnits="userSpaceOnUse">
      <stop offset="0" stop-color="#5EEAD4"/>
      <stop offset="1" stop-color="#60A5FA"/>
    </linearGradient>
    <linearGradient id="layerGrad" x1="140" y1="140" x2="260" y2="260" gradientUnits="userSpaceOnUse">
      <stop offset="0" stop-color="#1F2937"/>
      <stop offset="1" stop-color="#111827"/>
    </linearGradient>
    <pattern id="grid" width="20" height="20" patternUnits="userSpaceOnUse">
      <path d="M20 0L0 0 0 20" stroke="#1F334A" stroke-width="1"/>
    </pattern>
  </defs>

  <path d="M200 20L348 110V290L200 380L52 290V110L200 20Z" fill="url(#hexGrad)" stroke="#7DD3FC" stroke-width="2.5"/>

  <g clip-path="url(#hexClip)">
    <rect x="52" y="20" width="296" height="360" fill="url(#grid)" opacity="0.25"/>
    <rect x="90" y="118" width="220" height="50" rx="12" fill="url(#layerGrad)" stroke="url(#batchGrad)" stroke-width="2"/>
    <rect x="90" y="175" width="220" height="50" rx="12" fill="url(#layerGrad)" stroke="url(#batchGrad)" stroke-width="2"/>
    <rect x="90" y="232" width="220" height="50" rx="12" fill="url(#layerGrad)" stroke="url(#batchGrad)" stroke-width="2"/>

    <g fill="#0B1220" stroke="#7DD3FC" stroke-width="2">
      <circle cx="120" cy="143" r="6"/>
      <circle cx="120" cy="200" r="6"/>
      <circle cx="120" cy="257" r="6"/>
    </g>

    <g stroke="#60A5FA" stroke-width="2" stroke-linecap="round">
      <path d="M140 143H260"/>
      <path d="M140 200H260"/>
      <path d="M140 257H260"/>
    </g>
  </g>
</svg>
