<svg width="200" height="200" viewBox="0 0 200 200" fill="none" xmlns="http://www.w3.org/2000/svg">
  <defs>
    <linearGradient id="fabric-bg" x1="36" y1="28" x2="164" y2="172" gradientUnits="userSpaceOnUse">
      <stop offset="0" stop-color="#08131E"/>
      <stop offset="0.5" stop-color="#12354A"/>
      <stop offset="1" stop-color="#071019"/>
    </linearGradient>
    <linearGradient id="fabric-edge" x1="48" y1="32" x2="152" y2="168" gradientUnits="userSpaceOnUse">
      <stop offset="0" stop-color="#BFF6FF"/>
      <stop offset="0.45" stop-color="#5AC8E3"/>
      <stop offset="1" stop-color="#FFB36A"/>
    </linearGradient>
    <linearGradient id="fabric-band-a" x1="56" y1="72" x2="144" y2="128" gradientUnits="userSpaceOnUse">
      <stop offset="0" stop-color="#8CE7FF"/>
      <stop offset="1" stop-color="#37B6D7"/>
    </linearGradient>
    <linearGradient id="fabric-band-b" x1="64" y1="56" x2="136" y2="144" gradientUnits="userSpaceOnUse">
      <stop offset="0" stop-color="#FFD39A"/>
      <stop offset="1" stop-color="#FF8A4C"/>
    </linearGradient>
    <radialGradient id="fabric-core" cx="0" cy="0" r="1" gradientUnits="userSpaceOnUse" gradientTransform="translate(100 100) rotate(90) scale(76)">
      <stop offset="0" stop-color="#1C536F"/>
      <stop offset="0.7" stop-color="#0E2230"/>
      <stop offset="1" stop-color="#071019"/>
    </radialGradient>
    <pattern id="fabric-grid" width="18" height="18" patternUnits="userSpaceOnUse" patternTransform="rotate(30)">
      <path d="M0 0H18" stroke="#A4F3FF" stroke-opacity="0.1" stroke-width="2"/>
      <path d="M0 9H18" stroke="#A4F3FF" stroke-opacity="0.06" stroke-width="1"/>
    </pattern>
    <filter id="fabric-shadow" x="16" y="8" width="168" height="184" filterUnits="userSpaceOnUse" color-interpolation-filters="sRGB">
      <feDropShadow dx="0" dy="8" stdDeviation="8" flood-color="#02070C" flood-opacity="0.45"/>
    </filter>
    <filter id="fabric-glow" x="30" y="30" width="140" height="140" filterUnits="userSpaceOnUse" color-interpolation-filters="sRGB">
      <feGaussianBlur stdDeviation="6" result="blur"/>
      <feColorMatrix in="blur" type="matrix" values="1 0 0 0 0 0 1 0 0 0.35 0 0 1 0 0.45 0 0 0 1 0"/>
    </filter>
    <filter id="fabric-noise" x="24" y="16" width="152" height="168" filterUnits="userSpaceOnUse" color-interpolation-filters="sRGB">
      <feTurbulence type="fractalNoise" baseFrequency="0.85" numOctaves="2" seed="7" result="noise"/>
      <feColorMatrix in="noise" type="saturate" values="0"/>
      <feComponentTransfer>
        <feFuncA type="table" tableValues="0 0.08"/>
      </feComponentTransfer>
    </filter>
    <clipPath id="fabric-clip">
      <path d="M100 14L165 51.5V126.5L100 164L35 126.5V51.5L100 14Z"/>
    </clipPath>
  </defs>

  <g filter="url(#fabric-shadow)">
    <path d="M100 14L165 51.5V126.5L100 164L35 126.5V51.5L100 14Z" fill="url(#fabric-bg)"/>
    <path d="M100 22L158 55.5V122.5L100 156L42 122.5V55.5L100 22Z" fill="url(#fabric-core)" stroke="#D9FBFF" stroke-opacity="0.22"/>
    <path d="M100 14L165 51.5V126.5L100 164L35 126.5V51.5L100 14Z" stroke="url(#fabric-edge)" stroke-width="4"/>
    <g clip-path="url(#fabric-clip)">
      <rect x="28" y="16" width="144" height="152" fill="url(#fabric-grid)"/>
      <rect x="28" y="16" width="144" height="152" filter="url(#fabric-noise)"/>

      <path d="M48 128C64 112 80 108 100 108C121 108 136 113 152 128" stroke="#B8F8FF" stroke-opacity="0.24" stroke-width="24" stroke-linecap="round"/>
      <path d="M52 70C68 84 84 92 100 92C116 92 132 84 148 70" stroke="#FFE0B0" stroke-opacity="0.22" stroke-width="20" stroke-linecap="round"/>

      <path d="M54 126C70 112 84 106 100 106C116 106 130 112 146 126" stroke="url(#fabric-band-a)" stroke-width="14" stroke-linecap="round"/>
      <path d="M56 74C72 86 86 94 100 94C114 94 128 86 144 74" stroke="url(#fabric-band-b)" stroke-width="12" stroke-linecap="round"/>
      <path d="M69 54L94 79L76 97L100 121L123 97L105 79L130 54" stroke="#D9FBFF" stroke-width="6" stroke-linecap="round" stroke-linejoin="round"/>
      <path d="M68 144L92 120L100 128L108 120L132 144" stroke="#89F0FF" stroke-opacity="0.8" stroke-width="4" stroke-linecap="round" stroke-linejoin="round"/>

      <path d="M58 58L80 80" stroke="#C1FBFF" stroke-opacity="0.35" stroke-width="3" stroke-linecap="round"/>
      <path d="M142 58L120 80" stroke="#FFD0A8" stroke-opacity="0.35" stroke-width="3" stroke-linecap="round"/>
      <path d="M58 136L82 112" stroke="#8EE8FF" stroke-opacity="0.35" stroke-width="3" stroke-linecap="round"/>
      <path d="M142 136L118 112" stroke="#8EE8FF" stroke-opacity="0.35" stroke-width="3" stroke-linecap="round"/>

      <path d="M70 56H130" stroke="#E6FCFF" stroke-opacity="0.16" stroke-width="2"/>
      <path d="M58 100H142" stroke="#E6FCFF" stroke-opacity="0.18" stroke-width="2"/>
      <path d="M72 144H128" stroke="#E6FCFF" stroke-opacity="0.14" stroke-width="2"/>

      <g filter="url(#fabric-glow)">
        <circle cx="100" cy="100" r="18" fill="#67E8F9" fill-opacity="0.24"/>
        <circle cx="70" cy="56" r="4" fill="#D2FCFF"/>
        <circle cx="130" cy="56" r="4" fill="#FFD4A9"/>
        <circle cx="58" cy="100" r="4" fill="#D2FCFF"/>
        <circle cx="142" cy="100" r="4" fill="#D2FCFF"/>
        <circle cx="72" cy="144" r="4" fill="#9EEDFF"/>
        <circle cx="128" cy="144" r="4" fill="#9EEDFF"/>
      </g>

      <circle cx="100" cy="100" r="11" fill="#091A24" stroke="#E6FCFF" stroke-opacity="0.8" stroke-width="2"/>
      <circle cx="100" cy="100" r="4" fill="#D8FBFF"/>
    </g>
    <path d="M48 49L100 19L152 49" stroke="#F4FEFF" stroke-opacity="0.45" stroke-width="2" stroke-linecap="round"/>
  </g>
</svg>
