<svg xmlns="http://www.w3.org/2000/svg" viewBox="0 0 600 600" width="600" height="600">
  <defs>
    <!-- Gradient definitions for the main hexagon - Deep Space Theme -->
    <linearGradient id="mainHexGradient" x1="0%" y1="0%" x2="100%" y2="100%">
      <stop offset="0%" style="stop-color:#0F172A;stop-opacity:1" />
      <stop offset="30%" style="stop-color:#1E293B;stop-opacity:1" />
      <stop offset="70%" style="stop-color:#0C4A6E;stop-opacity:1" />
      <stop offset="100%" style="stop-color:#0E7490;stop-opacity:1" />
    </linearGradient>
    
    <!-- Metallic gradient for 3D hexagon faces - cosmic blues/teals -->
    <linearGradient id="hexFaceTop" x1="0%" y1="0%" x2="0%" y2="100%">
      <stop offset="0%" style="stop-color:#E0F2FE;stop-opacity:1" />
      <stop offset="100%" style="stop-color:#7DD3FC;stop-opacity:1" />
    </linearGradient>
    
    <linearGradient id="hexFaceLeft" x1="0%" y1="0%" x2="100%" y2="100%">
      <stop offset="0%" style="stop-color:#22D3EE;stop-opacity:1" />
      <stop offset="100%" style="stop-color:#0891B2;stop-opacity:1" />
    </linearGradient>
    
    <linearGradient id="hexFaceRight" x1="100%" y1="0%" x2="0%" y2="100%">
      <stop offset="0%" style="stop-color:#38BDF8;stop-opacity:1" />
      <stop offset="100%" style="stop-color:#0369A1;stop-opacity:1" />
    </linearGradient>
    
    <!-- Glow effect for inner hexagons -->
    <filter id="glow" x="-50%" y="-50%" width="200%" height="200%">
      <feGaussianBlur stdDeviation="3" result="coloredBlur"/>
      <feMerge>
        <feMergeNode in="coloredBlur"/>
        <feMergeNode in="SourceGraphic"/>
      </feMerge>
    </filter>
    
    <!-- Strong glow for central command hexagon -->
    <filter id="commandGlow" x="-100%" y="-100%" width="300%" height="300%">
      <feGaussianBlur stdDeviation="8" result="coloredBlur"/>
      <feMerge>
        <feMergeNode in="coloredBlur"/>
        <feMergeNode in="coloredBlur"/>
        <feMergeNode in="SourceGraphic"/>
      </feMerge>
    </filter>
    
    <!-- Drop shadow -->
    <filter id="dropShadow" x="-20%" y="-20%" width="140%" height="140%">
      <feDropShadow dx="0" dy="4" stdDeviation="6" flood-color="#0C4A6E" flood-opacity="0.6"/>
    </filter>
    
    <!-- Inner shadow for depth -->
    <filter id="innerShadow" x="-50%" y="-50%" width="200%" height="200%">
      <feComponentTransfer in="SourceAlpha">
        <feFuncA type="table" tableValues="1 0"/>
      </feComponentTransfer>
      <feGaussianBlur stdDeviation="8"/>
      <feOffset dx="0" dy="4" result="offsetblur"/>
      <feFlood flood-color="#0C4A6E" flood-opacity="0.6"/>
      <feComposite in2="offsetblur" operator="in"/>
      <feComposite in2="SourceAlpha" operator="in"/>
      <feMerge>
        <feMergeNode in="SourceGraphic"/>
        <feMergeNode/>
      </feMerge>
    </filter>
    
    <!-- Advanced color palette - Deep Space cosmic colors -->
    <!-- Primary: Deep space blue to cyan gradient -->
    <linearGradient id="elixirPurple1" x1="0%" y1="0%" x2="100%" y2="100%">
      <stop offset="0%" style="stop-color:#BAE6FD"/>
      <stop offset="35%" style="stop-color:#38BDF8"/>
      <stop offset="70%" style="stop-color:#0891B2"/>
      <stop offset="100%" style="stop-color:#164E63"/>
    </linearGradient>
    
    <!-- Secondary: Teal to deep blue -->
    <linearGradient id="elixirPurple2" x1="0%" y1="100%" x2="100%" y2="0%">
      <stop offset="0%" style="stop-color:#134E4A"/>
      <stop offset="40%" style="stop-color:#0D9488"/>
      <stop offset="100%" style="stop-color:#22D3EE"/>
    </linearGradient>
    
    <!-- Tertiary: Bright cyan highlight to deep space -->
    <linearGradient id="elixirPurple3" x1="50%" y1="0%" x2="50%" y2="100%">
      <stop offset="0%" style="stop-color:#CFFAFE"/>
      <stop offset="25%" style="stop-color:#67E8F9"/>
      <stop offset="75%" style="stop-color:#0891B2"/>
      <stop offset="100%" style="stop-color:#155E75"/>
    </linearGradient>
    
    <!-- Additional palette variations for visual depth -->
    <linearGradient id="hexSlate1" x1="0%" y1="0%" x2="0%" y2="100%">
      <stop offset="0%" style="stop-color:#E0F2FE"/>
      <stop offset="50%" style="stop-color:#7DD3FC"/>
      <stop offset="100%" style="stop-color:#0369A1"/>
    </linearGradient>
    
    <linearGradient id="hexSlate2" x1="100%" y1="0%" x2="0%" y2="100%">
      <stop offset="0%" style="stop-color:#5EEAD4"/>
      <stop offset="50%" style="stop-color:#14B8A6"/>
      <stop offset="100%" style="stop-color:#0F766E"/>
    </linearGradient>
    
    <radialGradient id="hexRadial1" cx="30%" cy="30%" r="70%" fx="20%" fy="20%">
      <stop offset="0%" style="stop-color:#CFFAFE"/>
      <stop offset="60%" style="stop-color:#22D3EE"/>
      <stop offset="100%" style="stop-color:#0E7490"/>
    </radialGradient>
    
    <radialGradient id="hexRadial2" cx="70%" cy="70%" r="80%" fx="80%" fy="80%">
      <stop offset="0%" style="stop-color:#F0FDFA"/>
      <stop offset="40%" style="stop-color:#5EEAD4"/>
      <stop offset="100%" style="stop-color:#0D9488"/>
    </radialGradient>
    
    <!-- Micro-detail patterns for hexagon interiors -->
    <pattern id="microCircuit" x="0" y="0" width="12" height="12" patternUnits="userSpaceOnUse">
      <rect width="12" height="12" fill="none"/>
      <line x1="0" y1="6" x2="4" y2="6" stroke="#64748B" stroke-width="0.3" opacity="0.4"/>
      <line x1="8" y1="6" x2="12" y2="6" stroke="#64748B" stroke-width="0.3" opacity="0.4"/>
      <line x1="6" y1="0" x2="6" y2="4" stroke="#64748B" stroke-width="0.3" opacity="0.4"/>
      <line x1="6" y1="8" x2="6" y2="12" stroke="#64748B" stroke-width="0.3" opacity="0.4"/>
      <circle cx="6" cy="6" r="1" fill="#94A3B8" opacity="0.5"/>
    </pattern>
    
    <pattern id="microDots" x="0" y="0" width="8" height="8" patternUnits="userSpaceOnUse">
      <circle cx="2" cy="2" r="0.4" fill="#CBD5E1" opacity="0.3"/>
      <circle cx="6" cy="6" r="0.4" fill="#94A3B8" opacity="0.25"/>
    </pattern>
    
    <pattern id="microHex" x="0" y="0" width="10" height="8.66" patternUnits="userSpaceOnUse">
      <polygon points="5,0 10,2.5 10,6.16 5,8.66 0,6.16 0,2.5" 
               fill="none" stroke="#0891B2" stroke-width="0.2" opacity="0.15"/>
    </pattern>
    
    <!-- Inner glow filter for dimensional depth -->
    <filter id="innerGlow" x="-50%" y="-50%" width="200%" height="200%">
      <feGaussianBlur stdDeviation="1.5" result="blur"/>
      <feComposite in="SourceGraphic" in2="blur" operator="over"/>
    </filter>
    
    <!-- Subtle bevel effect -->
    <filter id="microBevel" x="-10%" y="-10%" width="120%" height="120%">
      <feGaussianBlur in="SourceAlpha" stdDeviation="0.5" result="blur"/>
      <feOffset dx="0.5" dy="0.5" result="offsetBlur"/>
      <feComposite in="SourceGraphic" in2="offsetBlur" operator="over"/>
    </filter>
    
    <!-- Central command gradient - gold/amber accent -->
    <linearGradient id="commandGold" x1="0%" y1="0%" x2="100%" y2="100%">
      <stop offset="0%" style="stop-color:#FDE68A"/>
      <stop offset="50%" style="stop-color:#F59E0B"/>
      <stop offset="100%" style="stop-color:#D97706"/>
    </linearGradient>
    
    <!-- Radial gradient for background depth - deeper space -->
    <radialGradient id="bgDepth" cx="50%" cy="50%" r="60%" fx="45%" fy="40%">
      <stop offset="0%" style="stop-color:#0c0618;stop-opacity:1"/>
      <stop offset="40%" style="stop-color:#0a0412;stop-opacity:1"/>
      <stop offset="70%" style="stop-color:#05020a;stop-opacity:1"/>
      <stop offset="100%" style="stop-color:#010104;stop-opacity:1"/>
    </radialGradient>
    
    <!-- Nebula gradients for deep space effect -->
    <radialGradient id="nebula1" cx="30%" cy="25%" r="45%" fx="25%" fy="20%">
      <stop offset="0%" style="stop-color:#7C3AED;stop-opacity:0.25"/>
      <stop offset="30%" style="stop-color:#4C1D95;stop-opacity:0.15"/>
      <stop offset="60%" style="stop-color:#1E1B4B;stop-opacity:0.08"/>
      <stop offset="100%" style="stop-color:#000000;stop-opacity:0"/>
    </radialGradient>
    
    <radialGradient id="nebula2" cx="75%" cy="70%" r="50%" fx="80%" fy="75%">
      <stop offset="0%" style="stop-color:#DC2626;stop-opacity:0.12"/>
      <stop offset="25%" style="stop-color:#9333EA;stop-opacity:0.1"/>
      <stop offset="50%" style="stop-color:#4C1D95;stop-opacity:0.06"/>
      <stop offset="100%" style="stop-color:#000000;stop-opacity:0"/>
    </radialGradient>
    
    <radialGradient id="nebula3" cx="20%" cy="75%" r="40%" fx="15%" fy="80%">
      <stop offset="0%" style="stop-color:#0891B2;stop-opacity:0.15"/>
      <stop offset="35%" style="stop-color:#6366F1;stop-opacity:0.1"/>
      <stop offset="70%" style="stop-color:#1E1B4B;stop-opacity:0.05"/>
      <stop offset="100%" style="stop-color:#000000;stop-opacity:0"/>
    </radialGradient>
    
    <radialGradient id="nebula4" cx="80%" cy="30%" r="35%" fx="85%" fy="25%">
      <stop offset="0%" style="stop-color:#F59E0B;stop-opacity:0.1"/>
      <stop offset="30%" style="stop-color:#D97706;stop-opacity:0.07"/>
      <stop offset="60%" style="stop-color:#7C2D12;stop-opacity:0.04"/>
      <stop offset="100%" style="stop-color:#000000;stop-opacity:0"/>
    </radialGradient>
    
    <!-- Cosmic dust cloud filter -->
    <filter id="cosmicDust" x="-50%" y="-50%" width="200%" height="200%">
      <feTurbulence type="fractalNoise" baseFrequency="0.015" numOctaves="4" result="noise"/>
      <feColorMatrix type="saturate" values="0" in="noise" result="desaturated"/>
      <feComponentTransfer in="desaturated" result="adjusted">
        <feFuncR type="linear" slope="0.5" intercept="0"/>
        <feFuncG type="linear" slope="0.4" intercept="0"/>
        <feFuncB type="linear" slope="0.6" intercept="0"/>
        <feFuncA type="linear" slope="0.08" intercept="0"/>
      </feComponentTransfer>
      <feBlend in="SourceGraphic" in2="adjusted" mode="screen"/>
    </filter>
    
    <!-- Subtle glow for distant stars -->
    <filter id="starGlow" x="-100%" y="-100%" width="300%" height="300%">
      <feGaussianBlur stdDeviation="1.5" result="blur"/>
      <feMerge>
        <feMergeNode in="blur"/>
        <feMergeNode in="SourceGraphic"/>
      </feMerge>
    </filter>
    
    <!-- Galaxy core glow -->
    <radialGradient id="galaxyCore" cx="50%" cy="50%" r="50%">
      <stop offset="0%" style="stop-color:#FDE68A;stop-opacity:0.6"/>
      <stop offset="30%" style="stop-color:#F59E0B;stop-opacity:0.3"/>
      <stop offset="60%" style="stop-color:#7C3AED;stop-opacity:0.1"/>
      <stop offset="100%" style="stop-color:#000000;stop-opacity:0"/>
    </radialGradient>
    
    <!-- 3D hexagon symbol with micro-details -->
    <symbol id="hex3d" viewBox="0 0 60 52">
      <!-- Top face with subtle gradient shift -->
      <polygon points="30,0 60,15 60,20 30,5" fill="url(#hexSlate1)" opacity="0.95"/>
      <!-- Left face with cooler tone -->
      <polygon points="0,15 30,0 30,5 0,20 0,37 30,52 30,47 0,32" fill="url(#hexSlate2)" opacity="0.9"/>
      <!-- Right face with warmer undertone -->
      <polygon points="60,15 30,0 30,5 60,20 60,37 30,52 30,47 60,32" fill="url(#hexFaceRight)" opacity="0.85"/>
      <!-- Top surface with radial depth -->
      <polygon points="30,5 0,20 0,32 30,47 60,32 60,20" fill="url(#hexRadial1)" opacity="0.7"/>
      <!-- Micro circuit pattern overlay -->
      <polygon points="30,8 5,21 5,31 30,44 55,31 55,21" fill="url(#microCircuit)" opacity="0.3"/>
      <!-- Tiny center element -->
      <circle cx="30" cy="26" r="2" fill="#CBD5E1" opacity="0.4"/>
      <circle cx="30" cy="26" r="0.8" fill="#E2E8F0" opacity="0.6"/>
      <!-- Highlight edge -->
      <polygon points="30,0 0,15 0,20 30,5 60,20 60,15" fill="white" opacity="0.25"/>
      <!-- Subtle edge accent lines -->
      <line x1="15" y1="12" x2="20" y2="10" stroke="#67E8F9" stroke-width="0.3" opacity="0.5"/>
      <line x1="45" y1="12" x2="40" y2="10" stroke="#67E8F9" stroke-width="0.3" opacity="0.5"/>
    </symbol>
    
    <!-- Flat hexagon with layered micro-details -->
    <symbol id="hexFlat" viewBox="0 0 52 60">
      <polygon points="26,0 52,15 52,45 26,60 0,45 0,15" 
               fill="url(#hexRadial2)" stroke="#94A3B8" stroke-width="0.8"/>
      <!-- Inner reflection with pattern -->
      <polygon points="26,8 44,19 44,41 26,52 8,41 8,19" 
               fill="url(#elixirPurple3)" opacity="0.45"/>
      <!-- Micro dot matrix -->
      <polygon points="26,12 40,21 40,39 26,48 12,39 12,21" 
               fill="url(#microDots)" opacity="0.6"/>
      <!-- Subtle inner hexagon accent -->
      <polygon points="26,18 34,23 34,37 26,42 18,37 18,23" 
               fill="none" stroke="#CBD5E1" stroke-width="0.4" opacity="0.35"/>
      <!-- Center node detail -->
      <circle cx="26" cy="30" r="1.5" fill="#5EEAD4" opacity="0.5"/>
      <circle cx="26" cy="30" r="0.6" fill="#E2E8F0" opacity="0.7"/>
      <!-- Tiny corner accents -->
      <circle cx="26" cy="5" r="0.5" fill="#22D3EE" opacity="0.4"/>
      <circle cx="8" cy="20" r="0.4" fill="#0891B2" opacity="0.3"/>
      <circle cx="44" cy="20" r="0.4" fill="#0891B2" opacity="0.3"/>
      <!-- Top highlight -->
      <polygon points="26,0 52,15 44,19 26,8 8,19 0,15" 
               fill="white" opacity="0.15"/>
    </symbol>
    
    <!-- Wireframe hexagon with subtle fills and details -->
    <symbol id="hexWire" viewBox="0 0 52 60">
      <!-- Very subtle background fill -->
      <polygon points="26,0 52,15 52,45 26,60 0,45 0,15" 
               fill="url(#hexSlate1)" opacity="0.08"/>
      <polygon points="26,0 52,15 52,45 26,60 0,45 0,15" 
               fill="none" stroke="url(#hexSlate2)" stroke-width="1.5" opacity="0.6"/>
      <polygon points="26,6 46,18 46,42 26,54 6,42 6,18" 
               fill="none" stroke="#22D3EE" stroke-width="0.8" opacity="0.35"/>
      <!-- Inner circuit pattern -->
      <polygon points="26,12 40,21 40,39 26,48 12,39 12,21" 
               fill="url(#microCircuit)" opacity="0.15"/>
      <!-- Radial accent lines from center -->
      <line x1="26" y1="30" x2="26" y2="12" stroke="#67E8F9" stroke-width="0.25" opacity="0.4"/>
      <line x1="26" y1="30" x2="40" y2="21" stroke="#67E8F9" stroke-width="0.25" opacity="0.4"/>
      <line x1="26" y1="30" x2="12" y2="21" stroke="#67E8F9" stroke-width="0.25" opacity="0.4"/>
      <!-- Center point -->
      <circle cx="26" cy="30" r="1.2" fill="#0891B2" opacity="0.5"/>
      <circle cx="26" cy="30" r="0.5" fill="#CFFAFE" opacity="0.6"/>
    </symbol>
    
    <!-- Glowing hexagon with enhanced details -->
    <symbol id="hexGlow" viewBox="0 0 52 60">
      <polygon points="26,0 52,15 52,45 26,60 0,45 0,15" 
               fill="url(#hexRadial1)" filter="url(#glow)"/>
      <!-- Secondary layer with pattern overlay -->
      <polygon points="26,5 47,17 47,43 26,55 5,43 5,17" 
               fill="url(#elixirPurple3)" opacity="0.75"/>
      <!-- Micro hex pattern -->
      <polygon points="26,10 42,20 42,40 26,50 10,40 10,20" 
               fill="url(#microHex)" opacity="0.25"/>
      <!-- Inner glow ring -->
      <polygon points="26,15 38,23 38,37 26,45 14,37 14,23" 
               fill="none" stroke="#A5F3FC" stroke-width="0.5" opacity="0.4"/>
      <!-- Center luminescent point -->
      <circle cx="26" cy="30" r="2" fill="#5EEAD4" opacity="0.6"/>
      <circle cx="26" cy="30" r="1" fill="#E2E8F0" opacity="0.8"/>
      <circle cx="26" cy="30" r="0.4" fill="white" opacity="0.9"/>
      <!-- Subtle radiant lines -->
      <line x1="26" y1="28" x2="26" y2="22" stroke="#A5F3FC" stroke-width="0.3" opacity="0.5"/>
      <line x1="28" y1="29" x2="32" y2="27" stroke="#A5F3FC" stroke-width="0.3" opacity="0.5"/>
      <line x1="24" y1="29" x2="20" y2="27" stroke="#A5F3FC" stroke-width="0.3" opacity="0.5"/>
    </symbol>
    
    <!-- Command center hexagon -->
    <symbol id="hexCommand" viewBox="0 0 80 92">
      <!-- Outer glow ring -->
      <polygon points="40,0 80,23 80,69 40,92 0,69 0,23" 
               fill="none" stroke="#FDE68A" stroke-width="3" opacity="0.5"/>
      <!-- Main body -->
      <polygon points="40,4 76,25 76,67 40,88 4,67 4,25" 
               fill="url(#commandGold)"/>
      <!-- Inner ring -->
      <polygon points="40,12 68,29 68,63 40,80 12,63 12,29" 
               fill="none" stroke="#FEF3C7" stroke-width="2"/>
      <!-- Center highlight -->
      <polygon points="40,20 60,33 60,59 40,72 20,59 20,33" 
               fill="url(#commandGold)" opacity="0.7"/>
      <!-- Crown/command symbol -->
      <polygon points="40,28 52,35 52,50 40,58 28,50 28,35" 
               fill="#FEF3C7"/>
      <!-- Top shine -->
      <polygon points="40,4 76,25 68,29 40,12 12,29 4,25" 
               fill="white" opacity="0.4"/>
    </symbol>
    
    <!-- Animated pulse for connections -->
    <symbol id="connectionDot" viewBox="0 0 10 10">
      <circle cx="5" cy="5" r="3" fill="#22D3EE"/>
      <circle cx="5" cy="5" r="2" fill="#A5F3FC"/>
    </symbol>
  </defs>
  
  <!-- Main outer hexagon with shadow -->
  <g filter="url(#dropShadow)">
    <polygon points="300,15 555,162 555,438 300,585 45,438 45,162" 
             fill="url(#mainHexGradient)" stroke="#0E7490" stroke-width="3"/>
  </g>
  
  <!-- Inner hexagon area with depth -->
  <polygon points="300,35 535,172 535,428 300,565 65,428 65,172" 
           fill="url(#bgDepth)" filter="url(#innerShadow)"/>
  
  <!-- ============================================== -->
  <!-- DEEP SPACE BACKGROUND - James Webb inspired   -->
  <!-- ============================================== -->
  
  <!-- Clip path for space elements within hexagon -->
  <clipPath id="spaceClip">
    <polygon points="300,40 530,175 530,425 300,560 70,425 70,175"/>
  </clipPath>
  
  <g clip-path="url(#spaceClip)">
    
    <!-- Nebula cloud layers - soft cosmic gas clouds -->
    <ellipse cx="180" cy="200" rx="120" ry="90" fill="url(#nebula1)" opacity="0.8"/>
    <ellipse cx="420" cy="420" rx="130" ry="100" fill="url(#nebula2)" opacity="0.7"/>
    <ellipse cx="130" cy="450" rx="100" ry="80" fill="url(#nebula3)" opacity="0.75"/>
    <ellipse cx="450" cy="180" rx="90" ry="70" fill="url(#nebula4)" opacity="0.65"/>
    
    <!-- Secondary nebula wisps for depth -->
    <ellipse cx="300" cy="150" rx="80" ry="50" fill="url(#nebula1)" opacity="0.3" transform="rotate(-15, 300, 150)"/>
    <ellipse cx="350" cy="480" rx="100" ry="60" fill="url(#nebula2)" opacity="0.4" transform="rotate(20, 350, 480)"/>
    
    <!-- Cosmic dust overlay -->
    <rect x="60" y="170" width="480" height="430" fill="#1a0a2e" filter="url(#cosmicDust)" opacity="0.4"/>
    
    <!-- ======== STAR FIELD - Multiple layers ======== -->
    
    <!-- Distant tiny stars - blue-white -->
    <g fill="#E0E7FF" opacity="0.6">
      <circle cx="120" cy="195" r="0.5"/>
      <circle cx="185" cy="210" r="0.4"/>
      <circle cx="142" cy="245" r="0.5"/>
      <circle cx="98" cy="280" r="0.3"/>
      <circle cx="165" cy="295" r="0.4"/>
      <circle cx="115" cy="340" r="0.5"/>
      <circle cx="88" cy="375" r="0.4"/>
      <circle cx="145" cy="410" r="0.3"/>
      <circle cx="180" cy="445" r="0.5"/>
      <circle cx="125" cy="485" r="0.4"/>
      <circle cx="220" cy="175" r="0.4"/>
      <circle cx="265" cy="125" r="0.5"/>
      <circle cx="310" cy="95" r="0.3"/>
      <circle cx="355" cy="120" r="0.4"/>
      <circle cx="400" cy="145" r="0.5"/>
      <circle cx="445" cy="180" r="0.4"/>
      <circle cx="485" cy="215" r="0.3"/>
      <circle cx="510" cy="265" r="0.5"/>
      <circle cx="495" cy="315" r="0.4"/>
      <circle cx="505" cy="365" r="0.4"/>
      <circle cx="480" cy="410" r="0.5"/>
      <circle cx="450" cy="455" r="0.3"/>
      <circle cx="405" cy="490" r="0.5"/>
      <circle cx="350" cy="515" r="0.4"/>
      <circle cx="290" cy="530" r="0.3"/>
      <circle cx="235" cy="505" r="0.4"/>
      <circle cx="190" cy="480" r="0.5"/>
    </g>
    
    <!-- Medium distant stars - warm white -->
    <g fill="#FEF3C7" opacity="0.7">
      <circle cx="155" cy="230" r="0.6"/>
      <circle cx="200" cy="275" r="0.7"/>
      <circle cx="130" cy="315" r="0.6"/>
      <circle cx="175" cy="365" r="0.5"/>
      <circle cx="105" cy="405" r="0.6"/>
      <circle cx="240" cy="145" r="0.7"/>
      <circle cx="335" cy="105" r="0.6"/>
      <circle cx="425" cy="160" r="0.5"/>
      <circle cx="475" cy="245" r="0.7"/>
      <circle cx="490" cy="340" r="0.6"/>
      <circle cx="455" cy="425" r="0.7"/>
      <circle cx="380" cy="495" r="0.6"/>
      <circle cx="275" cy="510" r="0.5"/>
      <circle cx="160" cy="465" r="0.6"/>
    </g>
    
    <!-- Brighter prominent stars - with subtle glow -->
    <g filter="url(#starGlow)">
      <!-- Blue-white hot stars -->
      <circle cx="140" cy="255" r="1.2" fill="#C7D2FE" opacity="0.9"/>
      <circle cx="470" cy="285" r="1.1" fill="#A5B4FC" opacity="0.85"/>
      <circle cx="295" cy="115" r="1.0" fill="#E0E7FF" opacity="0.9"/>
      <circle cx="430" cy="475" r="1.2" fill="#C7D2FE" opacity="0.8"/>
      <circle cx="170" cy="485" r="1.0" fill="#A5B4FC" opacity="0.85"/>
      
      <!-- Yellow-gold stars -->
      <circle cx="200" cy="185" r="1.1" fill="#FDE68A" opacity="0.9"/>
      <circle cx="490" cy="380" r="1.3" fill="#FCD34D" opacity="0.85"/>
      <circle cx="110" cy="350" r="1.0" fill="#FDE68A" opacity="0.8"/>
      <circle cx="365" cy="525" r="1.1" fill="#FEF3C7" opacity="0.9"/>
      
      <!-- Red giant stars -->
      <circle cx="455" cy="195" r="1.4" fill="#FCA5A5" opacity="0.7"/>
      <circle cx="125" cy="420" r="1.2" fill="#FDA4AF" opacity="0.65"/>
    </g>
    
    <!-- Scattered star clusters -->
    <g fill="#E0E7FF" opacity="0.5">
      <!-- Cluster 1 - upper left -->
      <circle cx="145" cy="215" r="0.3"/>
      <circle cx="148" cy="218" r="0.25"/>
      <circle cx="142" cy="220" r="0.3"/>
      <circle cx="150" cy="213" r="0.2"/>
      <circle cx="146" cy="223" r="0.25"/>
      
      <!-- Cluster 2 - right side -->
      <circle cx="485" cy="295" r="0.3"/>
      <circle cx="488" cy="298" r="0.2"/>
      <circle cx="482" cy="292" r="0.25"/>
      <circle cx="490" cy="300" r="0.3"/>
      <circle cx="483" cy="297" r="0.2"/>
      
      <!-- Cluster 3 - bottom -->
      <circle cx="320" cy="505" r="0.25"/>
      <circle cx="323" cy="508" r="0.3"/>
      <circle cx="318" cy="502" r="0.2"/>
      <circle cx="325" cy="505" r="0.25"/>
    </g>
    
    <!-- ======== DISTANT GALAXIES ======== -->
    
    <!-- Small spiral galaxy - upper right -->
    <g transform="translate(465, 220) rotate(35)">
      <ellipse cx="0" cy="0" rx="12" ry="6" fill="url(#galaxyCore)" opacity="0.6"/>
      <ellipse cx="0" cy="0" rx="18" ry="8" fill="none" stroke="#A78BFA" stroke-width="0.3" opacity="0.3"/>
      <ellipse cx="0" cy="0" rx="25" ry="10" fill="none" stroke="#7C3AED" stroke-width="0.2" opacity="0.2"/>
    </g>
    
    <!-- Edge-on galaxy - lower left -->
    <g transform="translate(135, 430) rotate(-20)">
      <ellipse cx="0" cy="0" rx="20" ry="2" fill="url(#galaxyCore)" opacity="0.5"/>
      <line x1="-22" y1="0" x2="22" y2="0" stroke="#94A3B8" stroke-width="0.4" opacity="0.4"/>
    </g>
    
    <!-- Distant elliptical galaxy blob -->
    <ellipse cx="380" cy="155" rx="8" ry="6" fill="#C7D2FE" opacity="0.25"/>
    <ellipse cx="420" cy="475" rx="10" ry="7" fill="#A5B4FC" opacity="0.2"/>
    
    <!-- ======== Bright point stars with diffraction spikes ======== -->
    
    <!-- Prominent star with spikes - upper area -->
    <g transform="translate(255, 140)">
      <circle cx="0" cy="0" r="1.5" fill="#FEF3C7" filter="url(#starGlow)"/>
      <line x1="-8" y1="0" x2="8" y2="0" stroke="#FEF3C7" stroke-width="0.3" opacity="0.5"/>
      <line x1="0" y1="-8" x2="0" y2="8" stroke="#FEF3C7" stroke-width="0.3" opacity="0.5"/>
      <line x1="-5" y1="-5" x2="5" y2="5" stroke="#FEF3C7" stroke-width="0.2" opacity="0.3"/>
      <line x1="5" y1="-5" x2="-5" y2="5" stroke="#FEF3C7" stroke-width="0.2" opacity="0.3"/>
    </g>
    
    <!-- Prominent star with spikes - right side -->
    <g transform="translate(505, 350)">
      <circle cx="0" cy="0" r="1.8" fill="#E0E7FF" filter="url(#starGlow)"/>
      <line x1="-10" y1="0" x2="10" y2="0" stroke="#C7D2FE" stroke-width="0.4" opacity="0.6"/>
      <line x1="0" y1="-10" x2="0" y2="10" stroke="#C7D2FE" stroke-width="0.4" opacity="0.6"/>
      <line x1="-6" y1="-6" x2="6" y2="6" stroke="#C7D2FE" stroke-width="0.25" opacity="0.35"/>
      <line x1="6" y1="-6" x2="-6" y2="6" stroke="#C7D2FE" stroke-width="0.25" opacity="0.35"/>
    </g>
    
    <!-- Prominent star with spikes - bottom area -->
    <g transform="translate(225, 520)">
      <circle cx="0" cy="0" r="1.3" fill="#FCD34D" filter="url(#starGlow)"/>
      <line x1="-7" y1="0" x2="7" y2="0" stroke="#FDE68A" stroke-width="0.3" opacity="0.5"/>
      <line x1="0" y1="-7" x2="0" y2="7" stroke="#FDE68A" stroke-width="0.3" opacity="0.5"/>
    </g>
    
    <!-- Very faint background shimmer - tiny dots scattered -->
    <g fill="#94A3B8" opacity="0.25">
      <circle cx="100" cy="205" r="0.2"/>
      <circle cx="135" cy="175" r="0.2"/>
      <circle cx="170" cy="240" r="0.15"/>
      <circle cx="195" cy="320" r="0.2"/>
      <circle cx="145" cy="380" r="0.15"/>
      <circle cx="205" cy="430" r="0.2"/>
      <circle cx="155" cy="505" r="0.15"/>
      <circle cx="250" cy="95" r="0.2"/>
      <circle cx="345" cy="85" r="0.15"/>
      <circle cx="415" cy="125" r="0.2"/>
      <circle cx="480" cy="175" r="0.15"/>
      <circle cx="510" cy="230" r="0.2"/>
      <circle cx="525" cy="300" r="0.15"/>
      <circle cx="505" cy="385" r="0.2"/>
      <circle cx="475" cy="445" r="0.15"/>
      <circle cx="420" cy="515" r="0.2"/>
      <circle cx="355" cy="535" r="0.15"/>
      <circle cx="280" cy="545" r="0.2"/>
      <circle cx="210" cy="535" r="0.15"/>
      <circle cx="145" cy="495" r="0.2"/>
    </g>
    
  </g>
  <!-- End deep space background -->
  
  <!-- Decorative border pattern -->
  <polygon points="300,45 525,177 525,423 300,555 75,423 75,177" 
           fill="none" stroke="#0891B2" stroke-width="1" stroke-dasharray="8,4" opacity="0.5"/>
  
  <!-- Connection lines from center to outer hexagons (command network) -->
  <g stroke="#22D3EE" stroke-width="1.5" opacity="0.4">
    <!-- Top connections -->
    <line x1="300" y1="300" x2="300" y2="100"/>
    <line x1="300" y1="300" x2="210" y2="140"/>
    <line x1="300" y1="300" x2="390" y2="140"/>
    
    <!-- Middle connections -->
    <line x1="300" y1="300" x2="140" y2="220"/>
    <line x1="300" y1="300" x2="460" y2="220"/>
    <line x1="300" y1="300" x2="100" y2="300"/>
    <line x1="300" y1="300" x2="500" y2="300"/>
    <line x1="300" y1="300" x2="140" y2="380"/>
    <line x1="300" y1="300" x2="460" y2="380"/>
    
    <!-- Bottom connections -->
    <line x1="300" y1="300" x2="210" y2="460"/>
    <line x1="300" y1="300" x2="390" y2="460"/>
    <line x1="300" y1="300" x2="300" y2="500"/>
  </g>
  
  <!-- Outer ring hexagons - Layer 1 (largest orbit) -->
  <!-- Top -->
  <use href="#hex3d" x="270" y="70" width="60" height="52" transform="rotate(-5, 300, 96)"/>
  
  <!-- Top-right cluster -->
  <use href="#hexFlat" x="374" y="105" width="42" height="48"/>
  <use href="#hexGlow" x="420" y="140" width="38" height="44"/>
  
  <!-- Top-left cluster -->
  <use href="#hexFlat" x="184" y="105" width="42" height="48"/>
  <use href="#hexWire" x="138" y="130" width="38" height="44"/>
  
  <!-- Right side cluster -->
  <use href="#hex3d" x="455" y="195" width="52" height="45" transform="rotate(10, 481, 217)"/>
  <use href="#hexGlow" x="470" y="260" width="40" height="46"/>
  <use href="#hexFlat" x="458" y="325" width="45" height="52"/>
  <use href="#hexWire" x="470" y="390" width="38" height="44"/>
  
  <!-- Left side cluster -->
  <use href="#hex3d" x="93" y="195" width="52" height="45" transform="rotate(-10, 119, 217)"/>
  <use href="#hexFlat" x="78" y="260" width="40" height="46"/>
  <use href="#hexGlow" x="97" y="325" width="45" height="52"/>
  <use href="#hexWire" x="92" y="390" width="38" height="44"/>
  
  <!-- Bottom-right cluster -->
  <use href="#hexFlat" x="374" y="445" width="42" height="48"/>
  <use href="#hex3d" x="420" y="400" width="38" height="33" transform="rotate(15, 439, 416)"/>
  
  <!-- Bottom-left cluster -->
  <use href="#hexGlow" x="184" y="445" width="42" height="48"/>
  <use href="#hex3d" x="142" y="400" width="38" height="33" transform="rotate(-15, 161, 416)"/>
  
  <!-- Bottom -->
  <use href="#hex3d" x="270" y="475" width="60" height="52" transform="rotate(5, 300, 501)"/>
  
  <!-- Middle ring hexagons - Layer 2 (medium orbit) -->
  <g opacity="0.95">
    <!-- Top-center pair -->
    <use href="#hexGlow" x="248" y="155" width="36" height="42"/>
    <use href="#hexFlat" x="316" y="155" width="36" height="42"/>
    
    <!-- Upper corners -->
    <use href="#hex3d" x="175" y="190" width="44" height="38"/>
    <use href="#hex3d" x="381" y="190" width="44" height="38" transform="scale(-1,1) translate(-806, 0)"/>
    
    <!-- Mid-upper -->
    <use href="#hexWire" x="130" y="255" width="35" height="40"/>
    <use href="#hexWire" x="435" y="255" width="35" height="40"/>
    
    <!-- Middle sides -->
    <use href="#hexFlat" x="155" y="320" width="38" height="44"/>
    <use href="#hexFlat" x="407" y="320" width="38" height="44"/>
    
    <!-- Mid-lower -->
    <use href="#hexGlow" x="175" y="385" width="35" height="40"/>
    <use href="#hexGlow" x="390" y="385" width="35" height="40"/>
    
    <!-- Lower corners -->
    <use href="#hex3d" x="210" y="420" width="40" height="35"/>
    <use href="#hex3d" x="350" y="420" width="40" height="35"/>
    
    <!-- Bottom-center pair -->
    <use href="#hexFlat" x="262" y="430" width="32" height="37"/>
    <use href="#hexWire" x="306" y="430" width="32" height="37"/>
  </g>
  
  <!-- Inner ring hexagons - Layer 3 (close orbit) -->
  <g opacity="0.9">
    <!-- Top arc -->
    <use href="#hexFlat" x="237" y="205" width="30" height="35"/>
    <use href="#hex3d" x="285" y="195" width="30" height="26"/>
    <use href="#hexFlat" x="333" y="205" width="30" height="35"/>
    
    <!-- Upper middle -->
    <use href="#hexGlow" x="195" y="250" width="32" height="37"/>
    <use href="#hexWire" x="373" y="250" width="32" height="37"/>
    
    <!-- Center sides -->
    <use href="#hex3d" x="175" y="305" width="34" height="30"/>
    <use href="#hex3d" x="391" y="305" width="34" height="30" transform="scale(-1,1) translate(-816, 0)"/>
    
    <!-- Lower middle -->
    <use href="#hexFlat" x="205" y="355" width="32" height="37"/>
    <use href="#hexWire" x="363" y="355" width="32" height="37"/>
    
    <!-- Bottom arc -->
    <use href="#hexGlow" x="248" y="385" width="28" height="32"/>
    <use href="#hex3d" x="287" y="395" width="26" height="23"/>
    <use href="#hexGlow" x="324" y="385" width="28" height="32"/>
  </g>
  
  <!-- Innermost satellite hexagons -->
  <g opacity="0.85">
    <use href="#hexFlat" x="245" y="255" width="26" height="30"/>
    <use href="#hexFlat" x="329" y="255" width="26" height="30"/>
    <use href="#hexWire" x="225" y="305" width="24" height="28"/>
    <use href="#hexWire" x="351" y="305" width="24" height="28"/>
    <use href="#hexFlat" x="255" y="345" width="26" height="30"/>
    <use href="#hexFlat" x="319" y="345" width="26" height="30"/>
  </g>
  
  <!-- Central COMMAND hexagon - the commander -->
  <g filter="url(#commandGlow)" transform="translate(260, 254)">
    <use href="#hexCommand" width="80" height="92"/>
  </g>
  
  <!-- Floating connection dots on lines -->
  <g>
    <use href="#connectionDot" x="295" y="195" width="10" height="10"/>
    <use href="#connectionDot" x="245" y="215" width="10" height="10"/>
    <use href="#connectionDot" x="345" y="215" width="10" height="10"/>
    <use href="#connectionDot" x="195" y="295" width="10" height="10"/>
    <use href="#connectionDot" x="395" y="295" width="10" height="10"/>
    <use href="#connectionDot" x="245" y="380" width="10" height="10"/>
    <use href="#connectionDot" x="345" y="380" width="10" height="10"/>
    <use href="#connectionDot" x="295" y="400" width="10" height="10"/>
  </g>
  
  <!-- Subtle grid pattern overlay for texture -->
  <pattern id="hexPattern" x="0" y="0" width="30" height="26" patternUnits="userSpaceOnUse" patternTransform="rotate(30)">
    <polygon points="15,0 30,7.5 30,22.5 15,30 0,22.5 0,7.5" 
             fill="none" stroke="#0E7490" stroke-width="0.3" opacity="0.15"/>
  </pattern>
  
  <polygon points="300,45 525,177 525,423 300,555 75,423 75,177" 
           fill="url(#hexPattern)" opacity="0.3"/>
  
  <!-- Outer edge highlights -->
  <polygon points="300,15 555,162 535,172 300,35 65,172 45,162" 
           fill="white" opacity="0.15"/>
           
  <!-- Ambient glow points -->
  <g opacity="0.6">
    <circle cx="300" cy="300" r="140" fill="none" stroke="url(#elixirPurple1)" stroke-width="0.5" stroke-dasharray="4,8"/>
    <circle cx="300" cy="300" r="100" fill="none" stroke="#22D3EE" stroke-width="0.5" stroke-dasharray="2,6"/>
    <circle cx="300" cy="300" r="180" fill="none" stroke="#0891B2" stroke-width="0.5" stroke-dasharray="6,12"/>
  </g>
</svg>
