<svg width="200" height="220" viewBox="20 10 200 220" xmlns="http://www.w3.org/2000/svg">
  <defs>
    <!-- Primary gradient - deep purple with metallic sheen -->
    <linearGradient id="hexGradient" x1="0%" y1="0%" x2="100%" y2="100%">
      <stop offset="0%" style="stop-color:#7B2FBE"/>
      <stop offset="35%" style="stop-color:#9333EA"/>
      <stop offset="65%" style="stop-color:#A855F7"/>
      <stop offset="100%" style="stop-color:#7E22CE"/>
    </linearGradient>
    
    <!-- Metallic harness gradient -->
    <linearGradient id="harnessGradient" x1="0%" y1="0%" x2="100%" y2="100%">
      <stop offset="0%" style="stop-color:#F5F5F5"/>
      <stop offset="25%" style="stop-color:#E0E0E0"/>
      <stop offset="50%" style="stop-color:#FFFFFF"/>
      <stop offset="75%" style="stop-color:#BDBDBD"/>
      <stop offset="100%" style="stop-color:#9E9E9E"/>
    </linearGradient>
    
    <!-- Gold accent gradient -->
    <linearGradient id="goldGradient" x1="0%" y1="0%" x2="100%" y2="100%">
      <stop offset="0%" style="stop-color:#FFD700"/>
      <stop offset="50%" style="stop-color:#FFF8DC"/>
      <stop offset="100%" style="stop-color:#DAA520"/>
    </linearGradient>
    
    <!-- Inner glow gradient -->
    <radialGradient id="innerGlow" cx="50%" cy="50%" r="50%" fx="50%" fy="30%">
      <stop offset="0%" style="stop-color:#E879F9;stop-opacity:0.4"/>
      <stop offset="70%" style="stop-color:#9333EA;stop-opacity:0.1"/>
      <stop offset="100%" style="stop-color:#581C87;stop-opacity:0"/>
    </radialGradient>
    
    <!-- Strap leather gradient -->
    <linearGradient id="strapGradient" x1="0%" y1="0%" x2="0%" y2="100%">
      <stop offset="0%" style="stop-color:#D4D4D8"/>
      <stop offset="30%" style="stop-color:#FAFAFA"/>
      <stop offset="70%" style="stop-color:#E4E4E7"/>
      <stop offset="100%" style="stop-color:#A1A1AA"/>
    </linearGradient>
    
    <!-- Shadow filter -->
    <filter id="shadowFilter" x="-50%" y="-50%" width="200%" height="200%">
      <feDropShadow dx="0" dy="3" stdDeviation="4" flood-color="#000000" flood-opacity="0.2"/>
    </filter>
    
    <!-- Metallic shine filter -->
    <filter id="metallicShine" x="-20%" y="-20%" width="140%" height="140%">
      <feGaussianBlur in="SourceGraphic" stdDeviation="0.5" result="blur"/>
      <feSpecularLighting in="blur" surfaceScale="4" specularConstant="0.7" specularExponent="20" lighting-color="#FFFFFF" result="specOut">
        <fePointLight x="120" y="80" z="120"/>
      </feSpecularLighting>
      <feComposite in="specOut" in2="SourceGraphic" operator="in" result="specOut"/>
      <feComposite in="SourceGraphic" in2="specOut" operator="arithmetic" k1="0" k2="1" k3="1" k4="0"/>
    </filter>
    
    <!-- Bevel effect -->
    <filter id="bevel" x="-20%" y="-20%" width="140%" height="140%">
      <feGaussianBlur in="SourceAlpha" stdDeviation="1" result="blur"/>
      <feOffset dx="1" dy="1" result="offsetBlur"/>
      <feFlood flood-color="#000000" flood-opacity="0.3"/>
      <feComposite in2="offsetBlur" operator="in"/>
      <feMerge>
        <feMergeNode/>
        <feMergeNode in="SourceGraphic"/>
      </feMerge>
    </filter>
  </defs>

  <!-- Outer hexagon with shadow - radius 105, center (120,120) -->
  <g filter="url(#shadowFilter)">
    <polygon points="120,15 211,67.5 211,172.5 120,225 29,172.5 29,67.5"
             fill="url(#hexGradient)"
             stroke="#581C87"
             stroke-width="2"/>
  </g>
  
  <!-- Inner glow overlay -->
  <polygon points="120,15 211,67.5 211,172.5 120,225 29,172.5 29,67.5"
           fill="url(#innerGlow)"
           opacity="0.8"/>
  
  <!-- Secondary inner hexagon border - radius 90 -->
  <polygon points="120,30 198,75 198,165 120,210 42,165 42,75"
           fill="none"
           stroke="#E9D5FF"
           stroke-width="1"
           opacity="0.4"/>
  
  <!-- Tertiary inner hexagon accent - radius 78 -->
  <polygon points="120,42 187.5,81 187.5,159 120,198 52.5,159 52.5,81"
           fill="none"
           stroke="#C084FC"
           stroke-width="0.5"
           opacity="0.3"/>

  <!-- Central harness assembly - all centered at (120, 120) -->
  <g filter="url(#metallicShine)">
    <!-- Main harness ring (outer) - radius 48 -->
    <circle cx="120" cy="120" r="48" 
            fill="none" 
            stroke="url(#harnessGradient)" 
            stroke-width="7"
            filter="url(#bevel)"/>
    
    <!-- Inner harness ring - radius 36 -->
    <circle cx="120" cy="120" r="36" 
            fill="none" 
            stroke="url(#strapGradient)" 
            stroke-width="4"/>
    
    <!-- Central core ring - radius 24 -->
    <circle cx="120" cy="120" r="24" 
            fill="none" 
            stroke="url(#goldGradient)" 
            stroke-width="3"/>
    
    <!-- Central jewel - radius 14 -->
    <circle cx="120" cy="120" r="14" 
            fill="url(#hexGradient)"
            stroke="url(#goldGradient)"
            stroke-width="2"/>
    <circle cx="120" cy="120" r="7" 
            fill="#E9D5FF"
            opacity="0.6"/>
    <circle cx="117" cy="117" r="3" 
            fill="#FFFFFF"
            opacity="0.8"/>
  </g>

  <!-- Harness straps - 8 directions from center (120,120) -->
  
  <!-- Top strap -->
  <g filter="url(#bevel)">
    <rect x="115" y="45" width="10" height="27" fill="url(#strapGradient)" stroke="#A1A1AA" stroke-width="0.5"/>
    <rect x="112" y="52" width="16" height="6" rx="1" fill="url(#goldGradient)" stroke="#B8860B" stroke-width="0.5"/>
    <circle cx="120" cy="55" r="1.5" fill="#FFFFFF" opacity="0.7"/>
  </g>

  <!-- Bottom strap -->
  <g filter="url(#bevel)">
    <rect x="115" y="168" width="10" height="27" fill="url(#strapGradient)" stroke="#A1A1AA" stroke-width="0.5"/>
    <rect x="112" y="182" width="16" height="6" rx="1" fill="url(#goldGradient)" stroke="#B8860B" stroke-width="0.5"/>
    <circle cx="120" cy="185" r="1.5" fill="#FFFFFF" opacity="0.7"/>
  </g>

  <!-- Left strap -->
  <g filter="url(#bevel)">
    <rect x="45" y="115" width="27" height="10" fill="url(#strapGradient)" stroke="#A1A1AA" stroke-width="0.5"/>
    <rect x="52" y="112" width="6" height="16" rx="1" fill="url(#goldGradient)" stroke="#B8860B" stroke-width="0.5"/>
    <circle cx="55" cy="120" r="1.5" fill="#FFFFFF" opacity="0.7"/>
  </g>

  <!-- Right strap -->
  <g filter="url(#bevel)">
    <rect x="168" y="115" width="27" height="10" fill="url(#strapGradient)" stroke="#A1A1AA" stroke-width="0.5"/>
    <rect x="182" y="112" width="6" height="16" rx="1" fill="url(#goldGradient)" stroke="#B8860B" stroke-width="0.5"/>
    <circle cx="185" cy="120" r="1.5" fill="#FFFFFF" opacity="0.7"/>
  </g>

  <!-- Top-Right diagonal strap -->
  <g filter="url(#bevel)">
    <rect x="155" y="65" width="22" height="8" rx="1" transform="rotate(45 166 69)" fill="url(#strapGradient)" stroke="#A1A1AA" stroke-width="0.5"/>
    <ellipse cx="170" cy="73" rx="5" ry="3" transform="rotate(45 170 73)" fill="url(#goldGradient)" stroke="#B8860B" stroke-width="0.5"/>
  </g>

  <!-- Top-Left diagonal strap -->
  <g filter="url(#bevel)">
    <rect x="63" y="65" width="22" height="8" rx="1" transform="rotate(-45 74 69)" fill="url(#strapGradient)" stroke="#A1A1AA" stroke-width="0.5"/>
    <ellipse cx="70" cy="73" rx="5" ry="3" transform="rotate(-45 70 73)" fill="url(#goldGradient)" stroke="#B8860B" stroke-width="0.5"/>
  </g>

  <!-- Bottom-Left diagonal strap -->
  <g filter="url(#bevel)">
    <rect x="63" y="167" width="22" height="8" rx="1" transform="rotate(45 74 171)" fill="url(#strapGradient)" stroke="#A1A1AA" stroke-width="0.5"/>
    <ellipse cx="70" cy="167" rx="5" ry="3" transform="rotate(45 70 167)" fill="url(#goldGradient)" stroke="#B8860B" stroke-width="0.5"/>
  </g>

  <!-- Bottom-Right diagonal strap -->
  <g filter="url(#bevel)">
    <rect x="155" y="167" width="22" height="8" rx="1" transform="rotate(-45 166 171)" fill="url(#strapGradient)" stroke="#A1A1AA" stroke-width="0.5"/>
    <ellipse cx="170" cy="167" rx="5" ry="3" transform="rotate(-45 170 167)" fill="url(#goldGradient)" stroke="#B8860B" stroke-width="0.5"/>
  </g>

  <!-- Decorative corner rivets at hexagon vertices -->
  <g filter="url(#bevel)">
    <circle cx="120" cy="23" r="4" fill="url(#goldGradient)" stroke="#B8860B" stroke-width="0.5"/>
    <circle cx="120" cy="23" r="1.5" fill="#FFFFFF" opacity="0.7"/>
    
    <circle cx="203" cy="71" r="4" fill="url(#goldGradient)" stroke="#B8860B" stroke-width="0.5"/>
    <circle cx="203" cy="71" r="1.5" fill="#FFFFFF" opacity="0.7"/>
    
    <circle cx="203" cy="169" r="4" fill="url(#goldGradient)" stroke="#B8860B" stroke-width="0.5"/>
    <circle cx="203" cy="169" r="1.5" fill="#FFFFFF" opacity="0.7"/>
    
    <circle cx="120" cy="217" r="4" fill="url(#goldGradient)" stroke="#B8860B" stroke-width="0.5"/>
    <circle cx="120" cy="217" r="1.5" fill="#FFFFFF" opacity="0.7"/>
    
    <circle cx="37" cy="169" r="4" fill="url(#goldGradient)" stroke="#B8860B" stroke-width="0.5"/>
    <circle cx="37" cy="169" r="1.5" fill="#FFFFFF" opacity="0.7"/>
    
    <circle cx="37" cy="71" r="4" fill="url(#goldGradient)" stroke="#B8860B" stroke-width="0.5"/>
    <circle cx="37" cy="71" r="1.5" fill="#FFFFFF" opacity="0.7"/>
  </g>

  <!-- Connection clips on harness ring -->
  <g filter="url(#bevel)">
    <rect x="116" y="70" width="8" height="5" rx="1" fill="url(#harnessGradient)" stroke="#71717A" stroke-width="0.5"/>
    <rect x="116" y="165" width="8" height="5" rx="1" fill="url(#harnessGradient)" stroke="#71717A" stroke-width="0.5"/>
    <rect x="70" y="116" width="5" height="8" rx="1" fill="url(#harnessGradient)" stroke="#71717A" stroke-width="0.5"/>
    <rect x="165" y="116" width="5" height="8" rx="1" fill="url(#harnessGradient)" stroke="#71717A" stroke-width="0.5"/>
  </g>

  <!-- Subtle edge highlights -->
  <path d="M 120,15 L 211,67.5" fill="none" stroke="#FFFFFF" stroke-width="1" opacity="0.2"/>
  <path d="M 29,172.5 L 120,225" fill="none" stroke="#000000" stroke-width="1" opacity="0.12"/>

</svg>
