<svg width="200" height="200" viewBox="0 0 200 200" xmlns="http://www.w3.org/2000/svg">
  <defs>
    <linearGradient id="hexFill" x1="0%" y1="0%" x2="100%" y2="100%">
      <stop offset="0%" stop-color="#0b1d2e"/>
      <stop offset="55%" stop-color="#16546e"/>
      <stop offset="100%" stop-color="#0d8b7b"/>
    </linearGradient>
    <linearGradient id="hexStroke" x1="0%" y1="0%" x2="100%" y2="0%">
      <stop offset="0%" stop-color="#9be9ff"/>
      <stop offset="50%" stop-color="#3df2d6"/>
      <stop offset="100%" stop-color="#9be9ff"/>
    </linearGradient>
    <radialGradient id="coreGlow" cx="50%" cy="45%" r="60%">
      <stop offset="0%" stop-color="#fff4d1" stop-opacity="0.95"/>
      <stop offset="60%" stop-color="#ffbe6b" stop-opacity="0.55"/>
      <stop offset="100%" stop-color="#ff8f3a" stop-opacity="0"/>
    </radialGradient>
    <linearGradient id="lyreStroke" x1="0%" y1="0%" x2="100%" y2="0%">
      <stop offset="0%" stop-color="#f8e1a6"/>
      <stop offset="50%" stop-color="#f6b65c"/>
      <stop offset="100%" stop-color="#f8e1a6"/>
    </linearGradient>
    <linearGradient id="stringStroke" x1="0%" y1="0%" x2="0%" y2="100%">
      <stop offset="0%" stop-color="#eaf7ff" stop-opacity="0.9"/>
      <stop offset="100%" stop-color="#8dd7ff" stop-opacity="0.5"/>
    </linearGradient>
    <linearGradient id="staffStroke" x1="0%" y1="0%" x2="100%" y2="0%">
      <stop offset="0%" stop-color="#7cc7ff" stop-opacity="0"/>
      <stop offset="20%" stop-color="#7cc7ff" stop-opacity="0.45"/>
      <stop offset="80%" stop-color="#7cc7ff" stop-opacity="0.45"/>
      <stop offset="100%" stop-color="#7cc7ff" stop-opacity="0"/>
    </linearGradient>
    <linearGradient id="highlightGradient" x1="0%" y1="0%" x2="100%" y2="100%">
      <stop offset="0%" stop-color="#ffffff" stop-opacity="0.6"/>
      <stop offset="40%" stop-color="#ffffff" stop-opacity="0"/>
    </linearGradient>
    <filter id="softShadow" x="-40%" y="-40%" width="180%" height="180%">
      <feDropShadow dx="0" dy="3" stdDeviation="3" flood-color="#04121d" flood-opacity="0.55"/>
    </filter>
    <filter id="lyreGlow" x="-50%" y="-50%" width="200%" height="200%">
      <feGaussianBlur stdDeviation="2" result="blur"/>
      <feColorMatrix in="blur" type="matrix"
        values="1 0 0 0 0  0 0.9 0 0 0  0 0.7 0 0 0  0 0 0 0.7 0" result="colored"/>
      <feMerge>
        <feMergeNode in="colored"/>
        <feMergeNode in="SourceGraphic"/>
      </feMerge>
    </filter>
    <filter id="grain" x="-20%" y="-20%" width="140%" height="140%">
      <feTurbulence type="fractalNoise" baseFrequency="0.9" numOctaves="2" seed="7" result="noise"/>
      <feColorMatrix in="noise" type="matrix"
        values="0 0 0 0 0.2  0 0 0 0 0.2  0 0 0 0 0.2  0 0 0 0.2 0"/>
    </filter>
    <clipPath id="hexClip">
      <polygon points="100 16 172.7 58 172.7 142 100 184 27.3 142 27.3 58"/>
    </clipPath>
  </defs>

  <polygon points="100 16 172.7 58 172.7 142 100 184 27.3 142 27.3 58"
    fill="url(#hexFill)"
    stroke="url(#hexStroke)"
    stroke-width="2.2"
    filter="url(#softShadow)"/>
  <polygon points="100 21 168.3 60.7 168.3 139.3 100 179 31.7 139.3 31.7 60.7"
    fill="none"
    stroke="#0a1b2c"
    stroke-width="1"
    opacity="0.6"/>
  <polygon points="100 16 172.7 58 172.7 142 100 184 27.3 142 27.3 58"
    fill="url(#highlightGradient)"
    opacity="0.25"/>

  <g clip-path="url(#hexClip)">
    <circle cx="100" cy="96" r="58" fill="url(#coreGlow)" opacity="0.65"/>

    <g opacity="0.7">
      <line x1="46" y1="74" x2="154" y2="74" stroke="url(#staffStroke)" stroke-width="1.2"/>
      <line x1="46" y1="82" x2="154" y2="82" stroke="url(#staffStroke)" stroke-width="1.2"/>
      <line x1="46" y1="90" x2="154" y2="90" stroke="url(#staffStroke)" stroke-width="1.2"/>
      <line x1="46" y1="98" x2="154" y2="98" stroke="url(#staffStroke)" stroke-width="1.2"/>
      <line x1="46" y1="106" x2="154" y2="106" stroke="url(#staffStroke)" stroke-width="1.2"/>
    </g>

    <g filter="url(#lyreGlow)">
      <path id="lyreHalf"
        d="M 100 128 C 86 120 78 106 78 92 C 78 72 92 58 100 52"
        fill="none"
        stroke="url(#lyreStroke)"
        stroke-width="3.2"
        stroke-linecap="round"
        stroke-linejoin="round"/>
      <use href="#lyreHalf" transform="translate(200 0) scale(-1 1)"/>
      <path d="M 82 64 C 100 50 118 64 118 64"
        fill="none"
        stroke="url(#lyreStroke)"
        stroke-width="3.2"
        stroke-linecap="round"/>
      <path d="M 88 132 C 100 138 112 132 116 124"
        fill="none"
        stroke="url(#lyreStroke)"
        stroke-width="3.2"
        stroke-linecap="round"/>
      <circle cx="100" cy="96" r="14"
        fill="none"
        stroke="url(#lyreStroke)"
        stroke-width="2"
        opacity="0.9"/>
    </g>

    <g>
      <line x1="92" y1="74" x2="92" y2="122" stroke="url(#stringStroke)" stroke-width="1.1" opacity="0.9"/>
      <line x1="96" y1="74" x2="96" y2="122" stroke="url(#stringStroke)" stroke-width="1.1" opacity="0.9"/>
      <line x1="100" y1="74" x2="100" y2="122" stroke="url(#stringStroke)" stroke-width="1.1" opacity="0.9"/>
      <line x1="104" y1="74" x2="104" y2="122" stroke="url(#stringStroke)" stroke-width="1.1" opacity="0.9"/>
      <line x1="108" y1="74" x2="108" y2="122" stroke="url(#stringStroke)" stroke-width="1.1" opacity="0.9"/>
    </g>

    <path d="M 60 118 C 86 106 114 106 140 118"
      fill="none"
      stroke="url(#staffStroke)"
      stroke-width="1.4"
      opacity="0.5"/>

    <g opacity="0.95">
      <circle cx="74" cy="86" r="4.2" fill="#ffd89b" stroke="#fff3d6" stroke-width="1"/>
      <line x1="77" y1="82" x2="77" y2="62" stroke="url(#lyreStroke)" stroke-width="2" stroke-linecap="round"/>
      <circle cx="126" cy="86" r="4.2" fill="#ffd89b" stroke="#fff3d6" stroke-width="1"/>
      <line x1="129" y1="82" x2="129" y2="62" stroke="url(#lyreStroke)" stroke-width="2" stroke-linecap="round"/>
    </g>

    <rect x="20" y="20" width="160" height="160" opacity="0.12" filter="url(#grain)"/>
  </g>
</svg>
