<svg xmlns="http://www.w3.org/2000/svg" viewBox="0 0 200 200" width="200" height="200">
  <defs>
    <!-- Gradient for hexagon background -->
    <linearGradient id="hexGradient" x1="0%" y1="0%" x2="100%" y2="100%">
      <stop offset="0%" style="stop-color:#1a1a2e;stop-opacity:1" />
      <stop offset="50%" style="stop-color:#16213e;stop-opacity:1" />
      <stop offset="100%" style="stop-color:#0f3460;stop-opacity:1" />
    </linearGradient>
    
    <!-- Gradient for crucible -->
    <linearGradient id="crucibleGradient" x1="0%" y1="0%" x2="0%" y2="100%">
      <stop offset="0%" style="stop-color:#4a4a6a;stop-opacity:1" />
      <stop offset="40%" style="stop-color:#2d2d44;stop-opacity:1" />
      <stop offset="100%" style="stop-color:#1a1a2e;stop-opacity:1" />
    </linearGradient>
    
    <!-- Gradient for molten content -->
    <radialGradient id="moltenGradient" cx="50%" cy="30%" r="60%" fx="50%" fy="30%">
      <stop offset="0%" style="stop-color:#ffd700;stop-opacity:1" />
      <stop offset="40%" style="stop-color:#ff8c00;stop-opacity:1" />
      <stop offset="80%" style="stop-color:#ff4500;stop-opacity:1" />
      <stop offset="100%" style="stop-color:#dc143c;stop-opacity:1" />
    </radialGradient>
    
    <!-- Gradient for flames -->
    <linearGradient id="flameGradient" x1="0%" y1="100%" x2="0%" y2="0%">
      <stop offset="0%" style="stop-color:#ff4500;stop-opacity:1" />
      <stop offset="50%" style="stop-color:#ff8c00;stop-opacity:1" />
      <stop offset="100%" style="stop-color:#ffd700;stop-opacity:0.8" />
    </linearGradient>
    
    <!-- Glow filter for molten effect -->
    <filter id="moltenGlow" x="-50%" y="-50%" width="200%" height="200%">
      <feGaussianBlur stdDeviation="3" result="coloredBlur"/>
      <feMerge>
        <feMergeNode in="coloredBlur"/>
        <feMergeNode in="SourceGraphic"/>
      </feMerge>
    </filter>
    
    <!-- Subtle inner shadow for depth -->
    <filter id="innerShadow" x="-20%" y="-20%" width="140%" height="140%">
      <feOffset dx="0" dy="2"/>
      <feGaussianBlur stdDeviation="2" result="offset-blur"/>
      <feComposite operator="out" in="SourceGraphic" in2="offset-blur" result="inverse"/>
      <feFlood flood-color="#000" flood-opacity="0.4" result="color"/>
      <feComposite operator="in" in="color" in2="inverse" result="shadow"/>
      <feComposite operator="over" in="shadow" in2="SourceGraphic"/>
    </filter>
    
    <!-- Circuit pattern -->
    <pattern id="circuitPattern" patternUnits="userSpaceOnUse" width="20" height="20">
      <line x1="0" y1="10" x2="20" y2="10" stroke="#3a86ff" stroke-width="0.5" opacity="0.3"/>
      <line x1="10" y1="0" x2="10" y2="20" stroke="#3a86ff" stroke-width="0.5" opacity="0.3"/>
      <circle cx="10" cy="10" r="1.5" fill="#3a86ff" opacity="0.4"/>
    </pattern>
    
    <!-- Hexagon clip path -->
    <clipPath id="hexClip">
      <polygon points="100,8 178,50 178,150 100,192 22,150 22,50"/>
    </clipPath>
  </defs>
  
  <!-- Background hexagon with gradient -->
  <polygon 
    points="100,8 178,50 178,150 100,192 22,150 22,50" 
    fill="url(#hexGradient)"
    stroke="#3a86ff"
    stroke-width="2"
  />
  
  <!-- Circuit pattern overlay -->
  <polygon 
    points="100,8 178,50 178,150 100,192 22,150 22,50" 
    fill="url(#circuitPattern)"
    clip-path="url(#hexClip)"
  />
  
  <!-- Decorative hex lines (workflow connections) -->
  <g stroke="#3a86ff" stroke-width="0.8" opacity="0.5">
    <line x1="40" y1="60" x2="60" y2="60"/>
    <line x1="140" y1="60" x2="160" y2="60"/>
    <line x1="40" y1="140" x2="60" y2="140"/>
    <line x1="140" y1="140" x2="160" y2="140"/>
    <circle cx="40" cy="60" r="2" fill="#3a86ff"/>
    <circle cx="160" cy="60" r="2" fill="#3a86ff"/>
    <circle cx="40" cy="140" r="2" fill="#3a86ff"/>
    <circle cx="160" cy="140" r="2" fill="#3a86ff"/>
  </g>
  
  <!-- Gear decorations (industrial theme) -->
  <g fill="none" stroke="#4a5568" stroke-width="1.5" opacity="0.6">
    <!-- Left gear -->
    <circle cx="45" cy="100" r="12"/>
    <circle cx="45" cy="100" r="5"/>
    <line x1="45" y1="88" x2="45" y2="83"/>
    <line x1="45" y1="112" x2="45" y2="117"/>
    <line x1="33" y1="100" x2="28" y2="100"/>
    <line x1="57" y1="100" x2="62" y2="100"/>
    <line x1="36.5" y1="91.5" x2="33" y2="88"/>
    <line x1="53.5" y1="108.5" x2="57" y2="112"/>
    <line x1="36.5" y1="108.5" x2="33" y2="112"/>
    <line x1="53.5" y1="91.5" x2="57" y2="88"/>
    
    <!-- Right gear -->
    <circle cx="155" cy="100" r="12"/>
    <circle cx="155" cy="100" r="5"/>
    <line x1="155" y1="88" x2="155" y2="83"/>
    <line x1="155" y1="112" x2="155" y2="117"/>
    <line x1="143" y1="100" x2="138" y2="100"/>
    <line x1="167" y1="100" x2="172" y2="100"/>
    <line x1="146.5" y1="91.5" x2="143" y2="88"/>
    <line x1="163.5" y1="108.5" x2="167" y2="112"/>
    <line x1="146.5" y1="108.5" x2="143" y2="112"/>
    <line x1="163.5" y1="91.5" x2="167" y2="88"/>
  </g>
  
  <!-- Crucible stand/base -->
  <path
    d="M 70 155 L 75 165 L 125 165 L 130 155"
    fill="none"
    stroke="#4a5568"
    stroke-width="3"
    stroke-linecap="round"
  />
  <line x1="85" y1="165" x2="85" y2="175" stroke="#4a5568" stroke-width="2"/>
  <line x1="115" y1="165" x2="115" y2="175" stroke="#4a5568" stroke-width="2"/>
  <line x1="80" y1="175" x2="120" y2="175" stroke="#4a5568" stroke-width="3" stroke-linecap="round"/>
  
  <!-- Flames under crucible -->
  <g filter="url(#moltenGlow)">
    <!-- Center flame -->
    <path
      d="M 100 158 
         Q 95 148 100 140 
         Q 105 148 100 158"
      fill="url(#flameGradient)"
    >
      <animate attributeName="d" 
        values="M 100 158 Q 95 148 100 140 Q 105 148 100 158;
                M 100 158 Q 93 146 100 138 Q 107 146 100 158;
                M 100 158 Q 95 148 100 140 Q 105 148 100 158"
        dur="0.8s" repeatCount="indefinite"/>
    </path>
    
    <!-- Left flame -->
    <path
      d="M 88 158 
         Q 84 150 88 145 
         Q 92 150 88 158"
      fill="url(#flameGradient)"
      opacity="0.9"
    >
      <animate attributeName="d" 
        values="M 88 158 Q 84 150 88 145 Q 92 150 88 158;
                M 88 158 Q 82 148 88 142 Q 94 148 88 158;
                M 88 158 Q 84 150 88 145 Q 92 150 88 158"
        dur="0.6s" repeatCount="indefinite"/>
    </path>
    
    <!-- Right flame -->
    <path
      d="M 112 158 
         Q 108 150 112 145 
         Q 116 150 112 158"
      fill="url(#flameGradient)"
      opacity="0.9"
    >
      <animate attributeName="d" 
        values="M 112 158 Q 108 150 112 145 Q 116 150 112 158;
                M 112 158 Q 106 148 112 142 Q 118 148 112 158;
                M 112 158 Q 108 150 112 145 Q 116 150 112 158"
        dur="0.7s" repeatCount="indefinite"/>
    </path>
  </g>
  
  <!-- Main crucible body -->
  <path
    d="M 65 80 
       Q 60 80 60 90 
       L 65 140 
       Q 70 155 100 155 
       Q 130 155 135 140 
       L 140 90 
       Q 140 80 135 80
       Z"
    fill="url(#crucibleGradient)"
    stroke="#5a5a7a"
    stroke-width="2"
    filter="url(#innerShadow)"
  />
  
  <!-- Crucible rim -->
  <ellipse cx="100" cy="80" rx="40" ry="8" fill="#5a5a7a" stroke="#6a6a8a" stroke-width="1"/>
  
  <!-- Molten content inside crucible -->
  <ellipse 
    cx="100" 
    cy="85" 
    rx="32" 
    ry="6" 
    fill="url(#moltenGradient)"
    filter="url(#moltenGlow)"
  >
    <animate attributeName="ry" values="6;7;6" dur="2s" repeatCount="indefinite"/>
  </ellipse>
  
  <!-- Neural network / data flow visualization rising from crucible -->
  <g opacity="0.8">
    <!-- Data nodes -->
    <circle cx="85" cy="55" r="4" fill="#3a86ff">
      <animate attributeName="cy" values="55;52;55" dur="1.5s" repeatCount="indefinite"/>
    </circle>
    <circle cx="100" cy="45" r="5" fill="#8338ec">
      <animate attributeName="cy" values="45;42;45" dur="1.8s" repeatCount="indefinite"/>
    </circle>
    <circle cx="115" cy="55" r="4" fill="#3a86ff">
      <animate attributeName="cy" values="55;52;55" dur="1.5s" repeatCount="indefinite"/>
    </circle>
    <circle cx="92" cy="35" r="3" fill="#ff006e">
      <animate attributeName="cy" values="35;32;35" dur="2s" repeatCount="indefinite"/>
    </circle>
    <circle cx="108" cy="35" r="3" fill="#ff006e">
      <animate attributeName="cy" values="35;32;35" dur="1.7s" repeatCount="indefinite"/>
    </circle>
    
    <!-- Connection lines -->
    <line x1="85" y1="55" x2="100" y2="45" stroke="#3a86ff" stroke-width="1" opacity="0.6"/>
    <line x1="115" y1="55" x2="100" y2="45" stroke="#3a86ff" stroke-width="1" opacity="0.6"/>
    <line x1="100" y1="45" x2="92" y2="35" stroke="#8338ec" stroke-width="1" opacity="0.6"/>
    <line x1="100" y1="45" x2="108" y2="35" stroke="#8338ec" stroke-width="1" opacity="0.6"/>
  </g>
  
  <!-- Crucible handles -->
  <path
    d="M 60 95 Q 50 95 50 105 Q 50 115 60 115"
    fill="none"
    stroke="#5a5a7a"
    stroke-width="4"
    stroke-linecap="round"
  />
  <path
    d="M 140 95 Q 150 95 150 105 Q 150 115 140 115"
    fill="none"
    stroke="#5a5a7a"
    stroke-width="4"
    stroke-linecap="round"
  />
  
  <!-- Sparkle/steam particles -->
  <g fill="#ffd700" opacity="0.7">
    <circle cx="78" cy="65" r="1.5">
      <animate attributeName="opacity" values="0.7;0.2;0.7" dur="1.2s" repeatCount="indefinite"/>
      <animate attributeName="cy" values="65;60;65" dur="1.2s" repeatCount="indefinite"/>
    </circle>
    <circle cx="122" cy="68" r="1">
      <animate attributeName="opacity" values="0.5;0.1;0.5" dur="1s" repeatCount="indefinite"/>
      <animate attributeName="cy" values="68;63;68" dur="1s" repeatCount="indefinite"/>
    </circle>
    <circle cx="95" cy="60" r="1.2">
      <animate attributeName="opacity" values="0.6;0.1;0.6" dur="1.4s" repeatCount="indefinite"/>
      <animate attributeName="cy" values="60;55;60" dur="1.4s" repeatCount="indefinite"/>
    </circle>
    <circle cx="107" cy="62" r="1">
      <animate attributeName="opacity" values="0.5;0.2;0.5" dur="1.1s" repeatCount="indefinite"/>
      <animate attributeName="cy" values="62;57;62" dur="1.1s" repeatCount="indefinite"/>
    </circle>
  </g>
  
  <!-- Decorative hexagon border accent -->
  <polygon 
    points="100,12 175,52 175,148 100,188 25,148 25,52" 
    fill="none"
    stroke="#3a86ff"
    stroke-width="1"
    stroke-dasharray="4 4"
    opacity="0.4"
  />
</svg>
