<svg width="200" height="200" viewBox="0 0 200 200" xmlns="http://www.w3.org/2000/svg">
  <defs>
    <!-- Gradients -->
    <linearGradient id="hexBorder" x1="0%" y1="0%" x2="100%" y2="100%">
      <stop offset="0%" style="stop-color:#00D9FF;stop-opacity:1" />
      <stop offset="50%" style="stop-color:#0099CC;stop-opacity:1" />
      <stop offset="100%" style="stop-color:#00D9FF;stop-opacity:1" />
    </linearGradient>

    <linearGradient id="dataFlow" x1="0%" y1="0%" x2="100%" y2="0%">
      <stop offset="0%" style="stop-color:#0099CC;stop-opacity:0" />
      <stop offset="50%" style="stop-color:#00D9FF;stop-opacity:1" />
      <stop offset="100%" style="stop-color:#0099CC;stop-opacity:0" />
    </linearGradient>

    <linearGradient id="pulseGradient" x1="0%" y1="0%" x2="0%" y2="100%">
      <stop offset="0%" style="stop-color:#00FF66;stop-opacity:1" />
      <stop offset="50%" style="stop-color:#00D9FF;stop-opacity:0.6" />
      <stop offset="100%" style="stop-color:#0099CC;stop-opacity:0" />
    </linearGradient>

    <radialGradient id="gaugeGradient" cx="50%" cy="50%" r="50%">
      <stop offset="0%" style="stop-color:#00FF66;stop-opacity:0.9" />
      <stop offset="100%" style="stop-color:#0099CC;stop-opacity:0.3" />
    </radialGradient>

    <!-- Blur filters for glow effects -->
    <filter id="glow">
      <feGaussianBlur stdDeviation="1.5" result="coloredBlur"/>
      <feMerge>
        <feMergeNode in="coloredBlur"/>
        <feMergeNode in="SourceGraphic"/>
      </feMerge>
    </filter>

    <filter id="softGlow">
      <feGaussianBlur stdDeviation="2" result="coloredBlur"/>
      <feMerge>
        <feMergeNode in="coloredBlur"/>
        <feMergeNode in="SourceGraphic"/>
      </feMerge>
    </filter>

    <!-- Animations -->
    <style>
      @keyframes pulse {
        0%, 100% { opacity: 1; }
        50% { opacity: 0.3; }
      }
      @keyframes flow {
        0% { offset-distance: 0%; }
        100% { offset-distance: 100%; }
      }
      @keyframes wave {
        0% { d: path('M 60,100 Q 70,95 80,100 T 100,100 T 120,100 T 140,100'); }
        50% { d: path('M 60,100 Q 70,85 80,100 T 100,100 T 120,100 T 140,100'); }
        100% { d: path('M 60,100 Q 70,95 80,100 T 100,100 T 120,100 T 140,100'); }
      }
      .pulse-element { animation: pulse 2s ease-in-out infinite; }
      .gauge-needle { animation: pulse 1.5s ease-in-out infinite; }
    </style>
  </defs>

  <!-- Hexagon Outer Frame -->
  <path d="M 100,20 L 160,50 L 160,150 L 100,180 L 40,150 L 40,50 Z"
        fill="none"
        stroke="url(#hexBorder)"
        stroke-width="2.5"
        stroke-linejoin="round"/>

  <!-- Inner hexagon accent -->
  <path d="M 100,30 L 150,60 L 150,140 L 100,170 L 50,140 L 50,60 Z"
        fill="none"
        stroke="#00D9FF"
        stroke-width="1"
        opacity="0.4"
        stroke-linejoin="round"/>

  <!-- Background hexagon fill with subtle gradient -->
  <path d="M 100,20 L 160,50 L 160,150 L 100,180 L 40,150 L 40,50 Z"
        fill="#001A2E"
        opacity="0.8"/>

  <!-- Data Stream Wave 1 (Top) -->
  <path d="M 60,75 Q 70,70 80,75 T 100,75 T 120,75 T 140,75"
        stroke="#00D9FF"
        stroke-width="1.5"
        fill="none"
        opacity="0.8"
        filter="url(#glow)"/>

  <!-- Data Stream Wave 2 (Middle) -->
  <path d="M 55,100 Q 65,92 75,100 T 95,100 T 115,100 T 145,100"
        stroke="#0099CC"
        stroke-width="1.5"
        fill="none"
        opacity="0.6"
        filter="url(#glow)"/>

  <!-- Data Stream Wave 3 (Bottom) -->
  <path d="M 60,125 Q 70,118 80,125 T 100,125 T 120,125 T 140,125"
        stroke="#00D9FF"
        stroke-width="1.5"
        fill="none"
        opacity="0.7"
        filter="url(#glow)"/>

  <!-- Left Gauge - Circular metric display -->
  <g transform="translate(60, 80)">
    <!-- Gauge background circle -->
    <circle cx="0" cy="0" r="12" fill="none" stroke="#0099CC" stroke-width="1" opacity="0.4"/>

    <!-- Gauge fill arc -->
    <path d="M 0,-12 A 12,12 0 0,1 8.5,8.5"
          fill="none"
          stroke="url(#gaugeGradient)"
          stroke-width="2"
          stroke-linecap="round"
          filter="url(#glow)"/>

    <!-- Gauge needle -->
    <line x1="0" y1="0" x2="8" y2="-8"
          stroke="#00FF66"
          stroke-width="1.5"
          stroke-linecap="round"
          class="gauge-needle"
          filter="url(#glow)"/>

    <!-- Center dot -->
    <circle cx="0" cy="0" r="1.5" fill="#00FF66" filter="url(#softGlow)"/>
  </g>

  <!-- Right Gauge - Circular metric display -->
  <g transform="translate(140, 80)">
    <!-- Gauge background circle -->
    <circle cx="0" cy="0" r="12" fill="none" stroke="#0099CC" stroke-width="1" opacity="0.4"/>

    <!-- Gauge fill arc -->
    <path d="M 0,-12 A 12,12 0 0,0 -8.5,8.5"
          fill="none"
          stroke="url(#gaugeGradient)"
          stroke-width="2"
          stroke-linecap="round"
          filter="url(#glow)"/>

    <!-- Gauge needle -->
    <line x1="0" y1="0" x2="-8" y2="-8"
          stroke="#00FF66"
          stroke-width="1.5"
          stroke-linecap="round"
          class="gauge-needle"
          filter="url(#glow)"/>

    <!-- Center dot -->
    <circle cx="0" cy="0" r="1.5" fill="#00FF66" filter="url(#softGlow)"/>
  </g>

  <!-- Central Pulse Points -->
  <g class="pulse-element">
    <circle cx="100" cy="100" r="8" fill="#00FF66" opacity="0.4" filter="url(#softGlow)"/>
  </g>

  <circle cx="100" cy="100" r="4" fill="#00FF66" filter="url(#glow)"/>

  <!-- Pulse heartbeat lines radiating from center -->
  <g opacity="0.6" filter="url(#glow)">
    <!-- Vertical pulse line -->
    <path d="M 100,60 L 100,80" stroke="#00D9FF" stroke-width="1.5" stroke-linecap="round"/>
    <path d="M 100,120 L 100,140" stroke="#00D9FF" stroke-width="1.5" stroke-linecap="round"/>

    <!-- Horizontal pulse line -->
    <path d="M 70,100 L 85,100" stroke="#0099CC" stroke-width="1.5" stroke-linecap="round"/>
    <path d="M 115,100 L 130,100" stroke="#0099CC" stroke-width="1.5" stroke-linecap="round"/>

    <!-- Diagonal pulse lines -->
    <path d="M 77,87 L 88,76" stroke="#00FF66" stroke-width="1.2" stroke-linecap="round" opacity="0.8"/>
    <path d="M 123,87 L 112,76" stroke="#00FF66" stroke-width="1.2" stroke-linecap="round" opacity="0.8"/>
    <path d="M 77,113 L 88,124" stroke="#00D9FF" stroke-width="1.2" stroke-linecap="round" opacity="0.7"/>
    <path d="M 123,113 L 112,124" stroke="#00D9FF" stroke-width="1.2" stroke-linecap="round" opacity="0.7"/>
  </g>

  <!-- Metric indicators (small dots at cardinal points) -->
  <g fill="#00FF66" filter="url(#glow)">
    <circle cx="100" cy="50" r="1.5" opacity="0.9"/>
    <circle cx="100" cy="150" r="1.5" opacity="0.9"/>
    <circle cx="50" cy="100" r="1.5" opacity="0.8"/>
    <circle cx="150" cy="100" r="1.5" opacity="0.8"/>
  </g>

  <!-- Data flow indicator lines with gradient -->
  <g opacity="0.5" filter="url(#glow)">
    <path d="M 70,70 L 90,90" stroke="url(#dataFlow)" stroke-width="1"/>
    <path d="M 130,70 L 110,90" stroke="url(#dataFlow)" stroke-width="1"/>
    <path d="M 70,130 L 90,110" stroke="url(#dataFlow)" stroke-width="1"/>
    <path d="M 130,130 L 110,110" stroke="url(#dataFlow)" stroke-width="1"/>
  </g>
</svg>