<svg xmlns="http://www.w3.org/2000/svg" width="200" height="200" viewBox="0 0 200 200" role="img" aria-label="CrucibleFeedback Hex Mark">
  <defs>
    <linearGradient id="hex-fill" x1="0" y1="0" x2="1" y2="1">
      <stop offset="0" stop-color="#0f172a" />
      <stop offset="0.5" stop-color="#0b3b3c" />
      <stop offset="1" stop-color="#0a1f2a" />
    </linearGradient>
    <linearGradient id="hex-stroke" x1="0" y1="0" x2="0" y2="1">
      <stop offset="0" stop-color="#14B8A6" />
      <stop offset="1" stop-color="#F59E0B" />
    </linearGradient>
    <radialGradient id="inner-glow" cx="0.5" cy="0.45" r="0.6">
      <stop offset="0" stop-color="#14B8A6" stop-opacity="0.35" />
      <stop offset="0.55" stop-color="#14B8A6" stop-opacity="0.1" />
      <stop offset="1" stop-color="#0f172a" stop-opacity="0" />
    </radialGradient>
    <pattern id="micro-grid" width="8" height="8" patternUnits="userSpaceOnUse">
      <path d="M 8 0 L 0 0 0 8" fill="none" stroke="#1f2937" stroke-width="0.6" />
    </pattern>
    <filter id="soft-shadow" x="-20%" y="-20%" width="140%" height="140%">
      <feOffset dx="0" dy="6" in="SourceAlpha" result="off" />
      <feGaussianBlur in="off" stdDeviation="6" result="blur" />
      <feColorMatrix in="blur" type="matrix"
        values="0 0 0 0 0
                0 0 0 0 0
                0 0 0 0 0
                0 0 0 0.35 0" />
      <feBlend in="SourceGraphic" mode="normal" />
    </filter>
    <filter id="noise" x="-10%" y="-10%" width="120%" height="120%">
      <feTurbulence type="fractalNoise" baseFrequency="0.9" numOctaves="2" seed="7" result="n" />
      <feColorMatrix in="n" type="saturate" values="0" />
      <feComponentTransfer>
        <feFuncA type="table" tableValues="0 0.06" />
      </feComponentTransfer>
    </filter>
    <filter id="inner-shadow" x="-20%" y="-20%" width="140%" height="140%">
      <feOffset dx="0" dy="2" />
      <feGaussianBlur stdDeviation="3" result="blur" />
      <feComposite in="blur" in2="SourceAlpha" operator="arithmetic" k2="-1" k3="1" result="inner" />
      <feColorMatrix in="inner" type="matrix"
        values="0 0 0 0 0
                0 0 0 0 0
                0 0 0 0 0
                0 0 0 0.6 0" />
      <feBlend in="SourceGraphic" mode="normal" />
    </filter>
    <marker id="arrow-head" viewBox="0 0 10 10" refX="9" refY="5" markerWidth="6" markerHeight="6" orient="auto">
      <path d="M 0 0 L 10 5 L 0 10 Z" fill="#14B8A6" />
    </marker>
    <marker id="arrow-head-amber" viewBox="0 0 10 10" refX="9" refY="5" markerWidth="6" markerHeight="6" orient="auto">
      <path d="M 0 0 L 10 5 L 0 10 Z" fill="#F59E0B" />
    </marker>
    <clipPath id="hex-clip">
      <path id="hex-shape" d="M100 8 L176 52 L176 148 L100 192 L24 148 L24 52 Z" />
    </clipPath>
  </defs>

  <g filter="url(#soft-shadow)">
    <path d="M100 8 L176 52 L176 148 L100 192 L24 148 L24 52 Z" fill="url(#hex-fill)" stroke="url(#hex-stroke)" stroke-width="2" />
  </g>

  <g clip-path="url(#hex-clip)">
    <rect x="20" y="20" width="160" height="160" fill="url(#micro-grid)" opacity="0.35" />
    <rect x="20" y="20" width="160" height="160" fill="url(#inner-glow)" />
    <rect x="20" y="20" width="160" height="160" filter="url(#noise)" opacity="0.4" />

    <path d="M 50 105 A 55 55 0 0 1 100 50" fill="none" stroke="#14B8A6" stroke-width="6" stroke-linecap="round" marker-end="url(#arrow-head)" />
    <path d="M 150 95 A 55 55 0 0 1 100 150" fill="none" stroke="#F59E0B" stroke-width="6" stroke-linecap="round" marker-end="url(#arrow-head-amber)" />

    <path d="M 70 70 L 130 70 L 118 110 Q 100 125 82 110 Z" fill="#475569" filter="url(#inner-shadow)" />
    <path d="M 76 76 L 124 76" stroke="#14B8A6" stroke-width="3" stroke-linecap="round" opacity="0.7" />
    <path d="M 80 86 L 120 86" stroke="#14B8A6" stroke-width="3" stroke-linecap="round" opacity="0.55" />

    <path d="M 100 118 L 120 138 L 100 158 L 80 138 Z" fill="#F59E0B" stroke="#0f172a" stroke-width="2" />
    <path d="M 92 138 L 108 138" stroke="#ffffff" stroke-width="1.5" opacity="0.35" />

    <circle cx="62" cy="120" r="3" fill="#14B8A6" />
    <circle cx="72" cy="132" r="2.5" fill="#14B8A6" opacity="0.8" />
    <circle cx="84" cy="146" r="2" fill="#14B8A6" opacity="0.6" />

    <circle cx="138" cy="88" r="3" fill="#F59E0B" />
    <circle cx="128" cy="76" r="2.5" fill="#F59E0B" opacity="0.8" />
    <circle cx="116" cy="64" r="2" fill="#F59E0B" opacity="0.6" />
  </g>

  <path d="M100 8 L176 52 L176 148 L100 192 L24 148 L24 52 Z" fill="none" stroke="#0f172a" stroke-width="2" opacity="0.6" />
</svg>
