<svg width="200" height="200" viewBox="0 0 200 200" fill="none" xmlns="http://www.w3.org/2000/svg">
  <defs>
    <path id="hexPath" d="M100 10 L180 55 L180 145 L100 190 L20 145 L20 55 Z" />
    <clipPath id="hexClip" clipPathUnits="userSpaceOnUse">
      <use href="#hexPath" />
    </clipPath>

    <linearGradient id="hexGradient" x1="20" y1="10" x2="180" y2="190" gradientUnits="userSpaceOnUse">
      <stop offset="0" stop-color="#0b2433" />
      <stop offset="0.5" stop-color="#113b48" />
      <stop offset="1" stop-color="#1d6f73" />
    </linearGradient>
    <radialGradient id="hexSheen" cx="0" cy="0" r="1" gradientUnits="userSpaceOnUse" gradientTransform="translate(58 38) rotate(45) scale(120 120)">
      <stop offset="0" stop-color="#8ed7df" stop-opacity="0.55" />
      <stop offset="1" stop-color="#0b2433" stop-opacity="0" />
    </radialGradient>
    <linearGradient id="hexStroke" x1="20" y1="10" x2="180" y2="190" gradientUnits="userSpaceOnUse">
      <stop offset="0" stop-color="#eef7ff" stop-opacity="0.9" />
      <stop offset="0.5" stop-color="#8ab8c7" stop-opacity="0.7" />
      <stop offset="1" stop-color="#1b4b59" stop-opacity="0.9" />
    </linearGradient>
    <linearGradient id="beam" x1="0" y1="0" x2="200" y2="0" gradientUnits="userSpaceOnUse">
      <stop offset="0" stop-color="#94d7df" stop-opacity="0" />
      <stop offset="0.5" stop-color="#94d7df" stop-opacity="0.35" />
      <stop offset="1" stop-color="#94d7df" stop-opacity="0" />
    </linearGradient>

    <pattern id="gridPattern" width="12" height="12" patternUnits="userSpaceOnUse" patternTransform="rotate(25)">
      <path d="M0 0 H12" stroke="#b9d6dd" stroke-opacity="0.18" stroke-width="1" />
    </pattern>

    <path id="dbBodyPath" d="M73 92 C73 84 88 78 118 78 C148 78 163 84 163 92 L163 138 C163 146 148 152 118 152 C88 152 73 146 73 138 Z" />
    <clipPath id="dbClip" clipPathUnits="userSpaceOnUse">
      <use href="#dbBodyPath" />
    </clipPath>

    <linearGradient id="dbBody" x1="70" y1="78" x2="165" y2="160" gradientUnits="userSpaceOnUse">
      <stop offset="0" stop-color="#f8d988" />
      <stop offset="0.55" stop-color="#e1a84b" />
      <stop offset="1" stop-color="#b86a1a" />
    </linearGradient>
    <radialGradient id="dbTop" cx="0" cy="0" r="1" gradientUnits="userSpaceOnUse" gradientTransform="translate(118 88) rotate(90) scale(18 50)">
      <stop offset="0" stop-color="#fff3c8" />
      <stop offset="0.6" stop-color="#f1c676" />
      <stop offset="1" stop-color="#c57b2a" />
    </radialGradient>
    <linearGradient id="ringGrad" x1="73" y1="92" x2="163" y2="92" gradientUnits="userSpaceOnUse">
      <stop offset="0" stop-color="#cdeaf3" stop-opacity="0.9" />
      <stop offset="1" stop-color="#7bb1c7" stop-opacity="0.9" />
    </linearGradient>
    <radialGradient id="duckHead" cx="0" cy="0" r="1" gradientUnits="userSpaceOnUse" gradientTransform="translate(74 80) rotate(120) scale(24 24)">
      <stop offset="0" stop-color="#ffe9b5" />
      <stop offset="1" stop-color="#d48a2b" />
    </radialGradient>
    <linearGradient id="wingGrad" x1="100" y1="102" x2="150" y2="144" gradientUnits="userSpaceOnUse">
      <stop offset="0" stop-color="#f5c56b" />
      <stop offset="1" stop-color="#bf6b1d" />
    </linearGradient>
    <linearGradient id="beakGrad" x1="40" y1="84" x2="66" y2="96" gradientUnits="userSpaceOnUse">
      <stop offset="0" stop-color="#ffb35a" />
      <stop offset="1" stop-color="#f27b2b" />
    </linearGradient>
    <linearGradient id="elixirDropGrad" x1="130" y1="40" x2="150" y2="74" gradientUnits="userSpaceOnUse">
      <stop offset="0" stop-color="#ff7ab6" />
      <stop offset="1" stop-color="#c04b8b" />
    </linearGradient>

    <filter id="hexShadow" x="-20%" y="-20%" width="140%" height="140%" color-interpolation-filters="sRGB">
      <feDropShadow dx="0" dy="8" stdDeviation="8" flood-color="#08141c" flood-opacity="0.45" />
    </filter>
    <filter id="duckShadow" x="-20%" y="-20%" width="140%" height="140%" color-interpolation-filters="sRGB">
      <feDropShadow dx="0" dy="6" stdDeviation="6" flood-color="#0a1b22" flood-opacity="0.45" />
    </filter>
    <filter id="softGlow" x="-30%" y="-30%" width="160%" height="160%" color-interpolation-filters="sRGB">
      <feGaussianBlur stdDeviation="10" />
    </filter>
  </defs>

  <g filter="url(#hexShadow)">
    <use href="#hexPath" fill="url(#hexGradient)" />
  </g>
  <use href="#hexPath" fill="url(#hexSheen)" opacity="0.6" />
  <g clip-path="url(#hexClip)">
    <rect width="200" height="200" fill="url(#gridPattern)" opacity="0.6" />
    <path d="M-10 86 L210 24 L210 64 L-10 126 Z" fill="url(#beam)" opacity="0.25" />
    <path d="M-20 150 L220 96 L220 120 L-20 174 Z" fill="url(#beam)" opacity="0.18" />
  </g>
  <use href="#hexPath" fill="none" stroke="url(#hexStroke)" stroke-width="3" />

  <ellipse cx="118" cy="122" rx="64" ry="44" fill="#2cc6c9" opacity="0.25" filter="url(#softGlow)" />

  <g filter="url(#duckShadow)">
    <use href="#dbBodyPath" fill="url(#dbBody)" />
    <g clip-path="url(#dbClip)">
      <ellipse cx="118" cy="104" rx="43" ry="10" fill="none" stroke="url(#ringGrad)" stroke-width="2" opacity="0.8" />
      <ellipse cx="118" cy="118" rx="43" ry="10" fill="none" stroke="url(#ringGrad)" stroke-width="2" opacity="0.7" />
      <ellipse cx="118" cy="132" rx="43" ry="10" fill="none" stroke="url(#ringGrad)" stroke-width="2" opacity="0.6" />
      <path d="M138 84 C150 88 160 92 163 96 L163 138 C163 146 150 150 136 150 Z" fill="#9a5a16" opacity="0.26" />
      <path d="M80 94 C98 88 124 88 150 98 L150 112 C124 108 98 110 80 120 Z" fill="#ffffff" opacity="0.08" />
      <circle cx="96" cy="120" r="2" fill="#e9f6ff" opacity="0.8" />
      <circle cx="108" cy="126" r="1.6" fill="#e9f6ff" opacity="0.75" />
      <circle cx="90" cy="132" r="1.4" fill="#e9f6ff" opacity="0.65" />
    </g>
    <ellipse cx="118" cy="92" rx="45" ry="12" fill="url(#dbTop)" stroke="#fff1c4" stroke-opacity="0.6" stroke-width="1.2" />
    <ellipse cx="118" cy="138" rx="45" ry="12" fill="none" stroke="#b36a1c" stroke-opacity="0.35" stroke-width="1.2" />

    <circle cx="74" cy="84" r="17" fill="url(#duckHead)" />
    <path d="M60 84 C49 84 42 88 40 92 C43 96 52 98 62 96 Z" fill="url(#beakGrad)" />
    <path d="M62 90 C52 90 46 92 44 94 C47 96 54 96 63 94" fill="none" stroke="#e56c1f" stroke-width="1.2" stroke-linecap="round" opacity="0.7" />
    <circle cx="70" cy="80" r="3.2" fill="#1b1b1b" />
    <circle cx="71" cy="79" r="1.1" fill="#f5f5f5" />
    <path d="M86 94 C94 86 106 82 118 84 L118 100 C106 98 96 100 88 104 Z" fill="#d58a30" opacity="0.85" />
    <path d="M104 114 C104 104 114 96 128 98 C140 100 150 112 150 126 C136 126 124 132 112 138 C108 134 104 126 104 114 Z" fill="url(#wingGrad)" />
    <path d="M116 112 C122 112 130 116 136 122" stroke="#f6d38a" stroke-width="1.4" stroke-linecap="round" opacity="0.7" />
    <path d="M112 120 C120 120 128 124 134 130" stroke="#f2c675" stroke-width="1.2" stroke-linecap="round" opacity="0.7" />
    <path d="M160 114 L175 106 L174 128 Z" fill="#c76a1a" />
    <path d="M160 114 L170 116 L166 130 Z" fill="#e5a046" opacity="0.7" />
  </g>

  <path d="M150 62 C150 54 145 48 140 40 C135 48 130 54 130 62 C130 70 135 76 140 76 C145 76 150 70 150 62 Z" fill="url(#elixirDropGrad)" opacity="0.85" />
  <circle cx="144" cy="58" r="2.2" fill="#fff3fa" opacity="0.8" />
</svg>
