<svg width="200" height="200" viewBox="0 0 200 200" xmlns="http://www.w3.org/2000/svg">
  <defs>
    <linearGradient id="hexGradient" x1="0%" y1="0%" x2="100%" y2="100%">
      <stop offset="0%" style="stop-color:#1d4e5f; stop-opacity:1" />
      <stop offset="100%" style="stop-color:#3b8a8d; stop-opacity:1" />
    </linearGradient>
    <filter id="shadow" x="-20%" y="-20%" width="140%" height="140%">
      <feGaussianBlur in="SourceAlpha" stdDeviation="3"/>
      <feOffset dx="2" dy="2" result="offsetblur"/>
      <feComponentTransfer>
        <feFuncA type="linear" slope="0.5"/>
      </feComponentTransfer>
      <feMerge>
        <feMergeNode/>
        <feMergeNode in="SourceGraphic"/>
      </feMerge>
    </filter>
  </defs>

  <!-- Hexagon Background -->
  <path d="M100 10 L190 55 L190 145 L100 190 L10 145 L10 55 Z" fill="url(#hexGradient)" filter="url(#shadow)"/>

  <!-- Octopus Reporter Body -->
  <path d="M100,50 C125,50 140,70 140,95 C140,120 120,140 100,140 C80,140 60,120 60,95 C60,70 75,50 100,50 Z" fill="#ff7f50"/>

  <!-- Octopus Eyes -->
  <circle cx="85" cy="80" r="10" fill="white"/>
  <circle cx="83" cy="80" r="5" fill="#2c3e50"/>
  <circle cx="115" cy="80" r="10" fill="white"/>
  <circle cx="113" cy="80" r="5" fill="#2c3e50"/>

  <!-- Reporter's Hat -->
  <path d="M80 55 L120 55 L115 40 L85 40 Z" fill="#34495e" />
  <rect x="75" y="50" width="50" height="5" fill="#34495e" />

  <!-- Tentacles -->
  <g fill="none" stroke="#ff7f50" stroke-width="8" stroke-linecap="round">
    <path d="M70,120 Q60,140 50,130" />
    <path d="M80,130 Q70,150 60,140" />
    <path d="M130,120 Q140,140 150,130" />
    <path d="M120,130 Q130,150 140,140" />
    <path d="M90,135 Q80,160 70,150" />
    <path d="M110,135 Q120,160 130,150" />
  </g>

  <!-- Magnifying Glass (as a reporter's tool) -->
  <g transform="rotate(25 150 100)">
    <circle cx="150" cy="80" r="15" fill="none" stroke="silver" stroke-width="4"/>
    <line x1="150" y1="95" x2="150" y2="115" stroke="silver" stroke-width="4"/>
    <circle cx="150" cy="80" r="10" fill="rgba(255,255,255,0.3)"/>
  </g>
</svg>
