<svg width="720" height="720" viewBox="0 0 320 320" fill="none" xmlns="http://www.w3.org/2000/svg">
  <defs>
    <linearGradient id="bgGradientF" x1="18" y1="12" x2="300" y2="296" gradientUnits="userSpaceOnUse">
      <stop offset="0" stop-color="#0b0f24"/>
      <stop offset="0.28" stop-color="#1d2d5f"/>
      <stop offset="0.58" stop-color="#1a1f3a"/>
      <stop offset="1" stop-color="#0a1624"/>
    </linearGradient>
    <radialGradient id="glowF" cx="50%" cy="44%" r="64%">
      <stop offset="0" stop-color="#ffb674" stop-opacity="0.45"/>
      <stop offset="0.45" stop-color="#ff5d9c" stop-opacity="0.25"/>
      <stop offset="1" stop-color="#0d1a2a" stop-opacity="0"/>
    </radialGradient>
    <linearGradient id="edgeGradientF" x1="38" y1="36" x2="282" y2="282" gradientUnits="userSpaceOnUse">
      <stop offset="0" stop-color="#67ffe4" stop-opacity="0.9"/>
      <stop offset="0.4" stop-color="#ff7f73" stop-opacity="0.8"/>
      <stop offset="1" stop-color="#ffce7c" stop-opacity="0.95"/>
    </linearGradient>
    <linearGradient id="ring" x1="120" y1="96" x2="216" y2="222" gradientUnits="userSpaceOnUse">
      <stop offset="0" stop-color="#7dffef"/>
      <stop offset="0.4" stop-color="#5fc8ff"/>
      <stop offset="0.7" stop-color="#ff7a3a"/>
      <stop offset="1" stop-color="#ffd17a"/>
    </linearGradient>
    <linearGradient id="flame" x1="142" y1="120" x2="186" y2="210" gradientUnits="userSpaceOnUse">
      <stop offset="0" stop-color="#fff0c0"/>
      <stop offset="0.35" stop-color="#ffb15c"/>
      <stop offset="0.7" stop-color="#ff4f7c"/>
      <stop offset="1" stop-color="#8af7ff"/>
    </linearGradient>
    <radialGradient id="coreHeat" cx="50%" cy="50%" r="60%">
      <stop offset="0" stop-color="#fffeea" stop-opacity="0.95"/>
      <stop offset="0.45" stop-color="#ff9c5e" stop-opacity="0.8"/>
      <stop offset="1" stop-color="#ff2f73" stop-opacity="0.6"/>
    </radialGradient>
    <linearGradient id="gridStrokeF" x1="0" y1="0" x2="320" y2="0" gradientUnits="userSpaceOnUse">
      <stop offset="0" stop-color="#72ffe7" stop-opacity="0.16"/>
      <stop offset="1" stop-color="#ff9f7c" stop-opacity="0.08"/>
    </linearGradient>
    <clipPath id="hexClipF">
      <polygon points="160,12 276,82 276,238 160,308 44,238 44,82"/>
    </clipPath>
  </defs>
  <g clip-path="url(#hexClipF)">
    <polygon points="160,12 276,82 276,238 160,308 44,238 44,82" fill="url(#bgGradientF)" stroke="url(#edgeGradientF)" stroke-width="4"/>
    <polygon points="160,38 254,94 254,226 160,282 66,226 66,94" fill="url(#glowF)" stroke="#6effe8" stroke-opacity="0.25" stroke-width="2"/>
    <g opacity="0.38">
      <path d="M64 168 H256" stroke="url(#gridStrokeF)" stroke-width="1" stroke-dasharray="5 7"/>
      <path d="M96 120 L224 228" stroke="url(#gridStrokeF)" stroke-width="1" stroke-dasharray="6 10"/>
      <circle cx="106" cy="116" r="2.5" fill="#63ffe2"/>
      <circle cx="234" cy="204" r="2.5" fill="#ffb57f"/>
      <circle cx="198" cy="134" r="2.1" fill="#ffd7a0"/>
    </g>
    <g transform="translate(0 -10)">
      <circle cx="160" cy="170" r="78" fill="#0b1628" stroke="url(#ring)" stroke-width="6"/>
      <circle cx="160" cy="170" r="58" fill="#0b121f" stroke="#52ffe1" stroke-width="2" stroke-opacity="0.3"/>
      <circle cx="160" cy="170" r="46" fill="url(#coreHeat)" opacity="0.75"/>
      <path d="M160 124 C150 144 148 158 152 172 C156 186 170 196 170 210 C170 222 160 232 148 232 C136 232 124 224 122 210 C120 194 126 178 138 160 C144 150 150 142 154 130 Z" fill="url(#flame)" opacity="0.95"/>
      <path d="M164 134 C180 152 192 168 194 188 C196 206 184 226 168 232 C188 226 200 206 198 186 C196 166 182 148 164 134 Z" fill="#6af1ff" fill-opacity="0.35"/>
      <path d="M120 214 H200 C208 214 212 210 214 202 L220 178 H100 L106 202 C108 210 112 214 120 214 Z" fill="#0d1d34" stroke="#5cffe6" stroke-width="2" stroke-opacity="0.6"/>
      <path d="M118 204 H202 L196 182 H124 Z" fill="url(#ring)" opacity="0.35"/>
      <path d="M130 146 C134 140 140 134 150 128" stroke="#ffe3b8" stroke-width="3" stroke-linecap="round" stroke-opacity="0.7"/>
      <path d="M172 124 C182 132 190 142 196 158" stroke="#ffc87a" stroke-width="3" stroke-linecap="round" stroke-opacity="0.6"/>
    </g>
    <g opacity="0.8">
      <circle cx="118" cy="96" r="3.2" fill="#ff9f58"/>
      <circle cx="192" cy="94" r="2.8" fill="#ff72b5"/>
      <circle cx="226" cy="126" r="2.6" fill="#7cffe7"/>
      <circle cx="84" cy="148" r="2.4" fill="#ffb45c"/>
      <circle cx="146" cy="106" r="2.2" fill="#ffddaa"/>
    </g>
    <path d="M160 24 L172 32 L160 40 L148 32 Z" fill="#7cffe7" fill-opacity="0.75"/>
    <path d="M44 238 L160 308 L276 238" stroke="#69ffe7" stroke-width="2" stroke-opacity="0.45"/>
  </g>
</svg>
