<svg width="200" height="200" viewBox="-1 -1 102 102" xmlns="http://www.w3.org/2000/svg" version="1.1">
  <defs>
    <linearGradient id="gepa-surface" x1="0%" y1="0%" x2="100%" y2="100%">
      <stop offset="0%" stop-color="#0b2748"/>
      <stop offset="50%" stop-color="#123b6d"/>
      <stop offset="100%" stop-color="#1f8dbf"/>
    </linearGradient>
    <linearGradient id="gepa-edge" x1="0%" y1="0%" x2="100%" y2="0%">
      <stop offset="0%" stop-color="#6ddcff"/>
      <stop offset="50%" stop-color="#fca5ff"/>
      <stop offset="100%" stop-color="#6ee7ff"/>
    </linearGradient>
    <radialGradient id="gepa-glow" cx="50%" cy="35%" r="60%">
      <stop offset="0%" stop-color="#ffffff" stop-opacity="0.35"/>
      <stop offset="70%" stop-color="#5ed1ff" stop-opacity="0.08"/>
      <stop offset="100%" stop-color="#0b2748" stop-opacity="0"/>
    </radialGradient>
    <linearGradient id="dna-gradient" x1="0%" y1="0%" x2="0%" y2="100%">
      <stop offset="0%" stop-color="#8ff7ff"/>
      <stop offset="100%" stop-color="#45c3ff"/>
    </linearGradient>
    <linearGradient id="axis-gradient" x1="0%" y1="100%" x2="100%" y2="0%">
      <stop offset="0%" stop-color="#7a8bb5"/>
      <stop offset="100%" stop-color="#dbe8ff"/>
    </linearGradient>
    <filter id="symbol-glow" x="-40%" y="-40%" width="180%" height="180%">
      <feGaussianBlur in="SourceGraphic" stdDeviation="1.5" result="blur"/>
      <feColorMatrix in="blur" type="matrix" values="0 0 0 0 0.49  0 0 0 0 0.84  0 0 0 0 1  0 0 0 0.65 0"/>
      <feBlend in="SourceGraphic" in2="blur" mode="screen"/>
    </filter>
  </defs>

  <path
    d="M 50 0 L 93.3 25 L 93.3 75 L 50 100 L 6.7 75 L 6.7 25 Z"
    fill="url(#gepa-surface)"
  />
  <path
    d="M 50 0 L 93.3 25 L 93.3 75 L 50 100 L 6.7 75 L 6.7 25 Z"
    fill="url(#gepa-glow)"
    opacity="0.9"
  />
  <path
    d="M 50 0 L 93.3 25 L 93.3 75 L 50 100 L 6.7 75 L 6.7 25 Z"
    fill="none"
    stroke="url(#gepa-edge)"
    stroke-width="2"
  />

  <g filter="url(#symbol-glow)">
    <g stroke="url(#axis-gradient)" stroke-width="1.5" opacity="0.9">
      <line x1="32" y1="68" x2="66" y2="68" stroke-linecap="round"/>
      <line x1="32" y1="68" x2="32" y2="32" stroke-linecap="round"/>
      <path d="M 34 66 Q 46 52 62 44" fill="none" stroke-width="2" stroke-linecap="round"/>
      <circle cx="62" cy="44" r="2.5" fill="#f5fbff" stroke="#0b2748" stroke-width="0.6"/>
    </g>

    <g stroke="url(#dna-gradient)" stroke-width="2.2" fill="none">
      <path d="M 36 24 C 30 36 30 64 36 76" stroke-linecap="round"/>
      <path d="M 64 24 C 70 36 70 64 64 76" stroke-linecap="round"/>
      <line x1="36" y1="30" x2="64" y2="26" stroke-width="1.4" stroke-linecap="round" opacity="0.85"/>
      <line x1="34" y1="40" x2="66" y2="36" stroke-width="1.4" stroke-linecap="round" opacity="0.7"/>
      <line x1="33" y1="50" x2="67" y2="48" stroke-width="1.4" stroke-linecap="round" opacity="0.65"/>
      <line x1="34" y1="60" x2="66" y2="62" stroke-width="1.4" stroke-linecap="round" opacity="0.7"/>
      <line x1="36" y1="70" x2="64" y2="74" stroke-width="1.4" stroke-linecap="round" opacity="0.85"/>
      <circle cx="40" cy="34" r="1.6" fill="#bdf6ff" stroke="none"/>
      <circle cx="60" cy="58" r="1.6" fill="#bdf6ff" stroke="none"/>
      <circle cx="48" cy="44" r="1.6" fill="#bdf6ff" stroke="none"/>
      <circle cx="52" cy="68" r="1.6" fill="#bdf6ff" stroke="none"/>
    </g>
  </g>
</svg>
