<?xml version="1.0" encoding="UTF-8"?>
<svg xmlns="http://www.w3.org/2000/svg" viewBox="0 0 200 200" width="200" height="200">
  <defs>
    <!-- Main gradient - HuggingFace yellow to Elixir purple -->
    <linearGradient id="hexGradient" x1="0%" y1="0%" x2="100%" y2="100%">
      <stop offset="0%" style="stop-color:#FFD21E;stop-opacity:1"/>
      <stop offset="50%" style="stop-color:#FF6F61;stop-opacity:1"/>
      <stop offset="100%" style="stop-color:#9B59B6;stop-opacity:1"/>
    </linearGradient>
    
    <!-- Dark inner gradient -->
    <linearGradient id="innerGradient" x1="0%" y1="100%" x2="100%" y2="0%">
      <stop offset="0%" style="stop-color:#1a1a2e;stop-opacity:1"/>
      <stop offset="100%" style="stop-color:#16213e;stop-opacity:1"/>
    </linearGradient>
    
    <!-- Neural node glow -->
    <filter id="nodeGlow" x="-100%" y="-100%" width="300%" height="300%">
      <feGaussianBlur stdDeviation="1.5" result="blur"/>
      <feMerge>
        <feMergeNode in="blur"/>
        <feMergeNode in="SourceGraphic"/>
      </feMerge>
    </filter>
    
    <!-- Matrix pattern for PEFT -->
    <pattern id="matrixPattern" width="10" height="10" patternUnits="userSpaceOnUse">
      <rect width="10" height="10" fill="none"/>
      <circle cx="5" cy="5" r="0.5" fill="rgba(255,210,30,0.2)"/>
    </pattern>
    
    <!-- Outer shadow -->
    <filter id="shadow" x="-20%" y="-20%" width="140%" height="140%">
      <feDropShadow dx="0" dy="2" stdDeviation="4" flood-color="#000" flood-opacity="0.3"/>
    </filter>
    
    <!-- Connection gradient -->
    <linearGradient id="connectionGrad" x1="0%" y1="0%" x2="100%" y2="0%">
      <stop offset="0%" style="stop-color:#FFD21E;stop-opacity:0.8"/>
      <stop offset="100%" style="stop-color:#9B59B6;stop-opacity:0.8"/>
    </linearGradient>
    
    <!-- Low-rank gradient (A matrix) -->
    <linearGradient id="loraA" x1="0%" y1="0%" x2="0%" y2="100%">
      <stop offset="0%" style="stop-color:#00D9FF;stop-opacity:1"/>
      <stop offset="100%" style="stop-color:#0099CC;stop-opacity:1"/>
    </linearGradient>
    
    <!-- Low-rank gradient (B matrix) -->
    <linearGradient id="loraB" x1="0%" y1="0%" x2="0%" y2="100%">
      <stop offset="0%" style="stop-color:#FF6B9D;stop-opacity:1"/>
      <stop offset="100%" style="stop-color:#C44569;stop-opacity:1"/>
    </linearGradient>
    
    <!-- Clip path for hexagon -->
    <clipPath id="hexClip">
      <polygon points="100,22 164,61 164,139 100,178 36,139 36,61"/>
    </clipPath>
  </defs>
  
  <!-- Background hexagon with shadow -->
  <g filter="url(#shadow)">
    <polygon 
      points="100,8 178,54 178,146 100,192 22,146 22,54" 
      fill="url(#hexGradient)"
      stroke="none"/>
  </g>
  
  <!-- Inner hexagon -->
  <polygon 
    points="100,16 170,58 170,142 100,184 30,142 30,58" 
    fill="url(#innerGradient)"
    stroke="url(#hexGradient)"
    stroke-width="1"
    stroke-opacity="0.5"/>
  
  <!-- Matrix pattern overlay -->
  <polygon 
    points="100,16 170,58 170,142 100,184 30,142 30,58" 
    fill="url(#matrixPattern)"
    opacity="0.3"/>
  
  <!-- All content clipped to hexagon -->
  <g clip-path="url(#hexClip)">
    
    <!-- PEFT Low-Rank Visualization - scaled up 20% -->
    <g transform="translate(100, 82) scale(1.2)">
      
      <!-- Original weight matrix (frozen) - left -->
      <g transform="translate(-42, -20)">
        <rect x="0" y="0" width="16" height="28" rx="2" ry="2" 
              fill="#2a2a4a" stroke="#666" stroke-width="0.5" opacity="0.9"/>
        <!-- Snowflake icon -->
        <g transform="translate(8, 14)" stroke="#88aadd" stroke-width="0.7" fill="none" opacity="0.8">
          <line x1="0" y1="-4" x2="0" y2="4"/>
          <line x1="-3.5" y1="-2" x2="3.5" y2="2"/>
          <line x1="-3.5" y1="2" x2="3.5" y2="-2"/>
          <circle cx="0" cy="0" r="1.5" fill="#88aadd"/>
        </g>
      </g>
      
      <!-- Plus symbol -->
      <g filter="url(#nodeGlow)">
        <circle cx="-20" cy="-6" r="4" fill="none" stroke="#FFD21E" stroke-width="1.2"/>
        <line x1="-20" y1="-9" x2="-20" y2="-3" stroke="#FFD21E" stroke-width="1.2"/>
        <line x1="-23" y1="-6" x2="-17" y2="-6" stroke="#FFD21E" stroke-width="1.2"/>
      </g>
      
      <!-- Matrix B (tall, thin) -->
      <g transform="translate(-8, -22)" filter="url(#nodeGlow)">
        <rect x="0" y="0" width="6" height="32" rx="1" ry="1" 
              fill="url(#loraB)" stroke="#fff" stroke-width="0.4" opacity="0.95"/>
      </g>
      
      <!-- Multiplication dot -->
      <circle cx="4" cy="-6" r="1.5" fill="#FFD21E" filter="url(#nodeGlow)"/>
      
      <!-- Matrix A (short, wide) -->
      <g transform="translate(10, -12)" filter="url(#nodeGlow)">
        <rect x="0" y="0" width="22" height="6" rx="1" ry="1" 
              fill="url(#loraA)" stroke="#fff" stroke-width="0.4" opacity="0.95"/>
      </g>
      
      <!-- Arrow showing update path -->
      <g stroke="url(#connectionGrad)" stroke-width="1.2" fill="none" opacity="0.8" stroke-linecap="round">
        <path d="M 34 -9 Q 40 -9 40 -3 Q 40 3 34 3"/>
        <polygon points="34,1 37,3 34,5" fill="url(#connectionGrad)"/>
      </g>
      
      <!-- Neural network layer - below matrices -->
      <g transform="translate(0, 28)">
        <!-- Input nodes -->
        <g filter="url(#nodeGlow)">
          <circle cx="-38" cy="-8" r="3.5" fill="#FFD21E" opacity="0.9"/>
          <circle cx="-38" cy="4" r="3.5" fill="#FFD21E" opacity="0.9"/>
          <circle cx="-38" cy="16" r="3.5" fill="#FFD21E" opacity="0.9"/>
        </g>
        
        <!-- Hidden nodes (adapted) -->
        <g filter="url(#nodeGlow)">
          <circle cx="0" cy="-12" r="4" fill="#9B59B6" stroke="#FFD21E" stroke-width="0.8" opacity="0.95"/>
          <circle cx="0" cy="0" r="4" fill="#9B59B6" stroke="#FFD21E" stroke-width="0.8" opacity="0.95"/>
          <circle cx="0" cy="12" r="4" fill="#9B59B6" stroke="#FFD21E" stroke-width="0.8" opacity="0.95"/>
        </g>
        
        <!-- Output nodes -->
        <g filter="url(#nodeGlow)">
          <circle cx="38" cy="-4" r="3.5" fill="#00D9FF" opacity="0.9"/>
          <circle cx="38" cy="8" r="3.5" fill="#00D9FF" opacity="0.9"/>
        </g>
        
        <!-- Connections - input to hidden -->
        <g stroke="url(#connectionGrad)" stroke-width="0.6" opacity="0.5">
          <line x1="-34" y1="-8" x2="-4" y2="-12"/>
          <line x1="-34" y1="-8" x2="-4" y2="0"/>
          <line x1="-34" y1="4" x2="-4" y2="-12"/>
          <line x1="-34" y1="4" x2="-4" y2="0"/>
          <line x1="-34" y1="4" x2="-4" y2="12"/>
          <line x1="-34" y1="16" x2="-4" y2="0"/>
          <line x1="-34" y1="16" x2="-4" y2="12"/>
        </g>
        
        <!-- Connections - hidden to output -->
        <g stroke="url(#connectionGrad)" stroke-width="0.6" opacity="0.5">
          <line x1="4" y1="-12" x2="34" y2="-4"/>
          <line x1="4" y1="0" x2="34" y2="-4"/>
          <line x1="4" y1="0" x2="34" y2="8"/>
          <line x1="4" y1="12" x2="34" y2="8"/>
        </g>
        
        <!-- LoRA bypass paths -->
        <g stroke="#FF6B9D" stroke-width="1" fill="none" opacity="0.6" stroke-dasharray="2,2">
          <path d="M 0 -18 Q 0 -24 8 -24 Q 20 -24 20 -16"/>
          <path d="M 0 18 Q 0 24 8 24 Q 20 24 20 16"/>
        </g>
      </g>
      
    </g>
    
  </g>
</svg>
