<svg width="200" height="200" viewBox="-2 -2 104 104" xmlns="http://www.w3.org/2000/svg" version="1.1">
  <defs>
    <linearGradient id="hexGradient" x1="0%" y1="0%" x2="0%" y2="100%">
      <stop offset="0%" style="stop-color:#6a4c93;stop-opacity:1" />
      <stop offset="100%" style="stop-color:#1982c4;stop-opacity:1" />
    </linearGradient>
    <linearGradient id="octopusGradient" x1="0%" y1="0%" x2="0%" y2="100%">
      <stop offset="0%" style="stop-color:#ea4335;stop-opacity:1" />
      <stop offset="50%" style="stop-color:#fbbc04;stop-opacity:1" />
      <stop offset="100%" style="stop-color:#34a853;stop-opacity:1" />
    </linearGradient>
    <filter id="glow">
      <feGaussianBlur stdDeviation="0.5" result="coloredBlur"/>
      <feMerge>
        <feMergeNode in="coloredBlur"/>
        <feMergeNode in="SourceGraphic"/>
      </feMerge>
    </filter>
  </defs>

  <!-- Hexagon background with proper proportions -->
  <path d="M 50 0 L 93.3 25 L 93.3 75 L 50 100 L 6.7 75 L 6.7 25 Z"
        fill="url(#hexGradient)"
        stroke="#4a5a8a"
        stroke-width="1.5"/>

  <!-- Octopus (Jules mascot) -->
  <g transform="translate(50, 45) scale(0.715)">
    <!-- Head/Body -->
    <ellipse cx="0" cy="0" rx="28" ry="30" fill="url(#octopusGradient)" opacity="0.95"/>

    <!-- Eyes -->
    <circle cx="-10" cy="-5" r="5.5" fill="white"/>
    <circle cx="10" cy="-5" r="5.5" fill="white"/>
    <circle cx="-9" cy="-4" r="3" fill="#1a73e8"/>
    <circle cx="11" cy="-4" r="3" fill="#1a73e8"/>

    <!-- Smile -->
    <path d="M -8 8 Q 0 13 8 8" stroke="white" stroke-width="2" fill="none" stroke-linecap="round"/>

    <!-- Tentacles/Arms (8 total) -->
    <!-- Left side -->
    <path d="M -22 15 Q -30 25 -28 35" stroke="#ea4335" stroke-width="4" fill="none" stroke-linecap="round" opacity="0.9"/>
    <path d="M -18 20 Q -26 30 -24 40" stroke="#fbbc04" stroke-width="4" fill="none" stroke-linecap="round" opacity="0.9"/>
    <path d="M -14 22 Q -20 34 -18 42" stroke="#34a853" stroke-width="4" fill="none" stroke-linecap="round" opacity="0.9"/>
    <path d="M -8 25 Q -12 37 -10 45" stroke="#4285f4" stroke-width="4" fill="none" stroke-linecap="round" opacity="0.9"/>

    <!-- Right side -->
    <path d="M 8 25 Q 12 37 10 45" stroke="#4285f4" stroke-width="4" fill="none" stroke-linecap="round" opacity="0.9"/>
    <path d="M 14 22 Q 20 34 18 42" stroke="#34a853" stroke-width="4" fill="none" stroke-linecap="round" opacity="0.9"/>
    <path d="M 18 20 Q 26 30 24 40" stroke="#fbbc04" stroke-width="4" fill="none" stroke-linecap="round" opacity="0.9"/>
    <path d="M 22 15 Q 30 25 28 35" stroke="#ea4335" stroke-width="4" fill="none" stroke-linecap="round" opacity="0.9"/>
  </g>
</svg>
