<svg width="200" height="200" viewBox="0 0 100 100" xmlns="http://www.w3.org/2000/svg" version="1.1">
  <defs>
    <linearGradient id="hex-core" x1="0%" y1="0%" x2="100%" y2="100%">
      <stop offset="0%" stop-color="#2d2f63" />
      <stop offset="45%" stop-color="#1f7fbf" />
      <stop offset="100%" stop-color="#4af0c5" />
    </linearGradient>
    <linearGradient id="hex-border" x1="0%" y1="0%" x2="100%" y2="100%">
      <stop offset="0%" stop-color="#88f5ff" />
      <stop offset="100%" stop-color="#0d8adb" />
    </linearGradient>
    <radialGradient id="core-glow" cx="50%" cy="50%" r="50%">
      <stop offset="0%" stop-color="#73f7ff" stop-opacity="0.9" />
      <stop offset="70%" stop-color="#112047" stop-opacity="0.15" />
      <stop offset="100%" stop-color="#0a0f22" stop-opacity="0" />
    </radialGradient>
    <filter id="soft-shadow" x="-20%" y="-20%" width="140%" height="140%">
      <feDropShadow dx="0" dy="2" stdDeviation="2" flood-color="#0e1b35" flood-opacity="0.45" />
    </filter>
  </defs>

  <g filter="url(#soft-shadow)">
    <path d="M50 4 L86 24 V62 L50 82 L14 62 V24 Z" fill="#050915" stroke="url(#hex-border)" stroke-width="2.5" />
    <path d="M50 11 L80 28 V58 L50 75 L20 58 V28 Z" fill="url(#hex-core)" />
  </g>

  <circle cx="50" cy="43" r="26" fill="url(#core-glow)" />

  <g stroke="#bff6ff" stroke-width="1.4" stroke-linecap="round" stroke-linejoin="round" fill="none">
    <path d="M34 44 L50 30 L66 44" />
    <path d="M34 56 L50 42 L66 56" />
    <path d="M40 50 L60 50" />
  </g>

  <circle cx="34" cy="44" r="2.2" fill="#0df2ff" />
  <circle cx="50" cy="30" r="2.4" fill="#65ffd8" />
  <circle cx="66" cy="44" r="2.2" fill="#0df2ff" />
  <circle cx="34" cy="56" r="2.1" fill="#2fd9ff" />
  <circle cx="50" cy="42" r="2.3" fill="#c1fff6" />
  <circle cx="66" cy="56" r="2.1" fill="#2fd9ff" />
  <circle cx="40" cy="50" r="1.8" fill="#77ffe3" />
  <circle cx="60" cy="50" r="1.8" fill="#77ffe3" />

  <text x="50" y="92" font-family="'JetBrains Mono', 'SFMono-Regular', Menlo, Monaco, monospace" font-size="10" fill="#6ef7ff" text-anchor="middle" letter-spacing="0.25em">
    MCP
  </text>
</svg>
