<svg xmlns="http://www.w3.org/2000/svg" width="200" height="200" viewBox="20 10 160 180" role="img" aria-label="multipart_ex">
  <defs>
    <!-- Gradient for outer hexagon -->
    <linearGradient id="hexGradient" x1="0%" y1="0%" x2="100%" y2="100%">
      <stop offset="0%" stop-color="#f9d566"/>
      <stop offset="50%" stop-color="#f4c542"/>
      <stop offset="100%" stop-color="#e6b133"/>
    </linearGradient>
    
    <!-- Radial glow -->
    <radialGradient id="innerGlow" cx="50%" cy="50%" r="50%">
      <stop offset="0%" stop-color="#fff8e0" stop-opacity="0.8"/>
      <stop offset="60%" stop-color="#f4c542" stop-opacity="0.3"/>
      <stop offset="100%" stop-color="#f4c542" stop-opacity="0"/>
    </radialGradient>
    
    <!-- Shadow filter -->
    <filter id="dropShadow" x="-20%" y="-20%" width="140%" height="140%">
      <feDropShadow dx="0" dy="2" stdDeviation="3" flood-color="#1f2933" flood-opacity="0.25"/>
    </filter>
    
    <!-- Inner shadow for depth -->
    <filter id="innerShadow" x="-50%" y="-50%" width="200%" height="200%">
      <feGaussianBlur in="SourceAlpha" stdDeviation="2" result="blur"/>
      <feOffset dy="1" dx="1"/>
      <feComposite in2="SourceAlpha" operator="arithmetic" k2="-1" k3="1"/>
      <feColorMatrix type="matrix" values="0 0 0 0 0.12  0 0 0 0 0.16  0 0 0 0 0.2  0 0 0 0.4 0"/>
      <feBlend in2="SourceGraphic" mode="multiply"/>
    </filter>
    
    <!-- Circuit pattern -->
    <pattern id="circuitPattern" patternUnits="userSpaceOnUse" width="20" height="20">
      <circle cx="10" cy="10" r="1.5" fill="#1f2933" fill-opacity="0.1"/>
      <path d="M10,0 L10,8 M10,12 L10,20" stroke="#1f2933" stroke-width="0.5" stroke-opacity="0.08"/>
      <path d="M0,10 L8,10 M12,10 L20,10" stroke="#1f2933" stroke-width="0.5" stroke-opacity="0.08"/>
    </pattern>
  </defs>
  
  <!-- Background glow -->
  <ellipse cx="100" cy="100" rx="70" ry="70" fill="url(#innerGlow)" opacity="0.5"/>
  
  <!-- Main outer hexagon -->
  <polygon 
    points="100,18 172,59 172,141 100,182 28,141 28,59" 
    fill="url(#hexGradient)" 
    stroke="#1f2933" 
    stroke-width="5"
    filter="url(#dropShadow)"
  />
  
  <!-- Circuit pattern overlay on outer hexagon -->
  <polygon 
    points="100,22 168,61 168,139 100,178 32,139 32,61" 
    fill="url(#circuitPattern)"
    opacity="0.6"
  />
  
  <!-- Mid hexagon ring -->
  <polygon 
    points="100,35 155,70 155,130 100,165 45,130 45,70" 
    fill="none" 
    stroke="#1f2933" 
    stroke-width="2"
    stroke-opacity="0.15"
  />
  
  <!-- Inner hexagon (golden) -->
  <polygon 
    points="100,48 140,78 140,122 100,152 60,122 60,78" 
    fill="#f9d566" 
    stroke="#1f2933" 
    stroke-width="2.5"
    stroke-opacity="0.8"
  />
  
  <!-- Innermost hexagon (dark accent) -->
  <polygon 
    points="100,62 125,87 125,113 100,138 75,113 75,87" 
    fill="#1f2933" 
    fill-opacity="0.85"
    stroke="#f4c542" 
    stroke-width="1.5"
  />
  
  <!-- Central design: multipart symbol - stacked layers -->
  <g transform="translate(100, 100)">
    <!-- Bottom layer -->
    <rect x="-18" y="2" width="36" height="8" rx="2" fill="#f4c542" stroke="#e6b133" stroke-width="0.5"/>
    <line x1="-12" y1="6" x2="12" y2="6" stroke="#1f2933" stroke-width="1" stroke-opacity="0.3"/>
    
    <!-- Middle layer -->
    <rect x="-18" y="-7" width="36" height="8" rx="2" fill="#f9d566" stroke="#e6b133" stroke-width="0.5"/>
    <line x1="-12" y1="-3" x2="12" y2="-3" stroke="#1f2933" stroke-width="1" stroke-opacity="0.3"/>
    
    <!-- Top layer -->
    <rect x="-18" y="-16" width="36" height="8" rx="2" fill="#fff8e0" stroke="#e6b133" stroke-width="0.5"/>
    <line x1="-12" y1="-12" x2="12" y2="-12" stroke="#1f2933" stroke-width="1" stroke-opacity="0.3"/>
  </g>
  
  <!-- Decorative corner nodes on inner hexagon -->
  <circle cx="100" cy="48" r="3.5" fill="#1f2933"/>
  <circle cx="140" cy="78" r="3.5" fill="#1f2933"/>
  <circle cx="140" cy="122" r="3.5" fill="#1f2933"/>
  <circle cx="100" cy="152" r="3.5" fill="#1f2933"/>
  <circle cx="60" cy="122" r="3.5" fill="#1f2933"/>
  <circle cx="60" cy="78" r="3.5" fill="#1f2933"/>
  
  <!-- Inner dots (highlight) -->
  <circle cx="100" cy="48" r="1.5" fill="#f4c542"/>
  <circle cx="140" cy="78" r="1.5" fill="#f4c542"/>
  <circle cx="140" cy="122" r="1.5" fill="#f4c542"/>
  <circle cx="100" cy="152" r="1.5" fill="#f4c542"/>
  <circle cx="60" cy="122" r="1.5" fill="#f4c542"/>
  <circle cx="60" cy="78" r="1.5" fill="#f4c542"/>
  
  <!-- Connecting lines from outer to inner hexagon (circuit-like) -->
  <g stroke="#1f2933" stroke-width="1" stroke-opacity="0.2">
    <line x1="100" y1="22" x2="100" y2="48"/>
    <line x1="168" y1="61" x2="140" y2="78"/>
    <line x1="168" y1="139" x2="140" y2="122"/>
    <line x1="100" y1="178" x2="100" y2="152"/>
    <line x1="32" y1="139" x2="60" y2="122"/>
    <line x1="32" y1="61" x2="60" y2="78"/>
  </g>
  
  <!-- Decorative dots on outer hexagon vertices -->
  <circle cx="100" cy="18" r="4" fill="#1f2933"/>
  <circle cx="172" cy="59" r="4" fill="#1f2933"/>
  <circle cx="172" cy="141" r="4" fill="#1f2933"/>
  <circle cx="100" cy="182" r="4" fill="#1f2933"/>
  <circle cx="28" cy="141" r="4" fill="#1f2933"/>
  <circle cx="28" cy="59" r="4" fill="#1f2933"/>
  
  <!-- Outer vertex highlights -->
  <circle cx="100" cy="18" r="2" fill="#f9d566"/>
  <circle cx="172" cy="59" r="2" fill="#f9d566"/>
  <circle cx="172" cy="141" r="2" fill="#f9d566"/>
  <circle cx="100" cy="182" r="2" fill="#f9d566"/>
  <circle cx="28" cy="141" r="2" fill="#f9d566"/>
  <circle cx="28" cy="59" r="2" fill="#f9d566"/>
  
  <!-- Small accent dots between layers -->
  <g fill="#1f2933" fill-opacity="0.4">
    <circle cx="136" cy="52" r="2"/>
    <circle cx="64" cy="52" r="2"/>
    <circle cx="163" cy="100" r="2"/>
    <circle cx="37" cy="100" r="2"/>
    <circle cx="136" cy="148" r="2"/>
    <circle cx="64" cy="148" r="2"/>
  </g>
</svg>
