<svg width="256" height="256" viewBox="0 0 256 256" xmlns="http://www.w3.org/2000/svg">
  <defs>
    <!-- Gradient definitions for depth and modern look -->
    <linearGradient id="hexGradient" x1="0%" y1="0%" x2="100%" y2="100%">
      <stop offset="0%" style="stop-color:#4E2A84;stop-opacity:1" />
      <stop offset="100%" style="stop-color:#2D1B4E;stop-opacity:1" />
    </linearGradient>

    <linearGradient id="accentGradient" x1="0%" y1="0%" x2="100%" y2="100%">
      <stop offset="0%" style="stop-color:#A074C4;stop-opacity:1" />
      <stop offset="100%" style="stop-color:#7B52AB;stop-opacity:1" />
    </linearGradient>

    <linearGradient id="flowGradient" x1="0%" y1="0%" x2="100%" y2="0%">
      <stop offset="0%" style="stop-color:#00D4AA;stop-opacity:0.8" />
      <stop offset="50%" style="stop-color:#00A8E8;stop-opacity:0.8" />
      <stop offset="100%" style="stop-color:#7B52AB;stop-opacity:0.8" />
    </linearGradient>

    <!-- Glow effect for AI theme -->
    <filter id="glow">
      <feGaussianBlur stdDeviation="2" result="coloredBlur"/>
      <feMerge>
        <feMergeNode in="coloredBlur"/>
        <feMergeNode in="SourceGraphic"/>
      </feMerge>
    </filter>
  </defs>

  <!-- Main hexagon background -->
  <g transform="translate(128, 128)">
    <!-- Outer hexagon -->
    <polygon points="0,-110 95.26,-55 95.26,55 0,110 -95.26,55 -95.26,-55"
             fill="url(#hexGradient)"
             stroke="#A074C4"
             stroke-width="3"/>

    <!-- Inner hexagon for depth -->
    <polygon points="0,-95 82.28,-47.5 82.28,47.5 0,95 -82.28,47.5 -82.28,-47.5"
             fill="none"
             stroke="#7B52AB"
             stroke-width="1.5"
             opacity="0.4"/>

    <!-- Pipeline flow visualization -->
    <!-- Top node (input) -->
    <circle cx="0" cy="-50" r="8" fill="url(#flowGradient)" filter="url(#glow)"/>

    <!-- Middle layer nodes (processing) -->
    <circle cx="-40" cy="0" r="8" fill="url(#flowGradient)" filter="url(#glow)"/>
    <circle cx="0" cy="0" r="10" fill="url(#accentGradient)" filter="url(#glow)" stroke="#00D4AA" stroke-width="2"/>
    <circle cx="40" cy="0" r="8" fill="url(#flowGradient)" filter="url(#glow)"/>

    <!-- Bottom node (output) -->
    <circle cx="0" cy="50" r="8" fill="url(#flowGradient)" filter="url(#glow)"/>

    <!-- Connection lines representing pipeline flow -->
    <!-- Top to middle -->
    <line x1="0" y1="-42" x2="-40" y2="-8" stroke="url(#flowGradient)" stroke-width="2.5" opacity="0.7"/>
    <line x1="0" y1="-42" x2="0" y2="-10" stroke="url(#flowGradient)" stroke-width="2.5" opacity="0.7"/>
    <line x1="0" y1="-42" x2="40" y2="-8" stroke="url(#flowGradient)" stroke-width="2.5" opacity="0.7"/>

    <!-- Middle to bottom -->
    <line x1="-40" y1="8" x2="0" y2="42" stroke="url(#flowGradient)" stroke-width="2.5" opacity="0.7"/>
    <line x1="0" y1="10" x2="0" y2="42" stroke="url(#flowGradient)" stroke-width="2.5" opacity="0.7"/>
    <line x1="40" y1="8" x2="0" y2="42" stroke="url(#flowGradient)" stroke-width="2.5" opacity="0.7"/>

    <!-- Data flow particles (animated feel with static positions) -->
    <circle cx="-20" cy="-25" r="2" fill="#00D4AA" opacity="0.8"/>
    <circle cx="20" cy="-25" r="2" fill="#00A8E8" opacity="0.8"/>
    <circle cx="-20" cy="25" r="2" fill="#7B52AB" opacity="0.8"/>
    <circle cx="20" cy="25" r="2" fill="#00D4AA" opacity="0.8"/>

    <!-- Elixir drop accent in center -->
    <path d="M 0,-5 Q -3,-2 -3,2 Q -3,7 0,9 Q 3,7 3,2 Q 3,-2 0,-5 Z"
          fill="#00D4AA"
          opacity="0.6"
          filter="url(#glow)"/>

    <!-- Decorative corner elements -->
    <circle cx="0" cy="-75" r="3" fill="#A074C4" opacity="0.5"/>
    <circle cx="65" cy="-37.5" r="3" fill="#A074C4" opacity="0.5"/>
    <circle cx="65" cy="37.5" r="3" fill="#A074C4" opacity="0.5"/>
    <circle cx="0" cy="75" r="3" fill="#A074C4" opacity="0.5"/>
    <circle cx="-65" cy="37.5" r="3" fill="#A074C4" opacity="0.5"/>
    <circle cx="-65" cy="-37.5" r="3" fill="#A074C4" opacity="0.5"/>
  </g>
</svg>
