<svg width="200" height="200" viewBox="0 0 200 200" fill="none" xmlns="http://www.w3.org/2000/svg" role="img" aria-labelledby="title desc">
  <title id="title">Pristine</title>
  <desc id="desc">Faceted hexagonal crystal emblem with a luminous diamond core, expressing precision, purity, and resilient structure.</desc>
  <defs>
    <linearGradient id="shellFill" x1="34" y1="18" x2="167" y2="183" gradientUnits="userSpaceOnUse">
      <stop offset="0" stop-color="#071522"/>
      <stop offset="0.36" stop-color="#13283c"/>
      <stop offset="0.7" stop-color="#0a1624"/>
      <stop offset="1" stop-color="#030b14"/>
    </linearGradient>
    <linearGradient id="shellStroke" x1="28" y1="32" x2="171" y2="166" gradientUnits="userSpaceOnUse">
      <stop offset="0" stop-color="#f6ffff"/>
      <stop offset="0.2" stop-color="#a7ebff"/>
      <stop offset="0.55" stop-color="#58c4ff"/>
      <stop offset="1" stop-color="#123f63"/>
    </linearGradient>
    <radialGradient id="ambient" cx="0" cy="0" r="1" gradientUnits="userSpaceOnUse" gradientTransform="translate(96 52) rotate(87.4552) scale(130.139 120.796)">
      <stop offset="0" stop-color="#22496b"/>
      <stop offset="0.35" stop-color="#11263b"/>
      <stop offset="0.78" stop-color="#071421"/>
      <stop offset="1" stop-color="#030911"/>
    </radialGradient>
    <radialGradient id="upperGlow" cx="0" cy="0" r="1" gradientUnits="userSpaceOnUse" gradientTransform="translate(94 57) rotate(90) scale(58)">
      <stop offset="0" stop-color="#91fcff" stop-opacity="0.72"/>
      <stop offset="0.32" stop-color="#46d2ff" stop-opacity="0.22"/>
      <stop offset="1" stop-color="#46d2ff" stop-opacity="0"/>
    </radialGradient>
    <linearGradient id="topFacet" x1="100" y1="10" x2="100" y2="56" gradientUnits="userSpaceOnUse">
      <stop offset="0" stop-color="#f1feff" stop-opacity="0.38"/>
      <stop offset="0.55" stop-color="#9ceaff" stop-opacity="0.12"/>
      <stop offset="1" stop-color="#7dcfff" stop-opacity="0"/>
    </linearGradient>
    <linearGradient id="leftFacet" x1="26" y1="54" x2="64" y2="117" gradientUnits="userSpaceOnUse">
      <stop offset="0" stop-color="#86e8ff" stop-opacity="0.24"/>
      <stop offset="0.55" stop-color="#4ba3df" stop-opacity="0.08"/>
      <stop offset="1" stop-color="#4ba3df" stop-opacity="0"/>
    </linearGradient>
    <linearGradient id="rightFacet" x1="173" y1="52" x2="136" y2="123" gradientUnits="userSpaceOnUse">
      <stop offset="0" stop-color="#dffcff" stop-opacity="0.2"/>
      <stop offset="0.5" stop-color="#65c8ff" stop-opacity="0.1"/>
      <stop offset="1" stop-color="#65c8ff" stop-opacity="0"/>
    </linearGradient>
    <linearGradient id="lowerFacet" x1="100" y1="131" x2="100" y2="185" gradientUnits="userSpaceOnUse">
      <stop offset="0" stop-color="#59c5ff" stop-opacity="0"/>
      <stop offset="0.62" stop-color="#59c5ff" stop-opacity="0.14"/>
      <stop offset="1" stop-color="#0d4f7f" stop-opacity="0.3"/>
    </linearGradient>
    <linearGradient id="causticSweep" x1="45" y1="42" x2="154" y2="156" gradientUnits="userSpaceOnUse">
      <stop offset="0" stop-color="#f6ffff" stop-opacity="0"/>
      <stop offset="0.34" stop-color="#b6fbff" stop-opacity="0.03"/>
      <stop offset="0.52" stop-color="#b6fbff" stop-opacity="0.12"/>
      <stop offset="0.75" stop-color="#66caff" stop-opacity="0.06"/>
      <stop offset="1" stop-color="#66caff" stop-opacity="0"/>
    </linearGradient>
    <radialGradient id="coreGlow" cx="0" cy="0" r="1" gradientUnits="userSpaceOnUse" gradientTransform="translate(100 101) rotate(90) scale(34)">
      <stop offset="0" stop-color="#ffffff" stop-opacity="0.88"/>
      <stop offset="0.36" stop-color="#d7fbff" stop-opacity="0.4"/>
      <stop offset="0.72" stop-color="#76dcff" stop-opacity="0.12"/>
      <stop offset="1" stop-color="#76dcff" stop-opacity="0"/>
    </radialGradient>
    <linearGradient id="haloStroke" x1="72" y1="72" x2="128" y2="136" gradientUnits="userSpaceOnUse">
      <stop offset="0" stop-color="#efffff"/>
      <stop offset="0.42" stop-color="#a5ebff"/>
      <stop offset="1" stop-color="#419ad8"/>
    </linearGradient>
    <linearGradient id="gemTable" x1="84" y1="58" x2="111" y2="86" gradientUnits="userSpaceOnUse">
      <stop offset="0" stop-color="#ffffff"/>
      <stop offset="0.45" stop-color="#f3feff"/>
      <stop offset="1" stop-color="#c7efff"/>
    </linearGradient>
    <linearGradient id="gemLeft" x1="74" y1="70" x2="95" y2="122" gradientUnits="userSpaceOnUse">
      <stop offset="0" stop-color="#ebfdff"/>
      <stop offset="0.46" stop-color="#b3e9ff"/>
      <stop offset="1" stop-color="#66b6ea"/>
    </linearGradient>
    <linearGradient id="gemRight" x1="105" y1="67" x2="126" y2="121" gradientUnits="userSpaceOnUse">
      <stop offset="0" stop-color="#ffffff"/>
      <stop offset="0.48" stop-color="#d7f7ff"/>
      <stop offset="1" stop-color="#79c4f1"/>
    </linearGradient>
    <linearGradient id="gemCenter" x1="88" y1="79" x2="112" y2="104" gradientUnits="userSpaceOnUse">
      <stop offset="0" stop-color="#f5ffff"/>
      <stop offset="0.5" stop-color="#d5f7ff"/>
      <stop offset="1" stop-color="#9fd9ff"/>
    </linearGradient>
    <linearGradient id="gemBottom" x1="100" y1="103" x2="100" y2="140" gradientUnits="userSpaceOnUse">
      <stop offset="0" stop-color="#b9ecff"/>
      <stop offset="0.58" stop-color="#79c5ef"/>
      <stop offset="1" stop-color="#2f6e9f"/>
    </linearGradient>
    <linearGradient id="gemEdge" x1="75" y1="61" x2="119" y2="137" gradientUnits="userSpaceOnUse">
      <stop offset="0" stop-color="#ffffff"/>
      <stop offset="0.5" stop-color="#d1f6ff"/>
      <stop offset="1" stop-color="#78c9f6"/>
    </linearGradient>
    <linearGradient id="sheenBand" x1="84" y1="20" x2="108" y2="20" gradientUnits="userSpaceOnUse">
      <stop offset="0" stop-color="#000000"/>
      <stop offset="0.45" stop-color="#ffffff"/>
      <stop offset="0.55" stop-color="#ffffff"/>
      <stop offset="1" stop-color="#000000"/>
    </linearGradient>
    <filter id="shadow" x="-28%" y="-28%" width="156%" height="168%" color-interpolation-filters="sRGB">
      <feDropShadow dx="0" dy="9" stdDeviation="6.5" flood-color="#020810" flood-opacity="0.44"/>
      <feDropShadow dx="0" dy="3" stdDeviation="2" flood-color="#78e0ff" flood-opacity="0.1"/>
    </filter>
    <filter id="bloom" x="-60%" y="-60%" width="220%" height="220%" color-interpolation-filters="sRGB">
      <feGaussianBlur in="SourceGraphic" stdDeviation="5.5" result="blur"/>
      <feColorMatrix in="blur" type="matrix" values="
        1 0 0 0 0
        0 1 0 0 0.18
        0 0 1 0 0.28
        0 0 0 0.55 0" result="tint"/>
      <feBlend in="SourceGraphic" in2="tint" mode="screen"/>
    </filter>
    <filter id="grain" x="-20%" y="-20%" width="140%" height="140%" color-interpolation-filters="sRGB">
      <feTurbulence type="fractalNoise" baseFrequency="0.85" numOctaves="2" seed="19" stitchTiles="stitch" result="noise"/>
      <feColorMatrix in="noise" type="saturate" values="0" result="mono"/>
      <feComponentTransfer in="mono" result="faded">
        <feFuncA type="table" tableValues="0 0.05"/>
      </feComponentTransfer>
      <feBlend in="SourceGraphic" in2="faded" mode="screen"/>
    </filter>
    <clipPath id="hexClip">
      <polygon points="100 7 175 48 175 143 100 185 25 143 25 48"/>
    </clipPath>
    <clipPath id="innerHexClip">
      <polygon points="100 17 166 54 166 137 100 175 34 137 34 54"/>
    </clipPath>
    <clipPath id="coreClip">
      <polygon points="100 58 118 72 126 89 116 121 100 140 84 121 74 89 82 72"/>
    </clipPath>
    <mask id="sheenMask" maskUnits="userSpaceOnUse">
      <rect x="68" y="48" width="64" height="96" fill="#000000"/>
      <rect x="90" y="46" width="16" height="110" rx="8" fill="url(#sheenBand)" transform="rotate(-24 100 100)"/>
    </mask>
  </defs>

  <g filter="url(#shadow)">
    <polygon points="100 7 175 48 175 143 100 185 25 143 25 48" fill="url(#shellFill)" stroke="url(#shellStroke)" stroke-width="4.5" stroke-linejoin="round"/>
  </g>

  <g clip-path="url(#hexClip)">
    <rect x="12" y="12" width="176" height="176" fill="url(#ambient)"/>
    <circle cx="94" cy="57" r="58" fill="url(#upperGlow)"/>
    <polygon points="100 9 175 48 166 54 100 17 34 54 25 48" fill="url(#topFacet)"/>
    <polygon points="25 48 34 54 34 137 25 143 49 102 49 63" fill="url(#leftFacet)"/>
    <polygon points="175 48 166 54 166 137 175 143 151 102 151 63" fill="url(#rightFacet)"/>
    <polygon points="34 137 100 175 166 137 175 143 100 185 25 143" fill="url(#lowerFacet)"/>
    <polygon points="46 42 158 51 164 103 96 176 34 126" fill="url(#causticSweep)"/>
    <polygon points="63 36 144 50 139 121 67 151 48 88" fill="#9aebff" fill-opacity="0.03"/>
    <rect x="18" y="18" width="164" height="164" fill="#e8fbff" fill-opacity="0.05" filter="url(#grain)"/>
  </g>

  <polygon points="100 17 166 54 166 137 100 175 34 137 34 54" fill="none" stroke="#d6fbff" stroke-opacity="0.28" stroke-width="1.4" stroke-linejoin="round"/>
  <polygon points="100 28 156 60 156 132 100 164 44 132 44 60" fill="none" stroke="#71d3ff" stroke-opacity="0.12" stroke-width="1.2" stroke-linejoin="round"/>

  <g clip-path="url(#innerHexClip)">
    <g stroke="#9ddfff" stroke-opacity="0.08" stroke-width="1">
      <line x1="100" y1="28" x2="100" y2="92"/>
      <line x1="156" y1="60" x2="100" y2="92"/>
      <line x1="156" y1="132" x2="100" y2="92"/>
      <line x1="100" y1="164" x2="100" y2="92"/>
      <line x1="44" y1="132" x2="100" y2="92"/>
      <line x1="44" y1="60" x2="100" y2="92"/>
    </g>
    <path d="M44 60L100 92L156 60" stroke="#efffff" stroke-opacity="0.08" stroke-width="1"/>
    <path d="M44 132L100 92L156 132" stroke="#7fd1ff" stroke-opacity="0.07" stroke-width="1"/>
  </g>

  <g filter="url(#bloom)">
    <circle cx="100" cy="101" r="28" fill="url(#coreGlow)"/>
  </g>

  <polygon points="100 56 128 73 128 127 100 144 72 127 72 73" fill="none" stroke="url(#haloStroke)" stroke-width="1.2" stroke-opacity="0.56" stroke-linejoin="round"/>

  <g clip-path="url(#coreClip)">
    <rect x="70" y="50" width="60" height="92" fill="#f8ffff" fill-opacity="0.42" mask="url(#sheenMask)"/>
    <polygon points="86 66 100 60 114 66 100 78" fill="url(#gemTable)"/>
    <polygon points="82 72 86 66 100 78 88 91 74 89" fill="url(#gemLeft)"/>
    <polygon points="114 66 118 72 126 89 112 91 100 78" fill="url(#gemRight)"/>
    <polygon points="88 91 100 78 112 91 100 103" fill="url(#gemCenter)"/>
    <polygon points="74 89 88 91 100 103 90 120 84 121" fill="url(#gemLeft)"/>
    <polygon points="100 103 112 91 126 89 116 121 110 120" fill="url(#gemRight)"/>
    <polygon points="90 120 100 103 100 140 84 121" fill="url(#gemBottom)"/>
    <polygon points="100 103 110 120 116 121 100 140" fill="url(#gemBottom)"/>
    <polygon points="90 66 100 62 110 66 100 74" fill="#ffffff" fill-opacity="0.72"/>
  </g>

  <g stroke="url(#gemEdge)" stroke-width="1.05" stroke-linejoin="round" stroke-linecap="round" stroke-opacity="0.9">
    <polygon points="100 58 118 72 126 89 116 121 100 140 84 121 74 89 82 72" fill="none"/>
    <line x1="92" y1="67" x2="108" y2="67" stroke-opacity="0.65"/>
    <line x1="74" y1="89" x2="126" y2="89"/>
    <line x1="100" y1="60" x2="100" y2="140"/>
    <line x1="88" y1="91" x2="100" y2="103"/>
    <line x1="112" y1="91" x2="100" y2="103"/>
    <line x1="90" y1="120" x2="100" y2="140"/>
    <line x1="110" y1="120" x2="100" y2="140"/>
  </g>

  <g fill="#defcff" fill-opacity="0.78">
    <circle cx="100" cy="32" r="2.1"/>
    <circle cx="151" cy="62" r="1.8"/>
    <circle cx="151" cy="128" r="1.8"/>
    <circle cx="100" cy="168" r="2.1"/>
    <circle cx="49" cy="128" r="1.8"/>
    <circle cx="49" cy="62" r="1.8"/>
  </g>
</svg>
