<svg width="220" height="220" viewBox="0 0 220 220" fill="none" xmlns="http://www.w3.org/2000/svg" role="img" aria-labelledby="title desc">
  <title id="title">Pristine</title>
  <desc id="desc">Hexagonal emblem with layered cores and precise circuit lines.</desc>
  <defs>
    <linearGradient id="bg" x1="0" y1="0" x2="220" y2="220" gradientUnits="userSpaceOnUse">
      <stop offset="0" stop-color="#0b1117"/>
      <stop offset="0.5" stop-color="#111a24"/>
      <stop offset="1" stop-color="#0a0f14"/>
    </linearGradient>
    <linearGradient id="hexFill" x1="28" y1="24" x2="188" y2="196" gradientUnits="userSpaceOnUse">
      <stop offset="0" stop-color="#0f1721"/>
      <stop offset="0.6" stop-color="#142131"/>
      <stop offset="1" stop-color="#0c141c"/>
    </linearGradient>
    <linearGradient id="hexStroke" x1="34" y1="56" x2="190" y2="156" gradientUnits="userSpaceOnUse">
      <stop offset="0" stop-color="#d8f1ff"/>
      <stop offset="0.35" stop-color="#6cc3ff"/>
      <stop offset="0.7" stop-color="#2c7abf"/>
      <stop offset="1" stop-color="#163a5a"/>
    </linearGradient>
    <radialGradient id="coreGlow" cx="0" cy="0" r="1" gradientUnits="userSpaceOnUse" gradientTransform="translate(112 86) rotate(90) scale(86)">
      <stop offset="0" stop-color="#bfe5ff" stop-opacity="0.95"/>
      <stop offset="0.5" stop-color="#4b9ad6" stop-opacity="0.5"/>
      <stop offset="1" stop-color="#0b2136" stop-opacity="0"/>
    </radialGradient>
    <linearGradient id="core" x1="72" y1="60" x2="152" y2="160" gradientUnits="userSpaceOnUse">
      <stop offset="0" stop-color="#e6f6ff"/>
      <stop offset="0.5" stop-color="#79c7ff"/>
      <stop offset="1" stop-color="#2d6ea5"/>
    </linearGradient>
    <linearGradient id="ring" x1="78" y1="78" x2="144" y2="144" gradientUnits="userSpaceOnUse">
      <stop offset="0" stop-color="#e8fbff" stop-opacity="0.9"/>
      <stop offset="1" stop-color="#4aa3e0" stop-opacity="0.2"/>
    </linearGradient>
    <pattern id="grid" width="16" height="14" patternUnits="userSpaceOnUse">
      <path d="M8 0 L16 4.5 L16 13.5 L8 18 L0 13.5 L0 4.5 Z" fill="none" stroke="#9bd3ff" stroke-opacity="0.12" stroke-width="0.7"/>
    </pattern>
    <filter id="shadow" x="-30%" y="-30%" width="160%" height="160%" color-interpolation-filters="sRGB">
      <feDropShadow dx="0" dy="8" stdDeviation="7" flood-color="#02060a" flood-opacity="0.7"/>
    </filter>
    <filter id="softGlow" x="-30%" y="-30%" width="160%" height="160%" color-interpolation-filters="sRGB">
      <feGaussianBlur stdDeviation="2" result="blur"/>
      <feColorMatrix in="blur" type="matrix" values="
        1 0 0 0 0.2
        0 1 0 0 0.5
        0 0 1 0 0.9
        0 0 0 0.65 0" result="colored"/>
      <feBlend in="SourceGraphic" in2="colored" mode="screen"/>
    </filter>
    <clipPath id="hexClip">
      <polygon points="110 16 190 60 190 160 110 204 30 160 30 60"/>
    </clipPath>
  </defs>

  <rect width="220" height="220" fill="url(#bg)"/>

  <g filter="url(#shadow)">
    <polygon points="110 8 198 56 198 164 110 212 22 164 22 56" fill="url(#hexFill)" stroke="url(#hexStroke)" stroke-width="6"/>
  </g>

  <polygon points="110 20 186 62 186 158 110 200 34 158 34 62" fill="none" stroke="#86c9ff" stroke-opacity="0.35" stroke-width="2"/>

  <g clip-path="url(#hexClip)">
    <rect x="22" y="22" width="176" height="176" fill="url(#grid)"/>
    <rect x="22" y="22" width="176" height="176" fill="url(#coreGlow)" opacity="0.35"/>
  </g>

  <g filter="url(#softGlow)">
    <circle cx="110" cy="104" r="52" fill="none" stroke="url(#ring)" stroke-width="3" stroke-dasharray="2 6"/>
    <circle cx="88" cy="92" r="30" fill="url(#core)"/>
    <circle cx="132" cy="120" r="30" fill="url(#core)"/>
    <circle cx="124" cy="80" r="18" fill="#e2f5ff" fill-opacity="0.6"/>
    <path d="M72 136 C86 108, 108 102, 136 114 C160 124, 158 148, 136 162 C112 178, 82 172, 72 154" fill="#b6e5ff" fill-opacity="0.25"/>
  </g>

  <g stroke="#8fd4ff" stroke-opacity="0.55" stroke-width="2" stroke-linecap="round">
    <path d="M64 82 L82 82"/>
    <path d="M138 144 L156 144"/>
    <path d="M144 90 L156 78"/>
    <path d="M76 132 L60 146"/>
  </g>

  <g fill="#cfeeff" opacity="0.85">
    <circle cx="58" cy="106" r="2"/>
    <circle cx="162" cy="98" r="2.5"/>
    <circle cx="92" cy="150" r="1.8"/>
    <circle cx="132" cy="66" r="1.5"/>
  </g>
</svg>
