<svg xmlns="http://www.w3.org/2000/svg" viewBox="0 0 200 200" width="200" height="200">
  <defs>
    <linearGradient id="hexGradient" x1="0%" y1="0%" x2="100%" y2="100%">
      <stop offset="0%" style="stop-color:#6366f1;stop-opacity:1" />
      <stop offset="50%" style="stop-color:#8b5cf6;stop-opacity:1" />
      <stop offset="100%" style="stop-color:#a855f7;stop-opacity:1" />
    </linearGradient>
    <linearGradient id="innerGradient" x1="0%" y1="100%" x2="100%" y2="0%">
      <stop offset="0%" style="stop-color:#4f46e5;stop-opacity:1" />
      <stop offset="100%" style="stop-color:#7c3aed;stop-opacity:1" />
    </linearGradient>
    <linearGradient id="nodeGradient" x1="0%" y1="0%" x2="100%" y2="100%">
      <stop offset="0%" style="stop-color:#ffffff;stop-opacity:1" />
      <stop offset="100%" style="stop-color:#e0e7ff;stop-opacity:1" />
    </linearGradient>
    <filter id="shadow" x="-20%" y="-20%" width="140%" height="140%">
      <feDropShadow dx="0" dy="4" stdDeviation="6" flood-color="#4f46e5" flood-opacity="0.3"/>
    </filter>
    <filter id="glow" x="-50%" y="-50%" width="200%" height="200%">
      <feGaussianBlur stdDeviation="2" result="coloredBlur"/>
      <feMerge>
        <feMergeNode in="coloredBlur"/>
        <feMergeNode in="SourceGraphic"/>
      </feMerge>
    </filter>
    <filter id="innerGlow" x="-50%" y="-50%" width="200%" height="200%">
      <feGaussianBlur stdDeviation="1.5" result="blur"/>
      <feMerge>
        <feMergeNode in="blur"/>
        <feMergeNode in="SourceGraphic"/>
      </feMerge>
    </filter>
  </defs>

  <!-- Outer hexagon with shadow -->
  <polygon
    points="100,15 170,55 170,135 100,175 30,135 30,55"
    fill="url(#hexGradient)"
    filter="url(#shadow)"
    stroke="#4338ca"
    stroke-width="2"
  />

  <!-- Inner hexagon -->
  <polygon
    points="100,32 152,62 152,128 100,158 48,128 48,62"
    fill="url(#innerGradient)"
    opacity="0.9"
  />

  <!-- Knowledge graph / retrieval network inside -->
  <g filter="url(#innerGlow)">
    <!-- Connection lines (drawn first so nodes appear on top) -->
    <g stroke="#c4b5fd" stroke-width="2" opacity="0.7" fill="none">
      <!-- Center to outer nodes -->
      <line x1="100" y1="95" x2="70" y2="70"/>
      <line x1="100" y1="95" x2="130" y2="70"/>
      <line x1="100" y1="95" x2="65" y2="110"/>
      <line x1="100" y1="95" x2="135" y2="110"/>
      <line x1="100" y1="95" x2="100" y2="140"/>

      <!-- Outer node connections -->
      <line x1="70" y1="70" x2="130" y2="70"/>
      <line x1="65" y1="110" x2="100" y2="140"/>
      <line x1="135" y1="110" x2="100" y2="140"/>
      <line x1="70" y1="70" x2="65" y2="110"/>
      <line x1="130" y1="70" x2="135" y2="110"/>
    </g>

    <!-- Central node (larger, represents the AI/generation) -->
    <circle cx="100" cy="95" r="14" fill="url(#nodeGradient)" stroke="#ffffff" stroke-width="2"/>
    <circle cx="100" cy="95" r="7" fill="#6366f1"/>

    <!-- Outer nodes (represent retrieved documents/knowledge) -->
    <circle cx="70" cy="70" r="10" fill="url(#nodeGradient)" stroke="#ffffff" stroke-width="1.5"/>
    <circle cx="70" cy="70" r="4" fill="#8b5cf6"/>

    <circle cx="130" cy="70" r="10" fill="url(#nodeGradient)" stroke="#ffffff" stroke-width="1.5"/>
    <circle cx="130" cy="70" r="4" fill="#8b5cf6"/>

    <circle cx="65" cy="110" r="10" fill="url(#nodeGradient)" stroke="#ffffff" stroke-width="1.5"/>
    <circle cx="65" cy="110" r="4" fill="#8b5cf6"/>

    <circle cx="135" cy="110" r="10" fill="url(#nodeGradient)" stroke="#ffffff" stroke-width="1.5"/>
    <circle cx="135" cy="110" r="4" fill="#8b5cf6"/>

    <circle cx="100" cy="140" r="10" fill="url(#nodeGradient)" stroke="#ffffff" stroke-width="1.5"/>
    <circle cx="100" cy="140" r="4" fill="#8b5cf6"/>
  </g>

  <!-- Corner accent dots on hexagon vertices -->
  <g fill="#c4b5fd" opacity="0.6">
    <circle cx="100" cy="15" r="3"/>
    <circle cx="170" cy="55" r="3"/>
    <circle cx="170" cy="135" r="3"/>
    <circle cx="100" cy="175" r="3"/>
    <circle cx="30" cy="135" r="3"/>
    <circle cx="30" cy="55" r="3"/>
  </g>
</svg>
