<svg xmlns="http://www.w3.org/2000/svg" width="200" height="200" viewBox="0 0 200 200" fill="none" role="img" aria-labelledby="title desc">
  <title id="title">StackLab logo</title>
  <desc id="desc">A symmetric hexagonal mark with an internal lattice and layered technical detailing.</desc>
  <defs>
    <linearGradient id="stackLabOuter" x1="31" y1="24" x2="169" y2="176" gradientUnits="userSpaceOnUse">
      <stop offset="0" stop-color="#72F6D1"/>
      <stop offset="0.5" stop-color="#3CA6FF"/>
      <stop offset="1" stop-color="#9E7BFF"/>
    </linearGradient>
    <linearGradient id="stackLabInner" x1="57" y1="47" x2="143" y2="153" gradientUnits="userSpaceOnUse">
      <stop offset="0" stop-color="#E6FFF8"/>
      <stop offset="1" stop-color="#B9D6FF"/>
    </linearGradient>
    <radialGradient id="stackLabGlow" cx="0" cy="0" r="1" gradientUnits="userSpaceOnUse" gradientTransform="translate(100 100) rotate(90) scale(74)">
      <stop offset="0" stop-color="#8EECFF" stop-opacity="0.75"/>
      <stop offset="1" stop-color="#8EECFF" stop-opacity="0"/>
    </radialGradient>
    <filter id="stackLabShadow" x="14" y="12" width="172" height="176" filterUnits="userSpaceOnUse" color-interpolation-filters="sRGB">
      <feDropShadow dx="0" dy="10" stdDeviation="10" flood-color="#07131F" flood-opacity="0.28"/>
    </filter>
    <filter id="stackLabCoreGlow" x="47" y="40" width="106" height="120" filterUnits="userSpaceOnUse" color-interpolation-filters="sRGB">
      <feGaussianBlur stdDeviation="4" result="blur"/>
      <feBlend in="SourceGraphic" in2="blur" mode="screen"/>
    </filter>
  </defs>

  <g filter="url(#stackLabShadow)">
    <path d="M100 20L158.89 54V122L100 156L41.11 122V54L100 20Z" fill="url(#stackLabGlow)"/>
    <path d="M100 24L155.42 56V120L100 152L44.58 120V56L100 24Z" fill="#09131D" fill-opacity="0.92" stroke="url(#stackLabOuter)" stroke-width="4.5" stroke-linejoin="round"/>
    <path d="M100 42L140.13 65V111L100 134L59.87 111V65L100 42Z" fill="#0D1A28" stroke="url(#stackLabInner)" stroke-width="3.4" stroke-linejoin="round"/>
    <path d="M100 55L129.07 71.5V104.5L100 121L70.93 104.5V71.5L100 55Z" fill="#0A1723" stroke="#89D6FF" stroke-opacity="0.72" stroke-width="2.2" stroke-linejoin="round"/>
  </g>

  <g filter="url(#stackLabCoreGlow)" stroke-linecap="round" stroke-linejoin="round">
    <path d="M100 42V152" stroke="url(#stackLabOuter)" stroke-opacity="0.52" stroke-width="1.3"/>
    <path d="M44.58 56L155.42 120" stroke="url(#stackLabOuter)" stroke-opacity="0.28" stroke-width="1.2"/>
    <path d="M155.42 56L44.58 120" stroke="url(#stackLabOuter)" stroke-opacity="0.28" stroke-width="1.2"/>
    <path d="M59.87 65L140.13 111" stroke="#D8F8FF" stroke-opacity="0.56" stroke-width="1.8"/>
    <path d="M140.13 65L59.87 111" stroke="#D8F8FF" stroke-opacity="0.56" stroke-width="1.8"/>
    <path d="M59.87 65L100 88L140.13 65" stroke="#89D6FF" stroke-opacity="0.7" stroke-width="1.5"/>
    <path d="M59.87 111L100 88L140.13 111" stroke="#89D6FF" stroke-opacity="0.7" stroke-width="1.5"/>
    <path d="M70.93 71.5L129.07 104.5" stroke="#77F0D0" stroke-opacity="0.75" stroke-width="1.6"/>
    <path d="M129.07 71.5L70.93 104.5" stroke="#77F0D0" stroke-opacity="0.75" stroke-width="1.6"/>
    <path d="M85.5 63.4H114.5" stroke="#E6FFF8" stroke-opacity="0.72" stroke-width="1.6"/>
    <path d="M85.5 112.6H114.5" stroke="#E6FFF8" stroke-opacity="0.72" stroke-width="1.6"/>
    <circle cx="100" cy="88" r="9.2" fill="#0F2635" stroke="#E6FFF8" stroke-width="2"/>
    <circle cx="100" cy="88" r="3.1" fill="#77F0D0"/>
    <circle cx="59.87" cy="65" r="3.3" fill="#09131D" stroke="#D7FBFF" stroke-width="1.2"/>
    <circle cx="140.13" cy="65" r="3.3" fill="#09131D" stroke="#D7FBFF" stroke-width="1.2"/>
    <circle cx="59.87" cy="111" r="3.3" fill="#09131D" stroke="#D7FBFF" stroke-width="1.2"/>
    <circle cx="140.13" cy="111" r="3.3" fill="#09131D" stroke="#D7FBFF" stroke-width="1.2"/>
    <circle cx="70.93" cy="71.5" r="2.5" fill="#77F0D0"/>
    <circle cx="129.07" cy="71.5" r="2.5" fill="#77F0D0"/>
    <circle cx="70.93" cy="104.5" r="2.5" fill="#77F0D0"/>
    <circle cx="129.07" cy="104.5" r="2.5" fill="#77F0D0"/>
  </g>
</svg>
