<svg width="200" height="230" viewBox="-5 -5 210 240" fill="none" xmlns="http://www.w3.org/2000/svg">
  <defs>
    <radialGradient id="mainGradient" cx="50%" cy="50%" r="50%" fx="50%" fy="50%">
      <stop offset="0%" style="stop-color:#D4A5FF;" />
      <stop offset="50%" style="stop-color:#A855F7;" />
      <stop offset="100%" style="stop-color:#7C3AED;" />
    </radialGradient>
    <linearGradient id="lineGradient" x1="0%" y1="0%" x2="100%" y2="100%">
      <stop offset="0%" style="stop-color:#FFFFFF;" />
      <stop offset="100%" style="stop-color:#FFFFFF;" />
    </linearGradient>
    <filter id="glowBorder" x="-50%" y="-50%" width="200%" height="200%">
      <feGaussianBlur stdDeviation="4" result="coloredBlur"/>
      <feMerge>
        <feMergeNode in="coloredBlur"/>
        <feMergeNode in="SourceGraphic"/>
      </feMerge>
    </filter>
    <filter id="nodeGlow" x="-50%" y="-50%" width="200%" height="200%">
      <feGaussianBlur stdDeviation="2" result="coloredBlur"/>
      <feMerge>
        <feMergeNode in="coloredBlur"/>
        <feMergeNode in="SourceGraphic"/>
      </feMerge>
    </filter>
    <filter id="shadow" x="-50%" y="-50%" width="200%" height="200%">
      <feDropShadow dx="3" dy="5" stdDeviation="5" flood-color="rgba(0,0,0,0.4)"/>
    </filter>
    <filter id="lineGlow" x="-50%" y="-50%" width="200%" height="200%">
      <feGaussianBlur stdDeviation="1.5" result="coloredBlur"/>
      <feMerge>
        <feMergeNode in="coloredBlur"/>
        <feMergeNode in="SourceGraphic"/>
      </feMerge>
    </filter>
  </defs>
  <!-- Glowing border -->
  <path d="M100 0L200 57.5V172.5L100 230L0 172.5V57.5L100 0Z" fill="none" stroke="url(#mainGradient)" stroke-width="6" filter="url(#glowBorder)" opacity="0.8"/>
  <!-- Main hexagon -->
  <path d="M100 0L200 57.5V172.5L100 230L0 172.5V57.5L100 0Z" fill="url(#mainGradient)" filter="url(#shadow)"/>
  <!-- Stylized graph connections -->
  <g stroke="url(#lineGradient)" stroke-width="2" stroke-linecap="round" stroke-linejoin="round" opacity="0.95" filter="url(#lineGlow)">
    <circle cx="100" cy="115" r="25" fill="none" stroke-dasharray="5,5"/>
    <!-- Curved connections -->
    <path d="M80 102 Q 63 91 45 80" stroke-dasharray="3,3"/>
    <path d="M120 102 Q 137 91 155 80" stroke-dasharray="3,3"/>
    <path d="M78 128 Q 60 139 40 150" stroke-dasharray="3,3"/>
    <path d="M122 128 Q 140 139 160 150" stroke-dasharray="3,3"/>
    <path d="M100 90 L100 35" stroke-width="3"/>
    <path d="M100 140 L100 195" stroke-width="3"/>
    <path d="M155 80 Q 167 90 180 100" stroke-dasharray="2,4"/>
    <path d="M45 80 Q 33 90 20 100" stroke-dasharray="2,4"/>
  </g>
  <!-- Direct solid lines from center node to top and bottom -->
  <path d="M100 109 L100 35" stroke="#FFFFFF" stroke-width="3" stroke-linecap="round"/>
  <path d="M100 121 L100 195" stroke="#FFFFFF" stroke-width="3" stroke-linecap="round"/>
  <!-- Nodes with glow -->
  <g filter="url(#nodeGlow)">
    <circle cx="100" cy="115" r="6" fill="#FFF"/>
    <circle cx="45" cy="80" r="5" fill="#FFF"/>
    <circle cx="155" cy="80" r="5" fill="#FFF"/>
    <circle cx="40" cy="150" r="5" fill="#FFF"/>
    <circle cx="160" cy="150" r="5" fill="#FFF"/>
    <circle cx="100" cy="35" r="5" fill="#FFF"/>
    <circle cx="100" cy="195" r="5" fill="#FFF"/>
    <circle cx="180" cy="100" r="5" fill="#FFF"/>
    <circle cx="20" cy="100" r="5" fill="#FFF"/>
  </g>
</svg>
