<svg xmlns="http://www.w3.org/2000/svg" width="200" height="218" viewBox="0 0 200 218" role="img" aria-label="TelemetryReporter logo">
  <defs>
    <!-- Main hexagon gradient -->
    <linearGradient id="hex-gradient" x1="0%" y1="0%" x2="100%" y2="100%">
      <stop offset="0%" stop-color="#0b1a2b"/>
      <stop offset="50%" stop-color="#0f2a3f"/>
      <stop offset="100%" stop-color="#123a5a"/>
    </linearGradient>
    
    <!-- Glow gradient for inner elements -->
    <radialGradient id="glow-gradient" cx="50%" cy="50%" r="50%">
      <stop offset="0%" stop-color="#3d8bc9" stop-opacity="0.8"/>
      <stop offset="60%" stop-color="#2f6d9b" stop-opacity="0.4"/>
      <stop offset="100%" stop-color="#1b4f7a" stop-opacity="0"/>
    </radialGradient>
    
    <!-- Accent gradient for circuit lines -->
    <linearGradient id="circuit-gradient" x1="0%" y1="0%" x2="100%" y2="100%">
      <stop offset="0%" stop-color="#5ba8d9"/>
      <stop offset="50%" stop-color="#3d8bc9"/>
      <stop offset="100%" stop-color="#2f6d9b"/>
    </linearGradient>
    
    <!-- Pulse animation gradient -->
    <linearGradient id="pulse-gradient" x1="0%" y1="0%" x2="0%" y2="100%">
      <stop offset="0%" stop-color="#7bc4f0"/>
      <stop offset="50%" stop-color="#5ba8d9"/>
      <stop offset="100%" stop-color="#3d8bc9"/>
    </linearGradient>
    
    <!-- Data stream gradient -->
    <linearGradient id="stream-gradient" x1="0%" y1="100%" x2="0%" y2="0%">
      <stop offset="0%" stop-color="#123a5a"/>
      <stop offset="40%" stop-color="#2f6d9b"/>
      <stop offset="70%" stop-color="#5ba8d9"/>
      <stop offset="100%" stop-color="#7bc4f0"/>
    </linearGradient>
    
    <!-- Shadow filter -->
    <filter id="glow" x="-50%" y="-50%" width="200%" height="200%">
      <feGaussianBlur stdDeviation="2" result="blur"/>
      <feMerge>
        <feMergeNode in="blur"/>
        <feMergeNode in="SourceGraphic"/>
      </feMerge>
    </filter>
    
    <!-- Stronger glow for accents -->
    <filter id="strong-glow" x="-100%" y="-100%" width="300%" height="300%">
      <feGaussianBlur stdDeviation="3" result="blur"/>
      <feMerge>
        <feMergeNode in="blur"/>
        <feMergeNode in="blur"/>
        <feMergeNode in="SourceGraphic"/>
      </feMerge>
    </filter>
    
    <!-- Clip path for hexagon interior -->
    <clipPath id="hex-clip">
      <polygon points="100,8 186,55 186,163 100,210 14,163 14,55"/>
    </clipPath>
  </defs>
  
  <!-- Outer hexagon with enhanced border -->
  <polygon points="100,8 186,55 186,163 100,210 14,163 14,55" 
           fill="url(#hex-gradient)" 
           stroke="url(#circuit-gradient)" 
           stroke-width="3"/>
  
  <!-- Inner hexagon border accent -->
  <polygon points="100,20 175,60 175,158 100,198 25,158 25,60" 
           fill="none" 
           stroke="#1b4f7a" 
           stroke-width="1" 
           stroke-dasharray="8,4" 
           opacity="0.6"/>
  
  <!-- Geometric pattern layer - outer ring of triangular segments -->
  <g opacity="0.3" clip-path="url(#hex-clip)">
    <path d="M100,109 L100,35 L140,55 Z" fill="#2f6d9b"/>
    <path d="M100,109 L140,55 L175,90 Z" fill="#1b4f7a"/>
    <path d="M100,109 L175,90 L175,128 Z" fill="#2f6d9b"/>
    <path d="M100,109 L175,128 L140,163 Z" fill="#1b4f7a"/>
    <path d="M100,109 L140,163 L100,183 Z" fill="#2f6d9b"/>
    <path d="M100,109 L100,183 L60,163 Z" fill="#1b4f7a"/>
    <path d="M100,109 L60,163 L25,128 Z" fill="#2f6d9b"/>
    <path d="M100,109 L25,128 L25,90 Z" fill="#1b4f7a"/>
    <path d="M100,109 L25,90 L60,55 Z" fill="#2f6d9b"/>
    <path d="M100,109 L60,55 L100,35 Z" fill="#1b4f7a"/>
  </g>
  
  <!-- Circuit board pattern -->
  <g stroke="url(#circuit-gradient)" stroke-width="1" fill="none" opacity="0.5">
    <!-- Horizontal circuits -->
    <path d="M35,70 L65,70 L75,80 L90,80"/>
    <path d="M110,80 L125,80 L135,70 L165,70"/>
    <path d="M35,148 L65,148 L75,138 L90,138"/>
    <path d="M110,138 L125,138 L135,148 L165,148"/>
    
    <!-- Vertical circuits -->
    <path d="M55,50 L55,65 L65,75 L65,95"/>
    <path d="M145,50 L145,65 L135,75 L135,95"/>
    <path d="M55,168 L55,153 L65,143 L65,123"/>
    <path d="M145,168 L145,153 L135,143 L135,123"/>
    
    <!-- Diagonal connectors -->
    <path d="M40,85 L50,95 L50,109 L60,119"/>
    <path d="M160,85 L150,95 L150,109 L140,119"/>
  </g>
  
  <!-- Circuit nodes (connection points) -->
  <g fill="#5ba8d9" filter="url(#glow)">
    <circle cx="35" cy="70" r="2.5"/>
    <circle cx="165" cy="70" r="2.5"/>
    <circle cx="35" cy="148" r="2.5"/>
    <circle cx="165" cy="148" r="2.5"/>
    <circle cx="55" cy="50" r="2"/>
    <circle cx="145" cy="50" r="2"/>
    <circle cx="55" cy="168" r="2"/>
    <circle cx="145" cy="168" r="2"/>
    <circle cx="90" cy="80" r="2"/>
    <circle cx="110" cy="80" r="2"/>
    <circle cx="90" cy="138" r="2"/>
    <circle cx="110" cy="138" r="2"/>
  </g>
  
  <!-- Central glow effect -->
  <circle cx="100" cy="109" r="45" fill="url(#glow-gradient)" opacity="0.6"/>
  
  <!-- Inner decorative rings -->
  <circle cx="100" cy="109" r="38" fill="none" stroke="#2f6d9b" stroke-width="1.5" opacity="0.7"/>
  <circle cx="100" cy="109" r="32" fill="none" stroke="#1b4f7a" stroke-width="1" stroke-dasharray="3,2" opacity="0.8"/>
  <circle cx="100" cy="109" r="26" fill="none" stroke="#3d8bc9" stroke-width="0.75" opacity="0.5"/>
  
  <!-- Telemetry visualization - data streams/bars -->
  <g filter="url(#glow)">
    <!-- Data bars representing telemetry metrics -->
    <rect x="80" y="100" width="4" height="18" rx="1" fill="url(#stream-gradient)" opacity="0.9"/>
    <rect x="87" y="95" width="4" height="23" rx="1" fill="url(#stream-gradient)" opacity="0.85"/>
    <rect x="94" y="88" width="4" height="30" rx="1" fill="url(#stream-gradient)" opacity="0.95"/>
    <rect x="101" y="92" width="4" height="26" rx="1" fill="url(#stream-gradient)" opacity="0.9"/>
    <rect x="108" y="98" width="4" height="20" rx="1" fill="url(#stream-gradient)" opacity="0.85"/>
    <rect x="115" y="103" width="4" height="15" rx="1" fill="url(#stream-gradient)" opacity="0.8"/>
  </g>
  
  <!-- Signal wave patterns around center -->
  <g stroke="#5ba8d9" stroke-width="1" fill="none" opacity="0.6">
    <path d="M60,109 Q65,99 70,109 Q75,119 80,109"/>
    <path d="M120,109 Q125,99 130,109 Q135,119 140,109"/>
  </g>
  
  <!-- Corner accent triangles -->
  <g fill="#3d8bc9" opacity="0.4">
    <polygon points="100,18 115,28 85,28"/>
    <polygon points="100,200 115,190 85,190"/>
  </g>
  
  <!-- Hexagon vertices highlight dots -->
  <g fill="#7bc4f0" filter="url(#strong-glow)">
    <circle cx="100" cy="8" r="3"/>
    <circle cx="186" cy="55" r="3"/>
    <circle cx="186" cy="163" r="3"/>
    <circle cx="100" cy="210" r="3"/>
    <circle cx="14" cy="163" r="3"/>
    <circle cx="14" cy="55" r="3"/>
  </g>
  
  <!-- Inner hexagon accent -->
  <polygon points="100,65 128,81 128,137 100,153 72,137 72,81" 
           fill="none" 
           stroke="#3d8bc9" 
           stroke-width="0.75" 
           opacity="0.5"/>
  
  <!-- Central core with pulse effect -->
  <circle cx="100" cy="109" r="8" fill="#0f2a3f" stroke="#5ba8d9" stroke-width="2"/>
  <circle cx="100" cy="109" r="4" fill="#7bc4f0" filter="url(#strong-glow)"/>
  <circle cx="100" cy="109" r="2" fill="#e6f2ff"/>
  
  <!-- Radiating connection lines from center -->
  <g stroke="#3d8bc9" stroke-width="0.75" opacity="0.5">
    <line x1="100" y1="101" x2="100" y2="75"/>
    <line x1="100" y1="117" x2="100" y2="143"/>
    <line x1="92" y1="109" x2="72" y2="109"/>
    <line x1="108" y1="109" x2="128" y2="109"/>
    <line x1="94" y1="103" x2="78" y2="87"/>
    <line x1="106" y1="103" x2="122" y2="87"/>
    <line x1="94" y1="115" x2="78" y2="131"/>
    <line x1="106" y1="115" x2="122" y2="131"/>
  </g>
  
  <!-- Secondary data nodes on radiating lines -->
  <g fill="#5ba8d9">
    <circle cx="100" cy="75" r="2"/>
    <circle cx="100" cy="143" r="2"/>
    <circle cx="72" cy="109" r="2"/>
    <circle cx="128" cy="109" r="2"/>
    <circle cx="78" cy="87" r="1.5"/>
    <circle cx="122" cy="87" r="1.5"/>
    <circle cx="78" cy="131" r="1.5"/>
    <circle cx="122" cy="131" r="1.5"/>
  </g>
</svg>
