<svg xmlns="http://www.w3.org/2000/svg" viewBox="45 20 310 290" width="310" height="290">
  <defs>
    <!-- Gradient definitions -->
    <linearGradient id="hexGradient" x1="0%" y1="0%" x2="100%" y2="100%">
      <stop offset="0%" style="stop-color:#1a1a2e;stop-opacity:1" />
      <stop offset="50%" style="stop-color:#16213e;stop-opacity:1" />
      <stop offset="100%" style="stop-color:#0f3460;stop-opacity:1" />
    </linearGradient>
    
    <linearGradient id="hexBorderGradient" x1="0%" y1="0%" x2="100%" y2="100%">
      <stop offset="0%" style="stop-color:#e94560;stop-opacity:1" />
      <stop offset="25%" style="stop-color:#ff6b6b;stop-opacity:1" />
      <stop offset="50%" style="stop-color:#feca57;stop-opacity:1" />
      <stop offset="75%" style="stop-color:#48dbfb;stop-opacity:1" />
      <stop offset="100%" style="stop-color:#a29bfe;stop-opacity:1" />
    </linearGradient>
    
    <linearGradient id="bookCoverGradient" x1="0%" y1="0%" x2="100%" y2="100%">
      <stop offset="0%" style="stop-color:#ff6b6b;stop-opacity:1" />
      <stop offset="50%" style="stop-color:#ee5a24;stop-opacity:1" />
      <stop offset="100%" style="stop-color:#c0392b;stop-opacity:1" />
    </linearGradient>
    
    <linearGradient id="bookCoverGradient2" x1="100%" y1="0%" x2="0%" y2="100%">
      <stop offset="0%" style="stop-color:#e74c3c;stop-opacity:1" />
      <stop offset="100%" style="stop-color:#922b21;stop-opacity:1" />
    </linearGradient>
    
    <linearGradient id="pageGradient" x1="0%" y1="0%" x2="100%" y2="0%">
      <stop offset="0%" style="stop-color:#f8f9fa;stop-opacity:1" />
      <stop offset="50%" style="stop-color:#ffffff;stop-opacity:1" />
      <stop offset="100%" style="stop-color:#e9ecef;stop-opacity:1" />
    </linearGradient>
    
    <linearGradient id="spineGradient" x1="0%" y1="0%" x2="100%" y2="0%">
      <stop offset="0%" style="stop-color:#7f1d1d;stop-opacity:1" />
      <stop offset="50%" style="stop-color:#991b1b;stop-opacity:1" />
      <stop offset="100%" style="stop-color:#7f1d1d;stop-opacity:1" />
    </linearGradient>
    
    <linearGradient id="steamGradient" x1="0%" y1="100%" x2="0%" y2="0%">
      <stop offset="0%" style="stop-color:#ffffff;stop-opacity:0.8" />
      <stop offset="100%" style="stop-color:#ffffff;stop-opacity:0" />
    </linearGradient>
    
    <radialGradient id="glowGradient" cx="50%" cy="50%" r="50%">
      <stop offset="0%" style="stop-color:#feca57;stop-opacity:0.4" />
      <stop offset="100%" style="stop-color:#feca57;stop-opacity:0" />
    </radialGradient>
    
    <linearGradient id="utensil1Gradient" x1="0%" y1="0%" x2="100%" y2="100%">
      <stop offset="0%" style="stop-color:#bdc3c7;stop-opacity:1" />
      <stop offset="50%" style="stop-color:#ecf0f1;stop-opacity:1" />
      <stop offset="100%" style="stop-color:#95a5a6;stop-opacity:1" />
    </linearGradient>
    
    <linearGradient id="utensil2Gradient" x1="0%" y1="0%" x2="100%" y2="100%">
      <stop offset="0%" style="stop-color:#f39c12;stop-opacity:1" />
      <stop offset="50%" style="stop-color:#f1c40f;stop-opacity:1" />
      <stop offset="100%" style="stop-color:#d68910;stop-opacity:1" />
    </linearGradient>
    
    <!-- Filters -->
    <filter id="glow" x="-50%" y="-50%" width="200%" height="200%">
      <feGaussianBlur stdDeviation="3" result="coloredBlur"/>
      <feMerge>
        <feMergeNode in="coloredBlur"/>
        <feMergeNode in="SourceGraphic"/>
      </feMerge>
    </filter>
    
    <filter id="softShadow" x="-50%" y="-50%" width="200%" height="200%">
      <feDropShadow dx="2" dy="3" stdDeviation="4" flood-color="#000000" flood-opacity="0.4"/>
    </filter>
    
    <filter id="innerShadow" x="-50%" y="-50%" width="200%" height="200%">
      <feOffset dx="0" dy="2"/>
      <feGaussianBlur stdDeviation="2" result="offset-blur"/>
      <feComposite operator="out" in="SourceGraphic" in2="offset-blur" result="inverse"/>
      <feFlood flood-color="#000000" flood-opacity="0.2" result="color"/>
      <feComposite operator="in" in="color" in2="inverse" result="shadow"/>
      <feComposite operator="over" in="shadow" in2="SourceGraphic"/>
    </filter>
    
    <filter id="bookShadow" x="-50%" y="-50%" width="200%" height="200%">
      <feDropShadow dx="3" dy="5" stdDeviation="6" flood-color="#000000" flood-opacity="0.5"/>
    </filter>
    
    <!-- Clip path for hexagon -->
    <clipPath id="hexClip">
      <polygon points="200,35 340,100 340,230 200,295 60,230 60,100"/>
    </clipPath>
    
    <!-- Pattern for page texture -->
    <pattern id="pageLines" patternUnits="userSpaceOnUse" width="8" height="8">
      <line x1="0" y1="4" x2="8" y2="4" stroke="#dee2e6" stroke-width="0.5"/>
    </pattern>
    
    <!-- Pattern for book cover texture -->
    <pattern id="coverTexture" patternUnits="userSpaceOnUse" width="4" height="4">
      <rect width="4" height="4" fill="transparent"/>
      <circle cx="2" cy="2" r="0.3" fill="rgba(255,255,255,0.05)"/>
    </pattern>
  </defs>
  
  <!-- Background glow -->
  <ellipse cx="200" cy="165" rx="140" ry="140" fill="url(#glowGradient)"/>
  
  <!-- Outer hexagon border (gradient stroke effect) -->
  <polygon 
    points="200,30 345,97 345,233 200,300 55,233 55,97" 
    fill="url(#hexBorderGradient)"
    filter="url(#glow)"
  />
  
  <!-- Inner hexagon background -->
  <polygon 
    points="200,38 338,102 338,228 200,292 62,228 62,102" 
    fill="url(#hexGradient)"
    filter="url(#innerShadow)"
  />
  
  <!-- Decorative inner hex ring -->
  <polygon 
    points="200,50 325,108 325,222 200,280 75,222 75,108" 
    fill="none"
    stroke="rgba(255,255,255,0.08)"
    stroke-width="1"
  />
  
  <!-- Tinker Toy connectors at hex corners -->
  <g opacity="0.6">
    <!-- Top connector -->
    <circle cx="200" cy="50" r="5" fill="none" stroke="#feca57" stroke-width="1.5"/>
    <circle cx="200" cy="50" r="2" fill="#feca57"/>
    <!-- Bottom connector -->
    <circle cx="200" cy="280" r="5" fill="none" stroke="#feca57" stroke-width="1.5"/>
    <circle cx="200" cy="280" r="2" fill="#feca57"/>
    <!-- Top-left connector -->
    <circle cx="75" cy="108" r="4" fill="none" stroke="#48dbfb" stroke-width="1.5"/>
    <circle cx="75" cy="108" r="1.5" fill="#48dbfb"/>
    <!-- Top-right connector -->
    <circle cx="325" cy="108" r="4" fill="none" stroke="#48dbfb" stroke-width="1.5"/>
    <circle cx="325" cy="108" r="1.5" fill="#48dbfb"/>
    <!-- Bottom-left connector -->
    <circle cx="75" cy="222" r="4" fill="none" stroke="#e94560" stroke-width="1.5"/>
    <circle cx="75" cy="222" r="1.5" fill="#e94560"/>
    <!-- Bottom-right connector -->
    <circle cx="325" cy="222" r="4" fill="none" stroke="#e94560" stroke-width="1.5"/>
    <circle cx="325" cy="222" r="1.5" fill="#e94560"/>
  </g>
  
  <!-- Main cookbook group -->
  <g transform="translate(215, 175)" filter="url(#bookShadow)">
    <!-- Book shadow base -->
    <ellipse cx="5" cy="75" rx="55" ry="8" fill="rgba(0,0,0,0.3)"/>
    
    <!-- Back cover -->
    <g transform="rotate(-8)">
      <rect x="-58" y="-55" width="95" height="120" rx="3" ry="3" fill="url(#bookCoverGradient2)"/>
      <rect x="-58" y="-55" width="95" height="120" rx="3" ry="3" fill="url(#coverTexture)"/>
    </g>
    
    <!-- Pages (fanned effect) -->
    <g transform="rotate(-4)">
      <rect x="-48" y="-50" width="85" height="110" rx="2" ry="2" fill="#f8f9fa"/>
      <rect x="-48" y="-50" width="85" height="110" rx="2" ry="2" fill="url(#pageLines)"/>
    </g>
    <g transform="rotate(-2)">
      <rect x="-48" y="-50" width="85" height="110" rx="2" ry="2" fill="#ffffff"/>
      <rect x="-48" y="-50" width="85" height="110" rx="2" ry="2" fill="url(#pageLines)"/>
    </g>
    <g transform="rotate(0)">
      <rect x="-48" y="-50" width="85" height="110" rx="2" ry="2" fill="url(#pageGradient)"/>
      <rect x="-48" y="-50" width="85" height="110" rx="2" ry="2" fill="url(#pageLines)"/>
    </g>
    
    <!-- Front cover -->
    <g transform="rotate(6)">
      <rect x="-55" y="-55" width="95" height="120" rx="4" ry="4" fill="url(#bookCoverGradient)"/>
      <rect x="-55" y="-55" width="95" height="120" rx="4" ry="4" fill="url(#coverTexture)"/>
      
      <!-- Spine detail -->
      <rect x="-55" y="-55" width="12" height="120" fill="url(#spineGradient)"/>
      
      <!-- Cover decorative border -->
      <rect x="-48" y="-48" width="80" height="106" rx="2" ry="2" 
            fill="none" stroke="rgba(255,255,255,0.2)" stroke-width="1"/>
      
      <!-- Inner decorative frame -->
      <rect x="-42" y="-42" width="68" height="94" rx="1" ry="1" 
            fill="none" stroke="rgba(255,215,0,0.4)" stroke-width="1.5"/>
      
      <!-- Title area decoration -->
      <rect x="-36" y="-35" width="56" height="22" rx="2" ry="2" 
            fill="rgba(255,255,255,0.15)"/>
      
      <!-- "COOKBOOK" text simulation lines -->
      <line x1="-28" y1="-26" x2="12" y2="-26" stroke="rgba(255,255,255,0.8)" stroke-width="3" stroke-linecap="round"/>
      <line x1="-24" y1="-18" x2="8" y2="-18" stroke="rgba(255,255,255,0.5)" stroke-width="2" stroke-linecap="round"/>
      
      <!-- Decorative emblem -->
      <g transform="translate(-7, 13)">
        <!-- Chef hat emblem -->
        <ellipse cx="0" cy="8" rx="18" ry="6" fill="rgba(255,255,255,0.2)"/>
        <path d="M-12,8 Q-14,-5 -8,-10 Q0,-15 8,-10 Q14,-5 12,8 Z" 
              fill="rgba(255,255,255,0.25)" stroke="rgba(255,215,0,0.5)" stroke-width="1"/>
        <ellipse cx="0" cy="-8" rx="6" ry="4" fill="rgba(255,255,255,0.3)"/>
        
        <!-- Small utensils crossed -->
        <g transform="translate(0, 25)">
          <line x1="-10" y1="-8" x2="10" y2="8" stroke="rgba(255,215,0,0.6)" stroke-width="2" stroke-linecap="round"/>
          <line x1="10" y1="-8" x2="-10" y2="8" stroke="rgba(255,215,0,0.6)" stroke-width="2" stroke-linecap="round"/>
          <circle cx="-10" cy="-8" r="2" fill="rgba(255,215,0,0.6)"/>
          <circle cx="10" cy="-8" r="2" fill="rgba(255,215,0,0.6)"/>
        </g>
      </g>
      
      <!-- Bottom decoration -->
      <line x1="-30" y1="48" x2="14" y2="48" stroke="rgba(255,215,0,0.4)" stroke-width="1"/>
      <circle cx="-8" cy="48" r="3" fill="rgba(255,215,0,0.3)"/>
    </g>
    
    <!-- Bookmark ribbon -->
    <g transform="rotate(6)">
      <path d="M15,-55 L15,-62 L18,-62 L18,-55" fill="#feca57"/>
      <path d="M15,65 L15,80 L16.5,73 L18,80 L18,65" fill="#feca57"/>
    </g>
  </g>
  
  <!-- Floating cooking utensils -->
  <!-- Wooden spoon -->
  <g transform="translate(287, 110) rotate(25)" filter="url(#softShadow)">
    <ellipse cx="0" cy="0" rx="12" ry="18" fill="url(#utensil2Gradient)"/>
    <ellipse cx="0" cy="0" rx="8" ry="12" fill="rgba(139,90,43,0.3)"/>
    <rect x="-3" y="15" width="6" height="40" rx="3" fill="url(#utensil2Gradient)"/>
  </g>
  
  <!-- Whisk -->
  <g transform="translate(117, 110) rotate(-30)" filter="url(#softShadow)">
    <rect x="-2" y="20" width="4" height="35" rx="2" fill="url(#utensil1Gradient)"/>
    <path d="M-8,-15 Q-12,5 -6,20 Q0,25 6,20 Q12,5 8,-15 Q4,-20 0,-15 Q-4,-20 -8,-15" 
          fill="none" stroke="url(#utensil1Gradient)" stroke-width="2"/>
    <path d="M-5,-12 Q-8,5 -3,18" fill="none" stroke="url(#utensil1Gradient)" stroke-width="1.5"/>
    <path d="M0,-14 Q0,5 0,18" fill="none" stroke="url(#utensil1Gradient)" stroke-width="1.5"/>
    <path d="M5,-12 Q8,5 3,18" fill="none" stroke="url(#utensil1Gradient)" stroke-width="1.5"/>
  </g>
  
  <!-- Steam wisps -->
  <g opacity="0.6" transform="translate(40, 15)">
    <path d="M160,85 Q155,75 160,65 Q165,55 160,45" 
          fill="none" stroke="url(#steamGradient)" stroke-width="3" stroke-linecap="round">
      <animate attributeName="d" 
               values="M160,85 Q155,75 160,65 Q165,55 160,45;
                       M160,85 Q165,75 160,65 Q155,55 160,45;
                       M160,85 Q155,75 160,65 Q165,55 160,45"
               dur="3s" repeatCount="indefinite"/>
    </path>
    <path d="M175,90 Q180,78 175,68 Q170,58 175,48" 
          fill="none" stroke="url(#steamGradient)" stroke-width="2" stroke-linecap="round">
      <animate attributeName="d" 
               values="M175,90 Q180,78 175,68 Q170,58 175,48;
                       M175,90 Q170,78 175,68 Q180,58 175,48;
                       M175,90 Q180,78 175,68 Q170,58 175,48"
               dur="2.5s" repeatCount="indefinite"/>
    </path>
    <path d="M145,88 Q140,76 145,66 Q150,56 145,46" 
          fill="none" stroke="url(#steamGradient)" stroke-width="2" stroke-linecap="round">
      <animate attributeName="d" 
               values="M145,88 Q140,76 145,66 Q150,56 145,46;
                       M145,88 Q150,76 145,66 Q140,56 145,46;
                       M145,88 Q140,76 145,66 Q150,56 145,46"
               dur="2.8s" repeatCount="indefinite"/>
    </path>
  </g>
  
  <!-- Floating Tinker Toy connector nodes -->
  <g filter="url(#glow)">
    <!-- Small floating connectors - like loose toy pieces -->
    <g opacity="0.5">
      <circle cx="290" cy="235" r="3" fill="none" stroke="#feca57" stroke-width="1">
        <animate attributeName="opacity" values="0.3;0.7;0.3" dur="3s" repeatCount="indefinite"/>
      </circle>
      <circle cx="290" cy="235" r="1" fill="#feca57">
        <animate attributeName="opacity" values="0.3;0.7;0.3" dur="3s" repeatCount="indefinite"/>
      </circle>
    </g>
    <g opacity="0.5">
      <circle cx="108" cy="240" r="2.5" fill="none" stroke="#48dbfb" stroke-width="1">
        <animate attributeName="opacity" values="0.4;0.8;0.4" dur="2.5s" repeatCount="indefinite"/>
      </circle>
      <circle cx="108" cy="240" r="0.8" fill="#48dbfb">
        <animate attributeName="opacity" values="0.4;0.8;0.4" dur="2.5s" repeatCount="indefinite"/>
      </circle>
    </g>
    <g opacity="0.4">
      <circle cx="85" cy="165" r="2" fill="none" stroke="#a29bfe" stroke-width="1">
        <animate attributeName="opacity" values="0.3;0.6;0.3" dur="2.8s" repeatCount="indefinite"/>
      </circle>
      <circle cx="85" cy="165" r="0.7" fill="#a29bfe">
        <animate attributeName="opacity" values="0.3;0.6;0.3" dur="2.8s" repeatCount="indefinite"/>
      </circle>
    </g>
    <g opacity="0.4">
      <circle cx="310" cy="165" r="2" fill="none" stroke="#e94560" stroke-width="1">
        <animate attributeName="opacity" values="0.35;0.7;0.35" dur="2.2s" repeatCount="indefinite"/>
      </circle>
      <circle cx="310" cy="165" r="0.7" fill="#e94560">
        <animate attributeName="opacity" values="0.35;0.7;0.35" dur="2.2s" repeatCount="indefinite"/>
      </circle>
    </g>
  </g>
</svg>
