<svg xmlns="http://www.w3.org/2000/svg" viewBox="0 0 32 32">
  <defs>
    <linearGradient id="waveGradient" x1="0%" y1="0%" x2="100%" y2="100%">
      <stop offset="0%" style="stop-color:#0fbcf9;stop-opacity:1" />
      <stop offset="100%" style="stop-color:#0891b2;stop-opacity:1" />
    </linearGradient>
  </defs>
  
  <!-- Background circle -->
  <circle cx="16" cy="16" r="15" fill="#1a365d" stroke="#0fbcf9" stroke-width="1"/>
  
  <!-- Wave design -->
  <path d="M4 18 Q8 14 12 18 Q16 22 20 18 Q24 14 28 18 Q28 22 28 28 L4 28 Q4 22 4 18 Z" 
        fill="url(#waveGradient)" opacity="0.8"/>
  
  <!-- Second wave layer -->
  <path d="M4 22 Q8 18 12 22 Q16 26 20 22 Q24 18 28 22 Q28 26 28 28 L4 28 Q4 26 4 22 Z" 
        fill="url(#waveGradient)" opacity="0.6"/>
  
  <!-- Small palm tree silhouette -->
  <path d="M16 12 L15 8 M16 12 L17 8 M16 12 L14 9 M16 12 L18 9 M16 12 L16 16" 
        stroke="#0fbcf9" stroke-width="1" fill="none" opacity="0.7"/>
</svg>